<svg id="Layer_1" data-name="Layer 1" xmlns="http://www.w3.org/2000/svg" viewBox="0 0 338.4 367.64"><defs><style>.cls-1{fill:#fff;stroke:#ff9d23;stroke-width:16px;}.cls-1,.cls-2{stroke-miterlimit:10;}.cls-2{fill:#ff9d23;stroke:#fff;}</style></defs><rect class="cls-1" x="17.7" y="40.14" width="303" height="303" rx="151.5"/><path class="cls-2" d="M164.07,315.13c-5.33-2.27-5.88-5.92-6.47-9.71-2.89-18.71-5.93-37.39-8.82-56.1-1.48-9.63-4.45-18.55-10.52-26.39-7.17-9.25-9.81-20.32-12-31.53-.78-3.89.7-4.76,4.28-4.74,25.74.13,51.48.2,77.22.07,4.47,0,5.14,2,4.41,5.56-2.4,11.67-5.62,23.05-13.32,32.5-6.22,7.64-7.62,16.87-9.14,26.1-3.09,18.67-6.1,37.36-9.18,56a24.59,24.59,0,0,1-1.19,4.35c-.56,1.48-1.73,2.92-3.25,2.78-2.78-.25-1.68-2.73-1.55-4.19,1.54-18.25,1.83-36.57,2.93-54.84.93-15.51,5.54-28.68,14.84-40.81,3.29-4.29,7.28-10.64,4.94-15.06-1.94-3.68-9.24-1-14.15-1.06-12.37-.1-24.73.27-37.1.1-4.72-.06-5.93,1.72-4.34,5.81,1.36,3.52,2.23,7.58,4.61,10.28,9.44,10.73,13.27,23.37,14.24,37.24C161.93,272.4,163.74,293.26,164.07,315.13Z"/><path class="cls-2" d="M152.83,100.62c1.61,14.89,7.88,25.38,15.47,35.31,4.43,5.79,9,11.56,10.85,18.85,3,11.75-2.85,23.84-13.25,27.08-12.67,3.94-26.64-1.88-31.27-12.67a35.43,35.43,0,0,1-2.28-20C135.12,132.05,143.07,117,152.83,100.62Z"/><path class="cls-2" d="M181,181.67c13.92-17.63,7.84-33.53-4-48.88-5.56-7.22-10.71-14.64-13.76-23.38-5.37-15.34-1.78-29.49,10.92-41.25-3.26,17.55,2.12,32.7,11.41,47,7.52,11.57,16.67,22.16,20,36.23C209.44,168.05,196.53,184.13,181,181.67Z"/></svg>