<svg id="Layer_1" data-name="Layer 1" xmlns="http://www.w3.org/2000/svg" viewBox="0 0 553 862"><defs><style>.cls-1{fill:#ff9d23;}</style></defs><path class="cls-1" d="M264.77,609.29c-12.18-5.19-13.43-13.52-14.77-22.19-6.6-42.75-13.55-85.44-20.15-128.19-3.4-22-10.18-42.39-24.06-60.3-16.36-21.13-22.41-46.42-27.51-72-1.77-8.88,1.61-10.87,9.78-10.83,58.82.3,117.65.46,176.47.15,10.21-.05,11.74,4.56,10.07,12.71-5.49,26.67-12.85,52.67-30.44,74.27-14.22,17.46-17.42,38.55-20.9,59.62-7,42.68-13.93,85.38-21,128.06a54.49,54.49,0,0,1-2.72,9.93c-1.26,3.4-3.95,6.69-7.42,6.37-6.35-.58-3.83-6.24-3.55-9.57,3.52-41.7,4.2-83.57,6.7-125.33,2.12-35.42,12.65-65.51,33.91-93.24,7.52-9.81,16.64-24.31,11.3-34.41-4.45-8.42-21.13-2.33-32.35-2.42-28.25-.23-56.51.61-84.75.23-10.81-.14-13.56,3.92-9.94,13.28,3.11,8,5.12,17.32,10.53,23.48,21.58,24.51,30.33,53.39,32.54,85.09C259.88,511.66,264,559.31,264.77,609.29Z"/><path class="cls-1" d="M239.1,119.14c3.68,34,18,58,35.34,80.68,10.12,13.22,20.48,26.4,24.8,43.06,7,26.85-6.51,54.49-30.29,61.89-28.93,9-60.87-4.3-71.44-28.95-6.39-14.9-7.7-30.26-5.2-45.71C198.64,190.94,216.8,156.63,239.1,119.14Z"/><path class="cls-1" d="M303.39,304.34c31.81-40.29,17.91-76.63-9.1-111.71-12.71-16.49-24.48-33.45-31.46-53.41-12.27-35-4.05-67.39,25-94.26-7.44,40.09,4.83,74.71,26.07,107.39C331,178.8,351.94,203,359.5,235.15,368.44,273.22,339,310,303.39,304.34Z"/><path class="cls-1" d="M40.13,815.56H25.92V672H40.13Z"/><path class="cls-1" d="M176.73,738.27v41.86q0,11.64-4,19.94a28.33,28.33,0,0,1-11.8,12.63q-7.75,4.35-18.61,4.34-11.06,0-19-4.09a27.57,27.57,0,0,1-12-11.9q-4.1-7.8-4.1-18.75V707.37q0-11.64,4-19.89a28.37,28.37,0,0,1,11.8-12.58q7.74-4.35,18.6-4.35,10.66,0,18.26,4.2A27.66,27.66,0,0,1,171.54,687q4,8.06,4,19.3v6.91h-15.4v-6.91A30.33,30.33,0,0,0,158,694.34a16,16,0,0,0-6.27-7.5,18.77,18.77,0,0,0-10.07-2.56,20.92,20.92,0,0,0-11,2.71,17.26,17.26,0,0,0-6.91,7.9,29.85,29.85,0,0,0-2.37,12.48V782.3a24.23,24.23,0,0,0,2.47,11.35,16.63,16.63,0,0,0,7.1,7.2,23.61,23.61,0,0,0,11.25,2.47,21.24,21.24,0,0,0,11-2.66,17.06,17.06,0,0,0,6.91-7.8,29.27,29.27,0,0,0,2.37-12.34v-29H141.78V738.27Z"/><path class="cls-1" d="M239.78,672H253.1L298.61,789.9l-2.37,2.56V672h14V815.47H296.73L251.43,697.6,253.8,695V815.47h-14Z"/><path class="cls-1" d="M391.57,815.56H377.36V672h14.21Z"/><path class="cls-1" d="M473.13,813.34a24.56,24.56,0,0,1-11.59-11.2q-3.85-7.5-3.85-18.76v-7.1h14v7.1q0,10.36,5.18,15.5T492.63,804q10.28,0,15.35-5.13t5.08-15.5v-8.49a21.87,21.87,0,0,0-3-11.79,28,28,0,0,0-7.85-8.2,104.57,104.57,0,0,0-12.29-7,3.07,3.07,0,0,1-.55-.25l-.44-.25-1.38-.69a140.21,140.21,0,0,1-15.65-8.78,33.91,33.91,0,0,1-10-10.61q-4.1-6.67-4.1-16.54v-7q0-11.06,3.86-18.46a24.4,24.4,0,0,1,11.55-11q7.69-3.66,19.34-3.66,11.25,0,18.76,3.71a24.27,24.27,0,0,1,11.25,11.15q3.75,7.46,3.75,18.71v7.5h-14v-7.5q0-10.27-4.94-15.4t-14.81-5.14q-10.36,0-15.55,4.89t-5.18,14.66v7a19.08,19.08,0,0,0,3.26,11.25,27.56,27.56,0,0,0,8.05,7.65,139.54,139.54,0,0,0,13.17,7.06l1.53.74c.5.23,1,.48,1.53.74l.74.35a4.44,4.44,0,0,1,.65.34,84.79,84.79,0,0,1,13.67,8.34,33.27,33.27,0,0,1,9.13,11.11q3.56,6.81,3.55,16.58v9.08q0,11.26-3.8,18.71a24.67,24.67,0,0,1-11.45,11.2q-7.65,3.75-19.2,3.75Q480.89,817,473.13,813.34Z"/></svg>