<?xml version="1.0" encoding="utf-8"?>
<!-- Generator: Adobe Illustrator 26.0.0, SVG Export Plug-In . SVG Version: 6.00 Build 0)  -->
<svg version="1.1" id="Layer_1" xmlns="http://www.w3.org/2000/svg" xmlns:xlink="http://www.w3.org/1999/xlink" x="0px" y="0px"
	 viewBox="0 0 954.2 578.6" style="enable-background:new 0 0 954.2 578.6;" xml:space="preserve">
<style type="text/css">
	.st0{fill:#010101;}
	.st1{fill:#F7F0DB;}
	.st2{fill:#F7F1DC;}
	.st3{fill:#F8F1DC;}
	.st4{fill:#F8F1DB;}
	.st5{fill:#F7F7E2;}
	.st6{fill:#F7F6DE;}
	.st7{fill:#F4F2DD;}
	.st8{fill:#A14518;}
	.st9{fill:#F28127;}
	.st10{fill:#F48428;}
	.st11{fill:#FFFFFF;}
	.st12{fill:#F3822B;}
	.st13{fill:#F0822E;}
	.st14{fill:#FFE4A1;}
	.st15{fill:#F9F2DB;}
	.st16{fill:#F9F4E1;}
	.st17{fill:#F5862E;}
	.st18{fill:#F38429;}
	.st19{fill:#020101;}
	.st20{fill:#020202;}
	.st21{fill:#020102;}
	.st22{fill:#070101;}
	.st23{fill:#0C0202;}
	.st24{fill:#170706;}
	.st25{fill:#140705;}
	.st26{fill:#150503;}
	.st27{fill:#110302;}
	.st28{fill:#030202;}
	.st29{fill:#050603;}
	.st30{fill:#FBFF33;}
	.st31{fill:#F4F1DD;}
	.st32{fill:#FAF6E6;}
	.st33{fill:#F7F1DB;}
	.st34{fill:#FAF5E2;}
	.st35{fill:#F9F1D8;}
	.st36{fill:#FAF5E5;}
	.st37{fill:#FAF3DD;}
	.st38{fill:#FAF1D8;}
	.st39{fill:#F9F3DA;}
	.st40{fill:#F7F1DE;}
	.st41{fill:#F7F0D8;}
	.st42{fill:#FAF4E1;}
	.st43{fill:#F9F3DE;}
	.st44{fill:#F9F5E2;}
	.st45{fill:#F9F3DD;}
	.st46{fill:#FBF7E4;}
	.st47{fill:#FAF6E4;}
	.st48{fill:#F9F2D8;}
	.st49{fill:#F8F4E4;}
	.st50{fill:#FAF6E1;}
	.st51{fill:#F8F2DC;}
	.st52{fill:#F8F1D8;}
	.st53{fill:#FAF5DE;}
	.st54{fill:#F68429;}
	.st55{fill:#FB8529;}
	.st56{fill:#020201;}
	.st57{fill:#FF9D23;}
</style>
<g>
	<path class="st0" d="M527.4,225.8c-3.3-5.1-8.3-6.5-14-6.1c-5.9,0.4-11.1,2.9-16.1,5.8c-11.4,6.5-23.1,11.9-36,15
		c-10.5,2.5-19.9,7.3-26.2,16.7c-0.3,0.5-0.9,0.7-1.5,0.6c-9.9-0.9-16.6,4-18.7,13.7c-0.1,1.1-0.8,2-1.8,2.5
		c-4.2,2.5-8.6,4.7-13.1,6.8c-6.8,3.1-14,5.2-21.4,6.3c-1.3,0.2-2.5,0.4-2.1-1.8c0.3-1.9,0.6-3.9,0.7-5.8c5.9,1.1,8.8-0.2,10.7-5
		c0.9-2.2,1.4-4.6,1.4-7c0.6-15.6-3.8-31-12.6-44c-0.8-1.1-1-1.9-0.1-3.1c2.9-4.5,5.1-9.4,6.6-14.5c0.5-1.7,0.9-2.3,2.8-1.9
		c7.4,1.5,14.7,3.6,21.7,6.2c1,0.4,2.1,0.8,3.1,1.2c0,0,0.1,0,0.1,0.1c0.9,0.4,1.9,0,2.3-0.8l0.1-0.1c0.5-0.9,0.1-2-0.8-2.5
		c-0.6-0.3-1.2-0.7-1.8-0.9c-7.7-3.4-15.8-5.8-24.1-7c-1.6-0.2-2-0.8-1.8-2.2c0.3-1.7,0.3-3.4,0.2-5.1c-0.2-1.8,0.5-2.3,2.2-2.4
		c8.1-0.6,16.1-0.7,24.2-0.4c1.1,0.1,2.3,0,3.3,0s1.9-0.5,2-1.6c0.1-1.3-0.9-1.8-1.9-2c-0.4-0.1-0.8-0.1-1.3-0.2
		c-8.8-1.2-17.7-1.2-26.4,0c-1.8,0.3-2.7,0-3-2.1c-0.4-3.4-1.6-6.6-3.6-9.5c-3.2-4.3-4.8-9.5-4.7-14.9c0-5.1-1.4-10.1-2.7-15.4
		c1.9,1.1,3.4,2.1,4.9,2.9c5.5,2.8,10.4,0.5,11.9-5.5c1-4.2,0.8-8.7-0.3-12.9c-3.4-14.3-11-26-21.7-35.8c-1.2-1.1-1.6-1.8-0.6-3.2
		c1.7-2.6,2.9-5.4,3.6-8.4c2.7-10.8-2.2-22.9-11.9-29.2c-1.1-0.7-2.5-1.1-2.9-2.7c-0.8-3.5-3-6.2-5.7-8.5
		c-5.3-4.7-11.6-8.2-18.3-10.3c-1.3-0.4-2.5-0.8-4.3-1.4c2.6-0.4,5.2-1,7.7-1.7c6.5-2.4,8-8.7,3-13.6c-2.2-2.1-4.7-3.9-7.5-5.2
		C312.9-0.2,293.7-2,273.9,2c-9,1.8-17.7,4.8-25,10.7c-0.7,0.5-1.2,0.3-1.9,0c-10.5-5-21.6-7.5-33.1-8.6
		c-20.5-2.1-41.3,1.1-60.3,9.2c-4.6,2-9.1,4.2-12.8,7.8c-5.2,4.9-4,11,2.5,13.7c2.8,1.1,5.6,1.9,8.5,2.4c-0.2,0.2-0.5,0.4-0.8,0.6
		c-16.4,5.6-31.2,14.9-43.3,27.2c-5.6,5.6-10.5,11.8-14.7,18.5c-0.7,1.1-1.3,2.2-1.8,3.3c-1.4,3.1-2.3,6.2-0.7,9.5
		c1.5,3,4.1,3.9,7.5,3.9l-0.8,1c-18.1,22.1-27.7,47.2-27,76c0,3.8,0.8,7.5,2.5,10.8c1.6,3.4,5.5,5,9,3.8c1.8-0.5,3.1-1.6,4.8-2.8
		c0,0.5,0,1-0.1,1.4c-3.7,17.4-2.8,34.7,1.2,51.8c2.7,11.5,6.9,22.4,13.7,32.1c1.6,2.3,3.8,4.2,6.3,5.4c0.3,0.1,0.6,0.3,0.9,0.4
		c3.9,1.3,8.2-0.8,9.5-4.7c0.4-1.1,0.8-2.2,1.2-3.6c1.5,2.9,2.7,5.6,4.2,8.1c1,1.7,0.7,2.2-0.9,3.2c-14,8.9-25.9,19.8-33.7,34.6
		c-5.7,10.8-8.4,22.1-5.6,34.2c3.1,13.6,11,24.3,21.4,33.2c1.1,0.6,1.6,1.9,1.4,3.1c-0.9,8,4.4,15.5,12.4,17.1c1.3,0.2,1.8,0.7,2,2
		c0.4,4.5,1.9,8.8,4.2,12.7c0.4,0.5,0.4,1.3,0,1.8c-3,4.7-2.5,9.5-0.2,14.3c2.2,4.4,5.6,8,9.8,10.4c2.1,1.3,1.3,1.9,0.2,3
		c-9.6,9.1-25.4,9.6-35.5,1.1c-8.2-6.8-12.7-16-16-25.8c-4.6-13.7-7.1-27.9-10.3-42c-2.6-11.6-5.7-23.1-12.9-32.9
		c-0.5-0.7-0.5-1.6,0-2.3c6.2-13.9,3.7-26.7-5.6-38.3c-3.4-4.5-7.9-8.1-13-10.5c-3.8-1.7-6.4-1-8.8,2.3c-0.9,1.2-1.4,0.3-2-0.1
		c-5.5-3.6-10-7.9-12.3-14.4c-1.6-4.5-5.6-4.9-8.8-1.3c-1.7,2.1-3.1,4.5-3.8,7.1c-3.5,10.5-3.6,21.8-0.1,32.3c0.3,1,0.7,1.7-0.9,2.1
		c-2.4,0.5-3.6,2.4-4.1,4.7c-0.6,3.2-0.2,6.5,1.2,9.4c3.1,7.3,8.6,13.4,15.5,17.4c6.5,3.9,13.4,6.7,21.3,5c1.2-0.3,1.4,0.6,1.9,1.2
		c3.7,5.5,6.4,11.6,8.1,18c3.5,12.1,5.7,24.6,8.7,36.9c3.2,13.2,6.7,26.3,14,38c9.8,15.7,23.8,24.9,42.5,25.2
		c16.2,0.3,30-6.2,41.5-17.5c0.7-0.7,1.1-1.7,2.6-1.9c-1.5,13.9-2.9,27.7-4.4,41.4c-0.2,1.2-0.4,2.3-0.4,3.5c0,1.4-0.9,1.2-1.7,1.2
		c-6,0.4-11.9,1.8-17.5,4c-14.3,5.7-22.2,17.8-20.9,32.3c0.2,2.1-0.5,2.5-2.2,2.8c-6.8,0.9-13.5,2.5-20,4.6
		c-2.4,0.7-4.8,1.8-6.8,3.4c-2.4,2-2.4,3.9,0.1,5.8c2.1,1.6,4.5,2.7,7,3.5c13.8,4.6,28.2,6,42.5,7.6c20.1,2.3,40.3,3.3,60.5,3.9
		c41.1,1.2,82.2,1.4,123.4-0.4c27.8-1.2,55.5-3,82.8-8.1c6.3-1.2,12.7-2.6,18.3-5.9c3.9-2.3,3.8-4.9,0-7.3c-2.3-1.4-4.7-2.4-7.2-3.1
		c-11-3.2-22.3-5.3-33.7-6.3c-1.7-0.2-2.2-0.6-2.1-2.4c0.6-14.7-8.2-28.2-21.9-33.6c-7.1-2.8-14.5-3.4-22-3.1c-1.3,0.1-1.9,0-2-1.6
		c-0.7-20.8-1.6-41.6-2-62.4c-0.2-5.8,1-11.5,3.3-16.8c3.3-7.1,5.7-14.5,7.4-22.1c3.2-15.7,3.4-31.5,2.7-47.5
		c-0.2-4.2-0.5-8.4-0.8-12.7c0.2,0,0.5,0,0.7,0c16.4,7.1,34.6,8.9,52.1,5.1c18.6-3.9,35.7-12.8,49.5-25.8c0.7-0.7,1.7-1,2.6-0.8
		c5.9,0.8,11.2-0.7,15.2-5.3c0.8-1.2,2.3-1.6,3.6-1.1c6.2,1.5,12.1,1.1,17.6-2.5c0.5-0.4,1-0.5,1.6-0.5c8.4,1.2,15.2-2,20.8-7.8
		c4.7-4.8,7.4-10.8,5.4-17.4c-1.4-4.1-1.3-8.5,0.2-12.5c2.2-6.6-0.6-12.3-5.6-17.3c5.2-2.3,10.2-5,15-8c3.8-2.4,7-5.4,9.1-9.4
		C530.2,235.9,530.7,230.8,527.4,225.8z M162.1,354.4c-3.6-4.6-9.1-7.4-14.9-7.5c1.2-4.4,8.2-11.2,15.4-14.9
		C162.8,339.4,162.7,346.9,162.1,354.4z M258.8,511c-0.5,8.7-1,17.3-1.3,26c-0.1,1.8-0.7,2.1-2.4,2.1c-9.5,0-19,0-28.5,0.2
		c-1.9,0-2.1-0.5-2-2.2c1.2-18,2.8-35.9,7.2-53.4c1.2-5.1,3.1-10.1,5.5-14.7c1-2.3,3.3-3.7,5.9-3.6c3.3,0,6.6-0.3,9.9-0.6
		c1.5-0.2,1.9,0.3,2.2,1.6c1.9,6.4,2.5,13,2.9,19.6C258.8,494.2,258.9,502.6,258.8,511z"/>
	<path d="M793.4,57.8c10.4-0.7,18.7,4.1,25.8,10.7c16.8,15.6,33.1,31.5,49.6,47.3c17.7,16.8,35.4,33.6,53.1,50.3
		c6.1,5.8,8.3,13,7.4,21.3c-2.7,23-5.4,46-8.1,69.1c-2.3,19.6-4.7,39.3-7.1,58.9c-0.4,3.1-1.3,6.1-2.8,8.9
		c-2.6,5.2-7.2,7.3-12.7,8.4c-8.2,1.6-16.4,3.5-24.7,5.1c-1.7,0.3-2.3,1-2.2,2.8c0.3,6.5,0.5,13.1,0.4,19.6c0,2.2,0.7,2.9,2.8,3.1
		c8.7,0.9,17.4,1.9,26.1,3c10.2,1.3,14.8,6.4,15,16.8c0.2,14.2,0.2,28.4,0.3,42.6c0,7.8,0,15.6,0,23.5c0,1.1-0.2,2,1.3,2.6
		c10.7,3.8,16.8,11.9,20.9,21.9c2.6,6.3,4.4,12.8,5.6,19.5c0.4,2,1.1,3.2,3.3,3.2c1.1,0.1,2.2,0.4,3.2,0.7c1.9,0.6,3.4,1.7,3.5,3.9
		s-1.2,3.5-3,4.2c-3.3,1.5-6.8,2.6-10.3,3.5c-28.9,6.3-57.8,12.6-86.8,18.9c-43.1,9.3-86.2,18.7-129.3,28
		c-14.6,3.2-29.2,6.3-43.7,9.6c-5.9,1.3-11.7,0.1-17.4-0.6c-16.9-2.1-33.7-4.3-50.5-6.5c-16.9-2.2-33.8-4.5-50.8-6.8
		c-22.7-3-45.3-6-67.9-9c-16.7-2.2-33.3-4.5-50-6.7c-1.7-0.2-3.5-0.6-3.6-2.9s1.5-3,3.4-3.3c3.2-0.5,6.4-1,9.6-1.5
		c1.3-0.2,1.8-0.7,1.7-2.1c-0.2-3.7-0.2-7.3-0.2-11c0-1.3-0.4-1.7-1.7-1.8c-4.8-0.3-9.6-0.9-14.5-1.2c-4-0.3-6.8-2.2-8.1-6.2
		c-1.6-4.6-2.8-9.2-3.7-14c-0.6-3,0.3-6.2,2.4-8.5c20-24,39.9-48.1,59.7-72.3c5-6.1,10.2-12.1,15.2-18.2c2.6-3.3,6.4-5.5,10.5-6.2
		c28.1-6,56.2-12,84.4-18c1.2-0.3,1.6-0.7,1.8-1.9c0.4-4.2,0.8-8.5,1.4-12.7c0.2-1.6-0.3-2.2-1.7-2.7c-17.7-5.9-35.3-11.9-53-17.8
		c-2.2-0.7-4.6-1-6.9-1.6c-10.6-2.6-17.6-12.8-16.2-23.6c4.2-33.2,7.8-66.5,11.6-99.7c3.5-30.3,7-60.6,10.5-90.8
		c0.9-7.8,1.7-15.7,2.4-23.6s4.7-13.5,10.8-18c4.7-3.5,10.4-5.6,16.3-5.8c25.3-1.4,50.7-2.8,76.1-4.3c27.5-1.6,55-3.3,82.4-4.9
		C754.4,59.9,773.9,58.9,793.4,57.8z"/>
	<path class="st1" d="M775,341.7v42.4c0,0.6,0,1.2,0,1.8c0.2,2.8,1.6,4,4.3,3.3c9-2.1,18-4.2,27-6.3c19.6-4.6,39.3-9.2,59-13.9
		c0.8-0.2,1.9-0.9,2.3,0.5c0.5,1.7-1,1.3-1.7,1.5c-27.4,7.6-55,14.4-82.5,21.3c-4,1-7.7,0-11.5-0.2c-15.6-0.9-31.2-2-46.8-2.9
		c-32-1.9-64-3.7-95.9-5.5c-3.5-0.2-7-0.4-10.4-0.6c-1.7-0.1-3.4-0.4-5-0.9c-3.8-1.4-5.8-4.1-5.5-8.2c0.6-7.7,1.5-15.4,2.3-23.1
		c0.6-5.9,1.3-11.8,1.8-17.8c0.4-4.4-0.8-5.7-5.2-5.9c-20.2-1-40.4-2-60.6-2.9c-9-0.4-14.4-5.7-14.1-14.8c0.3-6.6,1.2-13.2,2-19.8
		c2.1-18.6,4.3-37.3,6.5-55.9c2.3-20.6,4.6-41.2,7-61.8c2.1-18.3,4.2-36.6,6.3-54.9c0.9-7.7,1.7-15.4,2.6-23
		c1-8.4,9.8-15.9,19.2-16.5c21.5-1.3,42.9-2.4,64.4-3.7c24.5-1.4,49-3,73.5-4.4c23.2-1.3,46.3-2.6,69.5-3.8
		c3.4-0.2,6.8-0.4,10.2-0.6c1.8-0.1,3.6,0,5.3,0.3c6.2,1.5,9.3,6.1,8.6,13.1c-0.6,6.8-1.4,13.5-2.1,20.3c-2.3,21.2-4.7,42.4-7,63.6
		c-2.5,22.5-5,45-7.5,67.6c-2.6,23.7-5.2,47.4-7.8,71.1c-0.8,6.9-1.4,13.9-2.4,20.7c-1.3,9-7.4,13.5-16.4,13
		c-19.6-1.1-39.2-2-58.8-3c-2-0.1-3.8,0.3-4.8,2.2c-0.7,1.3-0.5,2.9,0.6,4c0.9,1,2.3,1.6,3.6,1.5c14.5,0.7,29,1.4,43.5,2.1
		c5.7,0.3,11.4,0.7,17,1C768.5,343,771.7,343.1,775,341.7z"/>
	<path class="st2" d="M594.2,398.4c26.8,1.5,53.6,3,80.4,4.5c17.2,0.9,34.4,1.9,51.7,2.7c3.4,0.2,6.8,0.3,10.2,0.5
		c2.2,0.1,4.2,0.5,5.3,2.8s-0.2,4.1-1.5,5.8c-14.6,18-29.2,36-43.8,54.1c-8.9,11-17.8,21.9-26.5,32.9c-2.2,3-5.6,4.8-9.3,5
		c-5.5,0.4-11-0.4-16.5-0.8c-21-1.6-42-3.2-63-4.9c-22.8-1.8-45.5-3.6-68.3-5.4c-18.9-1.5-37.8-2.8-56.7-4.3c-5.7-0.4-11.3-1-17-1.5
		c-1.2-0.1-2.1-0.3-2.6-1.6s0.3-1.9,1-2.7c22.4-27,44.5-54.2,67.2-81c1.6-1.9,3.2-3.8,4.7-5.7c2-2.9,5.5-4.4,9-4.1
		c12.8,0.7,25.6,1.2,38.4,1.9c12.5,0.6,25,1.3,37.4,2L594.2,398.4z"/>
	<path class="st3" d="M753.2,406.3c7.9,0.4,15.2,1.9,22.6,0.7c2.1-0.3,1.4,1.2,1.4,2.1c0.2,11.4,0.2,22.8,0.3,34.2
		c0.2,26.6,0.5,53.2,0.8,79.8c0,2.2-0.6,3-2.7,3.5c-4.4,0.8-8.8,1.9-13.1,3c-2,0.5-2.2-0.1-2.2-1.9c0.3-19.4,0.1-38.7-0.2-58.1
		c-0.2-9.7-0.4-19.4-0.6-29c0-1.9-0.1-3.9-2.3-4.7s-3.3,0.8-4.5,2.1c-14.9,17.3-29.7,34.7-44.6,52.1c-9.8,11.5-19.6,23-29.4,34.5
		l-0.8,1c-0.3,0.4-1,0.5-1.4,0.2c-0.1,0-0.1-0.1-0.2-0.1c-0.6-0.6,0.1-0.9,0.4-1.2c3.8-4.7,7.5-9.5,11.3-14.1
		c21.3-25.9,42.2-52.2,63.8-77.8c2.5-2.9,4.9-5.9,7.5-8.7c1.4-1.4,1.8-3.6,0.9-5.4C758.6,414,756.2,409.9,753.2,406.3z"/>
	<path class="st4" d="M935.5,494.1c-6.4-1.1-12.5-2.2-18.5-3.2c-1-0.2-1.2-0.5-1.2-1.5c0.2-9.2,0.3-18.5,0.5-27.7c0-1.9,1-1,1.8-0.6
		c5.3,3,8.7,7.7,11.2,13.1C932.1,480.6,934.2,487.3,935.5,494.1z"/>
	<path class="st2" d="M511.2,518.1c-10.9,2-21.6,3.9-32.2,5.8c-4.3,0.8-8.5,1.4-12.8,2.2c-1.4,0.3-2,0.3-1.9-1.4
		c0.1-3.1,0-6.3,0-9.4c0-1,0-1.6,1.4-1.4c15,1.4,30.1,2.7,45.1,4C510.8,517.9,511,518,511.2,518.1z"/>
	<path class="st5" d="M847.5,436.2c-1,0.2-2-0.5-2.2-1.5v-0.1c-0.2-1.3,0.6-1.8,1.7-2.1c5.8-1.5,11.6-2.9,17.4-4.4
		c3.5-0.9,7-1.8,10.5-2.8c1-0.5,2.3,0,2.7,1.1c0,0.1,0.1,0.2,0.1,0.3c0.5,1.5-0.4,2.2-1.7,2.5l-28.1,7
		C847.8,436.2,847.6,436.2,847.5,436.2z"/>
	<path class="st6" d="M875.2,414.8c1.5-0.1,2.4,0.6,2.6,1.8c0.2,1.4-1,1.9-2.1,2.1c-6.8,1.8-13.6,3.5-20.4,5.2
		c-2.3,0.6-4.6,1.1-6.9,1.8c-1.5,0.5-2.6,0.2-3-1.3s0.9-2.1,2-2.4c6.8-1.8,13.6-3.5,20.4-5.2L875.2,414.8z"/>
	<path class="st7" d="M847.8,415.3c-1.4,0.1-2.2-0.5-2.5-1.6c-0.3-1.4,0.7-2,1.8-2.3c3.6-0.9,7.2-1.8,10.8-2.7l15.5-3.9
		c0.5-0.1,1-0.2,1.5-0.4c1.3-0.3,2.4,0,2.8,1.5s-0.7,2-1.8,2.3c-3.7,0.9-7.4,1.8-11.1,2.7l-15.8,4L847.8,415.3z"/>
	<path class="st8" d="M245.4,92.5c-8.9,5.2-17,11.8-23.8,19.5c-10.8,12.4-17.6,26.9-21.9,42.7c-3.2,11.8-4.2,24.2-2.9,36.4
		c2.8,27.1,14.7,48.9,37.7,64.2c9.5,6.3,19.9,11.1,30.9,14.1c10.2,2.9,18.1,9,25,16.7c0.9,1,1.6,2,2.5,2.9c0.5,0.8,1.6,1.1,2.5,0.7
		c1.1-0.6,0.8-1.6,0.4-2.5c-1.5-3.6-3.5-7-5.9-10.1l-2.1-2.7c1.6,0.1,2.8,0.1,4,0.2c14.3,1.6,28.7-0.6,41.9-6.3
		c13.2-5.7,23-15.1,28.5-28.7c1.6-3.8,4.9-6.2,7.2-9.5c1-1.4,1.4,0.2,1.7,0.8c4.3,7.3,7.2,15.2,8.6,23.5c0.9,5.2,1.5,10.4,0.4,15.6
		c-0.9,0.4-1.3-0.4-1.8-0.8c-1-0.7-2-1.5-3.1-2.2c-4.5-2.6-6.4-1.7-6.5,3.5c-0.2,11.4-2,22.5-6.7,33c-3.4,7.8-7.9,15-13.4,21.5
		c-0.5,0.6-1,1.7-1.9,1.5s-0.8-1.4-1-2.2c-1.6-4.9-1.6-10-2.1-15.1c-0.3-2.1-0.7-4.2-1.2-6.2c-0.3-1.3-0.8-2.8-2.6-2.6
		s-1.9,1.5-2,2.8c-0.6,6.9-2.1,13.8-4.4,20.3c-6.8,17.9-17.8,32.2-34.8,41.4c-1.8,1-2.6,0.9-3.6-1c-6.2-12.3-15.8-21.5-26.9-29.3
		c-9.2-6.5-19.5-11.4-28.9-17.7c-1.1-0.7-2.3-1.4-3.5-0.3s-0.8,2.4-0.2,3.5c2.1,3.8,4.3,7.5,6.5,11.3c0.5,0.6,0.8,1.3,0.9,2
		c-2.2,0.4-4.3-0.5-6.4-0.9c-13.7-2.5-27-5.9-38.7-13.9c-10.1-6.9-17.8-16-24.6-25.8c-1.1-1.5-2-3.1-3.2-4.6c-1-1.3-1.8-3.3-3.9-2.5
		c-1.9,0.8-1.4,2.7-1.3,4.2c0.3,3.9,0.9,7.8,1.9,11.5c0.2,1.1,1.1,2.6,0.4,3.3c-0.9,0.9-2.4,0-3.5-0.5
		c-11.6-4.5-20.2-12.6-27.6-22.3c-7.6-10-12.7-21.4-16.7-33.3c-0.2-0.7-0.5-1.5-0.8-2.1c-0.4-1-0.8-2.2-2.2-2
		c-1.1,0.2-2,1.1-2.1,2.3c-0.9,4.3-1.6,8.7-2.1,13.1c-0.5,3.4-0.8,6.9-1.3,10.7c-1.3-0.9-2.3-2-3-3.4c-6.9-10.6-10.5-22.4-12.5-34.7
		c-3-19.1-2.7-37.9,4-56.3c0.4-1.1,0.6-2.1-0.3-3.1s-2.2-0.9-3.3-0.4c-4.7,1.8-9,4.4-12.8,7.7c-0.8,0.6-1.5,1.9-2.4,1.6
		c-1.1-0.4-0.8-1.9-0.9-2.9c-0.7-10.1,0.3-20.2,3-30c5.4-19.2,14.7-36.3,29.3-50.1c1.9-1.8,3.9-3.5,5.9-5.2c1.1-1,1.8-2.1,1.2-3.6
		s-1.9-1.5-3.2-1.4c-4.7,0.2-9.3,0.8-13.9,1.9L99,91.4c2.2-4,4.7-7.7,7.6-11.2c12.6-15.9,29.5-27.8,48.7-34.3
		c5.5-1.9,11.3-3,17.2-3.2c1.3,0,2.6-0.1,3.1-1.6c0.4-1.4-0.2-2.8-1.4-3.5c-4.6-3.4-9.7-6-15.2-7.6c-3.5-1.1-7.1-2-11.1-3.1
		c5.5-3.4,11.5-6.1,17.7-8.1c22.5-7.6,46.7-7.9,69.4-0.9c11.5,3.4,22.2,9.2,31.3,17c0.5,0.4,0.9,0.8,1.4,1.2c1.2,1.1,2.5,2.1,4,0.9
		s0.5-2.8-0.2-4.1c-2.7-4.5-6.3-8.5-10.5-11.6c-1.4-1.1-2.8-2.1-4.3-3.2c13.1-12.1,62.3-10.9,74.5,2c-4.9,0.8-9.6,2.1-14.2,3.8
		c-4.3,1.6-8.3,3.9-11.9,6.8c-1.1,0.9-2.5,1.7-1.9,3.5s2.1,2,3.8,1.9c8.5-0.6,17,0.8,24.9,4.3c4.7,2.1,9.2,4.5,13.4,8.4
		c-7.5,0.7-13.7,3.2-18.6,8.6c-2.9,3.4-5.1,7.2-6.6,11.4c-1,2.3,0.6,3.3,2.2,4.2c4.8,2.7,9.7,5.2,14.4,8.2
		c13.1,8.3,25.4,17.6,34.8,30.2c5.4,7.4,9,16,10.3,25c0.2,0.7,0.2,1.5-0.1,2.3c-1.3-0.2-2.2-1.2-3.3-1.8c-2-1.1-4-2.7-6.2-2.9
		c-3.1-0.2-4-2.2-5.2-4.5c-7.1-14.5-16.7-26.8-30.3-35.8c-2.5-1.6-5.1-3-7.8-4.2c1.3-0.9,2.5-1.7,3.6-2.6c0.9-0.5,1.3-1.7,0.9-2.7
		c-0.5-1.1-1.7-0.8-2.5-0.5c-2.6,0.9-5.2,1.9-7.9,2.9c-0.8,0.5-1.6,0.7-2.5,0.8c0.2-2.3,0.5-4.5,0.7-6.8c0.1-1.4,0.2-3.2-1.6-3.5
		s-2,1.5-2.4,2.8c-2.4,7.1-5.2,14-9.9,20c-0.8,1-1.3,1.8-2.8,0.7C294,92.7,281.8,89.3,269,88c-11.5-1.2-23.1-1.3-34.5,1.3
		c-0.1,0-0.2,0-0.2,0c-1.3,0.5-3.4,0.3-3.1,2.3s2.2,1.3,3.6,1.3C238.1,92.5,241.8,92.5,245.4,92.5z"/>
	<path class="st9" d="M174.5,309.7c3.2,3.8,6.6,7.4,10.2,10.7c11.4,10.3,25.1,16,39.9,19.4c5.2,1.2,10.5,2.1,15.8,2.8
		c1.1,0.1,2.2,0.2,3.3,0.2c4.7,0,6.8-1.4,8.4-5.9c0.3-0.8,0.3-1.5,1.5-0.8c12.8,8,24.5,17.2,32.5,30.2c0.9,1.5,1.7,3.1,2.7,4.6
		c2.5,4,5.7,5.2,10.2,3.9c3.6-1.2,6.9-2.9,10-5.1c8.2-5.3,15.1-12.2,20.6-20.2c0.4-0.6,0.9-1.2,1.6-2.2c0.2,1.3,0.4,2.2,0.5,3.2
		c0.8,15.6,1.3,31.2-1.4,46.8c-1.2,7.9-3.5,15.6-6.7,22.9c-3.7,7.9-5.4,16.5-5.2,25.2c0.4,20.8,0.9,41.6,2.1,62.4
		c0.1,1.5-0.2,2.3-1.8,2.8c-4.1,1.3-8.1,3.2-11.7,5.6c-1,0.7-2.3,1.4-1.5,3s2,1,3.3,0.7c9.9-2.5,19.9-4.4,30.2-3.8
		c14.3,0.9,24.8,9.9,27.1,23.5c0.6,3.8,1.1,7.7-1.6,11c-0.5,0.6-0.9,1.5-1.8,1.2s-0.5-1.2-0.6-1.8c-0.8-4.7-1.8-9.3-4.4-13.5
		c-1.3-2.2-3.2-4-5.4-5.3c-1.1-0.7-2.3-1.2-3.5,0s0,2.1,0.6,2.9c3.7,5.6,5.8,12.2,5.9,19c0,1.1-0.1,1.7-1.4,2c-4,0.7-8,1.5-12,2.3
		c-1.9,0.4-1.5-1-1.5-2c0.1-6-0.8-11.7-4.2-16.8c-1.2-1.9-2.7-3.5-4.5-4.8c-1-0.7-2.1-1.3-3.3-0.3s-0.1,2,0.4,2.9
		c3.6,6,5.3,13,4.9,20c-0.1,1.3-0.3,2-1.8,2c-17.7,0.3-35.3-0.3-52.6-4.7c-3.7-0.9-7.3-2.3-10.7-4c-1.8-0.8-3-2.6-2.8-4.6
		c0.6-11.7,1.2-23.4,1.5-35.1c0.4-15,0.1-29.9-3.5-44.6c-0.3-1.3-0.1-1.7,1.3-2c4.4-0.7,8.8-2.1,12.8-4.1c1.1-0.6,2.2-1.3,3.2-2.1
		c1.1-0.9,2-2,1.2-3.5c-0.6-1.3-2-2-3.4-1.6c-3.9,0.7-7.8,1.5-11.8,2.2c-8.3,1.4-16.7,1.4-25.1,2c-4.5,0.2-8.6,2.5-11.1,6.2
		c-4.9,6.8-7.1,14.7-8.7,22.7c-3.8,18.4-5.9,37.1-6.3,55.9c-0.2,1.8-0.3,3.5-0.3,5.3c0.3,2.9-1.2,4.3-3.6,5.3
		c-7.6,3.4-15.6,4.6-23.7,5.6c-7.7,1-15.4,1.4-23.1,2c-1.9,0.1-2.4-0.4-2.5-2.3c-0.2-6.3,1.3-12.6,4.3-18.1c0.6-1.1,1.8-2.5,0.1-3.6
		c-1.5-1-2.8-0.1-3.9,0.9c-4.7,4.3-6.8,9.8-7.5,16c-0.1,0.5,0,1-0.1,1.5c-0.2,5.9-0.2,5.9-6.1,5.6c-3.2-0.2-6.4-0.4-9.7-0.6
		c-1.4-0.1-2-0.6-2.1-2.2c-0.3-7.4,0.8-14.4,5.5-20.5c0.6-0.8,1.4-1.8,0.4-3s-2.2-0.7-3.2-0.1c-5.2,3.1-8,8-9.3,13.7
		c-0.6,2.7-0.8,5.6-0.6,8.4c0.1,1.8-0.6,2-2.1,1.5c-3.9-1.4-6.4-3.9-7.2-8.1c-2.3-11.2,3.2-21.5,14.3-26.4
		c13.6-5.9,27.4-5.7,41.4-1.7c0.3,0.1,0.6,0.2,1,0.3c1.4,0.4,3.2,1.3,4-0.6c0.7-1.8-1-2.7-2.3-3.5c-5-3-10.5-4.9-16.3-5.4
		c-2-0.2-2.3-1-2.1-2.8c2-16.9,3.8-33.8,4.7-50.7c0.2-4.4,1.4-7.2,5.1-10.2c4.1-3.3,7.7-6.2,12.9-7.8c7-2.1,10.4-8.1,11.8-15.1
		c0.2-1.1,0.2-2.1,1.5-2.6c7.9-3.3,12.7-12.8,11.1-23.1c-1.5-9.5-6.6-17-12.7-23.9c-6.7-7.5-14.4-13.7-24.4-16.3
		c-1.4-0.4-1.4-1.2-1.3-2.3c0.8-9.6,1.1-19.2,0.9-28.8c0-1.4,0.8-1.7,1.8-2.1c2-0.7,3.9-1.8,5.5-3.2c0.7-0.6,1.4-1.4,1-2.4
		c-0.3-1-1.2-1.7-2.2-1.8c-2-0.3-4.1-0.1-6,0.6c-11.5,3.6-21.5,9.7-29.2,19.1c-1.5,1.8-2.2,1.8-3.3-0.2c-0.5-1-1.2-1.9-1.9-2.7
		c-0.6-0.8-1.4-1.6-2.6-1.2c-1.2,0.4-1.9,1.5-1.9,2.7c0,1.4,0.2,2.9,0.8,4.2c1.8,4.8,4.5,9.2,8,12.9c0.6,0.6,1.2,1.1,0.9,2.2
		c-2.7,10.6-8.2,19.1-18.5,23.9c-5.2,2.4-9.7,2.2-14.2-2.1c-7.9-7.5-14.3-16-16.9-26.7c-3-12,0.5-22.9,6.8-33
		c7.4-11.8,17.8-20.6,29.4-28.1c1.6-1,1.9,0.2,2.5,1c7.4,9.4,16.9,16.9,27.7,21.9c2.7,1.3,5.7,1.9,8.7,1.7
		C170.4,314.3,173.2,312.5,174.5,309.7z"/>
	<path class="st10" d="M351.3,166.5c9.6-8.6,9.5-19.4,8.1-30.7c2.4,4.5,4.2,9.3,5.4,14.3c1.5,5.8,2.4,11.8,2.6,17.9
		c0.1,1.8,0.8,3.5,1.9,4.9c2.8,4,4.8,8.5,5.9,13.2c0.3,1.5-0.1,2.1-1.5,2.5c-2.8,0.7-5.5,1.6-8.3,2.6c-1.2,0.4-2.5,1.1-2,2.8
		s2,1.2,3.2,0.9c2.4-0.7,4.9-1.4,7.3-2.3c2-0.8,2.3-0.1,2.2,1.8c-0.1,4.6-0.1,4.7-4.6,4.3c-1.9-0.2-3.9-0.2-5.8,0.2
		c-1.1,0.2-2,0.8-1.8,2s1.1,1.4,2.1,1.5c2.3,0.1,4.6,0.4,6.9,0.3c2,0,2,0.8,1.5,2.3c-2.5,7-6.1,13.5-10.8,19.2
		c-0.6,0.7-1.2,1.5-1.8,2.2c-4,4.4-7.5,9.4-10.4,14.6c-6.3,12-17.1,18.8-30,22.4c-17.7,4.9-35.2,3.1-52.5-2.2
		c-14.4-4.4-27.8-10.9-39.1-21.2c-12.4-11.1-20.5-26.3-22.8-42.8c-5.2-35.4,5.7-65.5,31.5-90.1c6.9-6.6,15.5-9.9,24.7-11.9
		c3.5-0.8,7,0.6,10.5,1.2c10.3,1.7,20,5.9,28.3,12.2c1.5,1.3,3.8,1.4,5.4,0.2c3-1.9,5.2-4.6,7.4-7.3c1.4-1.7,2.8-3.4,4-5.2
		s2.2-1.9,4.1-0.9c9.4,5.2,17.7,12.2,24.4,20.5c2.3,2.7,4.4,5.6,6.2,8.6c-3.4-2.1-6.5-3.3-10-3c-6.7,0.7-10.5,4.9-12.4,10.8
		c-2.9,8.7-1.9,17.1,1.1,25.7c1.7,5,5.5,9.1,10.4,11.1c2.6,1.2,5.1,2.7,7.5,4.4c-3.9,0.4-7.7,0.4-11.5,0.7
		c-6.4,0.4-12.6,1.6-18.7,3.5c-1.9,0.6-3.8,1.5-5.5,2.6c-1.1,0.8-2,0.7-2.7-0.5c-1-1.6-2.1-3.3-3.3-4.9c-0.5-0.8-1.1-1.6-2.3-1.2
		s-1.4,1.4-1.4,2.5c0.1,2.2,0.9,4.4,2.2,6.1c6.2,10.2,16.4,17.2,28.1,19.3c1.6,0.3,2,0.8,2,2.4c0.1,12.8-8.5,22-21.5,23.2
		c-13.9,1.3-26.4-1.9-37.5-10.6c-1-0.8-2.1-1.5-3.1-2.1s-2.1-1-3,0s-0.2,2.1,0.5,2.9c3.1,3.6,6.7,6.7,10.8,9.2
		c6.2,4,13.1,5.8,20.4,6.6c6.7,0.8,13.4,0.8,19.9-1.2c4.9-1.5,9.2-3.9,12.5-7.9c1-1.3,1.6-1.2,2.7,0c3.2,3.6,7,6.1,12.1,6.1
		c0.8,0,1.5-0.1,2.2-0.3c1.3-0.4,2.8-0.8,2.7-2.6s-1.6-1.9-3-2.1c-4.8-0.7-8.1-3.6-10.9-7.3c-0.5-0.6-0.6-1.5-0.2-2.1
		c1.3-3.7,1.8-7.6,1.5-11.5c-0.1-2,0.7-2.7,2.4-3.5c8.3-4,14.5-10.1,16.8-19.2c1-4.1-0.4-7.7-3.9-10.3
		C356.3,169.3,353.9,167.8,351.3,166.5z"/>
	<path class="st11" d="M454.1,312.5c-3.2,2.8-6.6,2.8-10.1,1.6c-3.1-1-5.9-2.7-8.2-4.9c-8.9-8.5-13.7-18.8-13.7-31.2
		c-0.1-2.9,0.6-5.8,2-8.3c1.1-2.3,3.5-3.9,6.1-4c1.1-0.1,1.6,0.2,1.3,1.6c-0.9,3.2-0.8,6.6,0.4,9.8c0.3,0.8,0.8,1.9,2,1.6
		s1.3-1.2,1.4-2.2c1-10.1,6.3-17.5,14.7-22.8c4.1-2.6,8.6-4.5,13.3-5.6c13.8-3.1,26.4-9.1,38.6-16c3.1-1.8,6.5-3.3,10-4.2
		c4.2-1,7.8-0.1,9.2,2.4c1.6,2.6,0.8,6.3-2.1,9.5s-6.2,5.3-9.8,7.2c-6.1,3.3-12.3,6.5-18.4,9.7c-2.7,1.4-3,2.1-1.5,4.7
		c0.6,1.1-0.2,1.1-0.6,1.4c-1.7,1.1-3.2,2.3-3.6,4.5c-4.2-4.8-9-8.4-15.2-9.9c-2.1-0.6-4.4-0.8-6.5-0.3c-1.4,0.3-2.7,1-2.8,2.5
		s1.4,1.8,2.6,2.2c3.4,0.9,6.6,2.2,9.6,3.9c7.1,4.4,10.4,10.7,10,19c-0.3,5.8-5.4,8.6-10.6,5.8c-3.2-1.7-5.2-4.6-6.6-7.8
		c-0.4-0.9-0.7-1.7-1.1-2.6c-0.5-1.2-1.2-2.4-2.8-2.1s-1.7,1.7-1.9,3c-0.1,0.8-0.1,1.5-0.1,2.3c0,4,0,4-4,5.3c-1,0.3-1.9,0.6-2.9,1
		s-1.8,0.8-1.5,2c0.3,1,1.2,1.6,2.3,1.6c3.1,0.1,6.1-0.9,8.5-2.8c1.7,2.1,3.1,4.5,5.5,5.9c0.8,0.5,0.7,1.3,0.7,2
		c0.2,4.7,1.1,7,4,10.4c-2.1,1.1-5,1.1-8.7,0c-6.5-1.8-11.6-5.8-16.7-10c-0.5-0.4-0.8-0.9-1.3-1.2c-0.6-0.7-1.6-0.8-2.3-0.2
		c-0.7,0.5-1,1.4-0.7,2.3c0.6,1.9,1.6,3.7,3,5.3C447.9,307.9,450.9,310.5,454.1,312.5z"/>
	<path class="st11" d="M130.2,427.7c2.5,1.7,4.5,3.3,6.6,4.6c3.1,2.1,6.7,3.4,10.4,3.9c1.2,0.1,2.7,0.2,3.2-1.4s-0.9-2.1-1.9-2.6
		c-5.8-2.8-11-6.9-14.9-12.1c-2.8-3.7-4.7-8.1-5.4-12.8c-0.2-1.2,0.1-1.6,1.4-2c18.7-6.4,31.3-18.5,35.3-38.4
		c0.2-1.2,0.6-1.3,1.6-1.1c4,0.9,7.7,2.6,11.1,4.8c8.8,5.7,15.9,13.7,20.6,23.1c1.9,3.9,3.1,8.1,2.1,12.6c-0.4,1.8-1.2,3.4-2.3,4.8
		c-1,1.2-1.8,3.2-3.8,0.6c-1.2-1.5-3.4-0.6-3.9,1.7c-0.6,2.5-0.9,5-1.3,7.5c-0.8,5.4-3,9.7-8.5,11.7c-1.1,0.4-2,1.1-2.5-0.9
		c-0.4-1.7-2.1-1.8-3.5-0.6c-1.1,1-2,2.1-2.6,3.4c-6.3,12-17.5,13-27.6,8.8c-3.9-1.6-7.5-4.1-10.3-7.3
		C131.8,433.8,130.5,430.9,130.2,427.7z"/>
	<path class="st8" d="M12.9,295.4c4.7,8.4,11.7,12.7,19.5,15.9c4.8,1.9,5.8,1.5,6.9-3.4c2.9,1.2,5,3.5,7,5.7
		c7.8,8.5,10.6,18.1,6.8,29.3c-0.5,1.4-1,1.8-2.5,1.5c-6.4-1.4-12.7,2.6-14.1,9c0,0.1,0,0.2-0.1,0.2c-0.4,1.8-1.1,2.4-2.9,2.1
		c-11.3-2-19.6-8-24.6-18.4c-0.9-1.8-0.5-2.5,1.6-2.1c0.5,0.1,1,0.2,1.5,0.3c3.2,0.3,4.7-1.5,3.6-4.5c-2.1-5.7-3.5-11.7-4.3-17.8
		C10.6,307.2,11.2,301.2,12.9,295.4z"/>
	<path class="st12" d="M153.7,454c-14.4,18.7-42.5,28.7-64.6,11.4c-8.3-6.5-13.2-15.4-17-25c-5.1-13.1-7.7-26.9-10.7-40.6
		c-1.7-8.1-3.9-16.2-6.5-24.1c-2.1-6.7-5.5-12.8-9.9-18.3c-1.2-1.4-1.8-2.7-0.3-4.2s3.2-2.2,5.2-0.9c1.2,0.8,2.2,1.8,3.1,3
		c5.2,7,7.8,15.2,9.9,23.5c4,15.6,6.4,31.6,11.2,47c3.3,10.5,8.2,20.1,15.8,28.2c13.6,14.4,35.8,15.4,50.1,1.8
		c3.3-3.1,5.8-4,9.6-2.5C151,453.7,152.4,453.9,153.7,454z"/>
	<path class="st11" d="M113.7,389.3c9.3,1.6,16.5-2.5,22.9-8c7-5.9,11.5-14.1,12.7-23.1c0.3-2.4,1.2-2.2,2.9-1.3
		c3.6,2,5.5,6.4,4,11.4c-4.3,15-14.5,24.3-29.2,29c-1.9,0.5-3.9,0.6-5.8,0.2C116.9,397,114.5,394.4,113.7,389.3z"/>
	<path class="st13" d="M345.1,57.6c6.7,0.4,12,3.3,15.2,9.4s3,12.4-0.6,18.4c-0.7,1.1-1.3,1.2-2.2,0.4c-0.2-0.2-0.4-0.3-0.6-0.4
		c-2.6-1.1-2.8-2.4-1.3-4.9c2.3-4.1,1.1-9.8-2.3-13.1s-8-3.9-12.7-1.5c-2.3,1.2-4.5,2.8-6.3,4.7c-1,1-5.2,0.2-5.9-1
		c-0.2-0.4,0-0.6,0.2-0.9c3.3-4.9,7-9.2,13.1-10.6C342.8,57.8,343.9,57.7,345.1,57.6z"/>
	<path class="st14" d="M345.7,126.2c-2.8,3.7-3.8,7.8-4.6,12c-0.5,1.3,0.2,2.8,1.5,3.2c0.1,0,0.2,0.1,0.3,0.1c2,0.7,4.3,1.1,6.1,2.7
		c-2,1.2-3.9,2.4-5.8,3.3s-2.4,2.2-2,4.1c0.5,3.9,1.9,7.6,4.1,10.9c-3.3-1-5.9-2.1-7.3-4.8c-4.3-8.5-5.3-17.3-1.2-26.2
		C338.5,127.9,341.3,126.3,345.7,126.2z"/>
	<path class="st15" d="M490.1,287c0.6-6.1-0.6-12.2-3.5-17.5c-0.4-0.6-0.4-0.8,0.5-1.1c2.4-0.8,4.2-2.6,5-5c0.6-1.7,3.4-2.1,5.2-0.8
		c3.5,2.4,5.5,7.4,4.3,11.5C499.9,280.1,495.8,284,490.1,287z"/>
	<path class="st16" d="M501.8,288.3c1.1,7.8-4.1,15-12.4,17.4c-3,0.9-6.3,0.8-9.2-0.4c-1.6-0.6-2.9-1.8-3.7-3.3
		c-1-1.7-1.3-2.8,1.4-2.8c2.1,0,4.1-0.7,5.6-2c2-1.8,4.2-2.2,6.6-2.6C494.5,293.9,496.6,292.7,501.8,288.3z"/>
	<path class="st17" d="M345,69.5c3.1,0,4.8,1.2,5.9,3.5s0.9,4.9-0.4,7c-0.3,0.5-0.6,0.6-1.2,0.3c-3.4-2-6.9-4-10.3-5.9
		c-0.8-0.5-0.9-0.9-0.2-1.5C340.7,71.1,342.8,69.6,345,69.5z"/>
	<path class="st18" d="M432.5,317.2c-9.8-7.8-15.6-18-17.9-30.2c-0.6-3.3-0.6-3.2-3.4-1.7c-11,5.8-22.5,10-35,10.7
		c-1.5,0-2,0.7-2.4,2c-2.4,8.2-6.1,16.1-10.9,23.2c-3.6,5.3-7.1,10.6-12.9,13.9c-3.5,1.9-6.5,1.2-9.3-1.2c-0.4-0.4-1-1.3-1.6-0.3
		s0.4,1.3,1.1,1.6c2.4,0.9,4.9,1.8,7.4,2.6c0,0,0,0,0,0.1c9.4,3.5,19.4,5.2,29.4,4.8c20.9-0.9,39.1-9,55.5-21.7
		C434.9,319.2,434.8,319.1,432.5,317.2z"/>
	<path class="st0" d="M657.2,312.3c-28.6-1.1-57.2-2.4-85.8-3.3c-11.5-0.3-20.3-8.7-22.5-20.6c-1.1-5.9,0.2-11.5,0.8-17.2
		c2-19.2,4.3-38.5,6.4-57.7c2.1-18.9,4.3-37.8,6.4-56.7c1.5-13.2,3.1-26.3,4.2-39.5c1.4-16.6,15.8-26.6,27.6-27.1
		c33.5-1.5,67-3.6,100.5-5.3c23-1.2,46-2.2,69-3.7c15.4-1,28.3,11.1,26.5,28c-2.1,19.3-4.4,38.6-6.6,58c-2.3,20.5-4.5,41-6.8,61.5
		c-2.1,18.9-4.2,37.8-6.4,56.7c-0.3,2.5-0.4,5.1-1,7.6c-3.1,14.1-15.4,23.2-29.8,22.6C712.3,314.3,684.8,313.3,657.2,312.3z"/>
	<path class="st19" d="M652.6,334l25.5,1.1c2.9,0.1,4.1,1.4,4,4.4c-0.1,3.6-0.2,7.3-0.4,11c-0.1,2.5-1.4,3.6-4,3.4
		c-15.6-0.8-31.2-2-46.8-2.6c-6.6-0.2-8.6-2.5-8.1-9.1c0.1-1.6,0.2-3.2,0.3-4.8c0.2-3.2,1.4-4.4,4.6-4.3c8.3,0.3,16.6,0.7,25,1
		L652.6,334z"/>
	<path class="st20" d="M726.7,362.3c-0.1-7.1,5.6-13,12.7-13.2c6.9-0.1,12.9,6,12.9,13.1c-0.1,7.2-6,13.1-13.2,13.1
		C732.5,375.3,726.8,369.3,726.7,362.3z"/>
	<path class="st0" d="M596,465.8c10.3,0.7,20,1.3,29.7,2c3.7,0.2,7.5,0.5,11.2,0.9c4.4,0.5,7.4,6.5,4.7,10.1
		c-3.2,4.3-6.8,8.2-10.3,12.3c-1.1,1.2-2.6,1.7-4.2,1.5c-17.9-1.3-35.7-2.7-53.6-4.1c-15.3-1.2-30.7-2.3-46-3.3
		c-20.4-1.5-40.8-2.9-61.2-4.4c-1.9-0.1-3.8-0.4-4.9-2.2c-1.2-1.8-1-4.3,0.5-5.8c7.3-8.9,14.5-18,21.8-26.9
		c10.4-12.7,20.8-25.4,31.1-38.1c1-1.4,2.7-2.1,4.4-1.9c27.5,1.7,55.1,3.2,82.7,4.9c30.7,1.8,61.4,3.7,92.1,5.6
		c4.1,0.2,8.1,0.6,12.2,0.8c2.1,0.1,4,1,5.4,2.5c2.5,2.6,2.5,4.1,0.3,6.9c-8.2,10-16.4,20-24.8,29.8c-2.1,2.7-5.5,4.1-8.8,3.5
		c-23-1.9-46.1-3.5-69.1-5.3c-2.5-0.2-4.2,0.3-5.8,2.4C601.3,459.9,598.8,462.6,596,465.8z"/>
	<path class="st21" d="M136.9,102.7c0.4-7.8,3.4-15.3,8.6-21.2c12.4-14.5,33.6-14.5,45.8,0.2c2.8,3.5,5.3,7.3,7.3,11.3
		c1.1,1.6,0.6,3.8-1,4.9l0,0c-11.3,9.4-19.1,21.5-25.6,34.5c-1.7,3.4-2.4,3.5-6.2,2.3c-2.6-0.9-5.4-0.9-8-1.6
		C144.4,129.4,136.8,119.2,136.9,102.7z"/>
	<path class="st0" d="M255.3,152.9c-0.1-6.8,0.8-11.2,2.5-15.4c4-9.6,14.8-13.8,23.2-8.9c3.2,2,5.7,4.9,7.1,8.4
		c4.1,9.2,4.9,19.4,2.3,29.1c-1.8,6.5-5.5,11.4-12.6,12.4c-7.5,1.1-13.2-1.9-17.2-8.3C257.4,165,255.6,159,255.3,152.9z"/>
	<path class="st22" d="M297.1,199c-5.2-0.9-10.6-1.7-16.2-2.1c-10.8-0.8-21.6-0.5-32.3,0.9c-1.5,0.2-3,0.3-4.6,0.3
		c-1.1,0-2.6,0.5-2.9-1.2s1.3-2,2.5-2.3c3-0.6,6-1.1,9-1.4c14.8-1.7,29.5-1.8,44,1.6c0.4,0.1,0.9,0.1,1.2,0.3c1.1,0.4,2.1,0.9,2,2.3
		C300,198.5,299,199.1,297.1,199z"/>
	<path class="st23" d="M293.6,204.8c2,0,3.4,0.1,3.6,2s-1.4,2.2-2.7,2.3c-6.8,0.6-13.6,1.5-20.4,2.9c-8.3,1.7-16.1,4.8-24,7.6
		c-0.9,0.3-1.7,0.6-2.6,0.9c-1,0.2-1.9,0.1-2.3-1c-0.4-0.9,0.1-1.9,0.9-2.2h0.1c2.3-1.1,4.6-2.3,6.9-3.2
		C266.3,208.8,280.1,206.2,293.6,204.8z"/>
	<path class="st24" d="M364.9,210.9c-0.2,1.6-1,2.8-2.7,2.8s-2.2-1.4-2.1-2.7c-0.1-1.5,1.1-2.7,2.5-2.7c0.1,0,0.1,0,0.2,0
		C364.4,208.3,364.7,209.6,364.9,210.9z"/>
	<path class="st25" d="M311.8,203.7c-0.1,1.4-1.4,2.5-2.8,2.4c-1.2,0.1-2.2-0.7-2.4-1.9c0-0.2,0-0.3,0-0.5c-0.1-1.3,0.9-2.5,2.3-2.6
		c0.2,0,0.4,0,0.6,0C310.9,201.2,311.6,202.3,311.8,203.7z"/>
	<path class="st26" d="M351,202.9c0.1-1.2,0.7-2.3,2.3-2.3c1.3-0.1,2.5,0.8,2.6,2.1c0,0.1,0,0.2,0,0.3c0,1.7-1.2,2.4-2.6,2.4
		S351,204.6,351,202.9z"/>
	<path class="st27" d="M303.7,216.5c-1.2,0-2.2-1.1-2.1-2.3c0-0.1,0-0.1,0-0.2c0-1.3,1-2.4,2.3-2.4s2.4,1,2.4,2.3c0,0.1,0,0.3,0,0.4
		C306.3,215.9,305.3,216.5,303.7,216.5z"/>
	<path class="st28" d="M168.3,380.6c4.4,0.6,8.4,2.6,11.6,5.7c1,1,1.8,2.1,0.9,3.6s-2.3,1.3-3.6,0.9c-4-1.2-7.7-3.1-11-5.6
		c-1.1-0.6-1.6-1.9-1.2-3.1C165.5,380.7,166.7,380.6,168.3,380.6z"/>
	<path class="st29" d="M162.4,390.3c0.5,0.1,0.9,0.2,1.4,0.4c3.8,1.8,7,4.6,9.3,8c0.7,1.1,1.2,2.3,0.2,3.5s-2.2,0.6-3.3,0.1
		c-3.8-1.9-7.2-4.6-9.7-8c-0.6-0.9-1.1-1.9-0.4-3C160.5,390.5,161.5,390.1,162.4,390.3z"/>
	<path class="st20" d="M154,398.5c1,0.2,1.9,0.6,2.6,1.2c3,2.5,5.5,5.6,7.2,9.1c0.6,1.2,1.2,2.6-0.1,3.7s-2.6,0.3-3.7-0.5
		c-3.5-2.5-6.3-6-7.9-10C151.2,399.8,152,398.4,154,398.5z"/>
	<path class="st30" d="M657.4,305c-28.3-1-56.7-2-85.1-3.1c-9.3-0.4-16.4-8.2-16.7-18.5c-0.2-5.5,1.1-11,1.7-16.4
		c1.4-13.2,2.9-26.3,4.4-39.5c1.8-15.9,3.5-31.7,5.3-47.6c1.8-16.4,3.6-32.7,5.4-49.1c0.6-5.1,1-10.3,1.9-15.4
		c1.7-10.1,10.2-17.6,20.4-18c18.1-0.8,36.1-1.8,54.2-2.8c22.6-1.2,45.1-2.5,67.7-3.8c15.7-0.9,31.4-1.8,47.1-2.6
		c15-0.8,20.9,11.9,19.6,22.1c-1.8,13.9-3.2,27.8-4.8,41.7c-2,17.6-4,35.2-6,52.9c-1.6,14.4-3.2,28.9-4.8,43.3
		c-1.5,13.8-3,27.5-4.7,41.2c-1.2,10.2-10,18.5-20.3,18.8c-8.3,0.2-16.6-0.4-25-0.7C697.6,306.7,677.6,305.9,657.4,305L657.4,305z"
		/>
	<path class="st31" d="M652.3,340.3c7.2,0.3,14.4,0.7,21.6,0.9c1.5,0,2,0.4,2,2c0,4.4,0.1,4.4-4.2,4.1c-13.5-0.9-26.9-1.7-40.4-2.1
		c-0.9,0-2.2,0.4-2.4-0.7c-0.3-1.7-0.3-3.3,0-5c0.1-0.7,1.2-0.3,1.8-0.3C637.9,339.6,645.1,339.9,652.3,340.3z"/>
	<path class="st32" d="M739.5,368.4c-3.4-0.2-6-3.1-5.9-6.5c0.2-3.2,2.8-5.8,6.1-5.9c3.4,0.1,6.1,2.9,6.1,6.3
		C745.6,365.7,742.9,368.4,739.5,368.4z"/>
	<path class="st33" d="M632.9,474.6c-2.8,3.7-5.4,7-7.9,10.4c-0.6,0.8-1.4,0.5-2.1,0.5c-35.7-2.5-71.5-5.1-107.2-7.6
		c-0.6,0-1.2-0.2-2-0.3c2.5-3.4,4.9-6.6,7.3-9.9c0.7-0.9,1.5-0.5,2.3-0.4c13.2,0.9,26.4,1.8,39.6,2.7l50.8,3.4L632.9,474.6z"/>
	<path class="st34" d="M627.7,448.9c2.9-3.5,5.7-7,8.5-10.5c0.3-0.5,0.9-0.8,1.5-0.8c7.4,0.5,14.8,1,22.7,1.5
		c-3,3.8-5.7,7.2-8.4,10.7c-0.4,0.6-1.1,0.8-1.7,0.8c-7.3-0.5-14.6-0.9-21.8-1.3C628.2,449.2,628,449,627.7,448.9z"/>
	<path class="st35" d="M687.4,440.7c-3.2,3.8-6.1,7.2-9,10.7c-0.3,0.5-0.9,0.8-1.5,0.7c-5.7-0.4-11.5-0.7-17.8-1.1
		c3.2-3.9,6.2-7.3,9.1-10.8c0.4-0.4,0.9-0.5,1.4-0.4L687.4,440.7z"/>
	<path class="st36" d="M559.7,445.4c3.4-3.9,6.5-7.3,9.6-10.9c0.4-0.5,1.1-0.7,1.8-0.6c4.1,0.2,8.1,0.4,12.5,0.6l-8.5,11.3
		c-0.4,0.5-0.9,0.4-1.4,0.4C569.1,446,564.6,445.7,559.7,445.4z"/>
	<path class="st37" d="M596.8,454.7c-2.7,3.5-5,6.5-7.3,9.5c-0.5,0.7-1.4,1-2.2,0.8c-4.7-0.3-9.5-0.6-14.7-0.9
		c2.2-2.6,4.4-4.9,6.3-7.4c1.7-2.3,3.5-3.4,6.5-2.8C589.1,454.5,592.7,454.4,596.8,454.7z"/>
	<path class="st38" d="M604.8,447.7c3.3-3.9,6.4-7.6,9.5-11.2c0.2-0.2,0.5-0.4,0.9-0.4c4.2,0.3,8.4,0.6,13.1,0.9
		c-3.2,3.9-6,7.5-8.8,11.1c-0.3,0.4-0.9,0.5-1.4,0.4L604.8,447.7z"/>
	<path class="st39" d="M560,433.2c-3.1,4-6,7.6-8.8,11.3c-0.3,0.5-0.9,0.8-1.5,0.7c-4.1-0.3-8.2-0.5-12.8-0.9
		c3.4-4.1,6.5-7.9,9.7-11.7c0.3-0.4,0.9-0.6,1.3-0.5C551.9,432.6,555.7,432.9,560,433.2z"/>
	<path class="st40" d="M657.1,432.2c2.9-3.5,5.5-6.8,8.2-10.1c0.3-0.5,0.9-0.8,1.5-0.7c4.4,0.3,8.7,0.6,13.5,0.9
		c-2.7,3.6-5.3,6.9-7.8,10.3c-0.4,0.5-1,0.7-1.6,0.5L657.1,432.2z"/>
	<path class="st41" d="M506.6,449.7c-2.3,3.1-4.3,5.9-6.3,8.7c-0.3,0.4-0.8,0.6-1.3,0.5c-5.5-0.3-11-0.6-16.9-0.9
		c2.5-3.1,4.8-6,7.1-8.8c0.4-0.5,0.9-0.3,1.4-0.3L506.6,449.7z"/>
	<path class="st42" d="M494.9,442c3.2-3.8,6.3-7.3,9.2-10.9c0.5-0.6,1.3-0.8,2-0.7c3.8,0.2,7.6,0.4,11.8,0.7
		c-3.1,3.9-6.1,7.6-9.1,11.4c-0.3,0.4-0.8,0.6-1.3,0.5L494.9,442z"/>
	<path class="st43" d="M702,423.5c-3,3.6-5.7,7-8.5,10.5c-0.4,0.5-1,0.7-1.5,0.6c-4.1-0.3-8.1-0.5-12.5-0.8
		c2.8-3.7,5.5-7.1,8.2-10.6c0.4-0.5,1-0.7,1.6-0.6L702,423.5z"/>
	<path class="st44" d="M491.5,475.9c2.8-3.4,5.2-6.4,7.6-9.5c0.4-0.5,1.1-0.8,1.8-0.6c4.2,0.3,8.4,0.6,12.8,0.9
		c-2,3.6-4.6,6.7-6.8,10c-0.5,0.8-1.2,0.5-1.8,0.5L491.5,475.9z"/>
	<path class="st45" d="M468.8,474.2c2.5-3.2,4.8-6,7-8.8c0.5-0.9,1.5-1.3,2.6-1.2c4.3,0.4,8.6,0.7,13.1,1l-7.1,9.3
		c-0.3,0.5-0.9,0.8-1.5,0.8C478.3,474.9,473.8,474.6,468.8,474.2z"/>
	<path class="st42" d="M604.8,435.6c-2.7,4.2-6,7.6-8.9,11.3c-0.3,0.3-0.7,0.5-1.1,0.4l-11.5-0.8c3.3-3.9,6.3-7.6,9.3-11.2
		c0.3-0.4,0.8-0.6,1.3-0.5C597.4,435.1,601,435.3,604.8,435.6z"/>
	<path class="st46" d="M613.7,429.5c2.9-3.6,5.5-6.9,8.1-10.3c0.3-0.5,0.9-0.8,1.5-0.8l11.8,0.8c-2.7,3.5-5.2,6.7-7.7,10
		c-0.5,0.7-1.4,1-2.2,0.8C621.5,429.9,617.8,429.7,613.7,429.5z"/>
	<path class="st47" d="M538,432.1c-3.2,3.9-6,7.4-8.8,11c-0.5,0.7-1.3,1-2.2,0.9c-3.3-0.2-6.6-0.4-10.3-0.7l9.5-11.3
		c0.4-0.4,1-0.6,1.6-0.5C531,431.7,534.3,431.9,538,432.1z"/>
	<path class="st47" d="M528,461c2.5-3.2,4.9-6,7.2-9c0.4-0.5,1.1-0.8,1.8-0.6l12.5,1.1c-2.3,3-4.5,5.9-6.7,8.8c-0.4,0.6-1.2,1-2,0.8
		C536.6,461.7,532.5,461.4,528,461z"/>
	<path class="st15" d="M636,430.7c2.9-3.5,5.5-6.6,8-9.8c0.5-0.6,0.9-1.1,1.8-1c3.4,0.3,6.7,0.5,10.6,0.8l-7.2,10.4
		c-0.3,0.5-0.9,0.4-1.4,0.4L636,430.7z"/>
	<path class="st37" d="M571.5,454c-2.5,3.1-4.7,5.8-6.9,8.6c-0.4,0.6-1,0.9-1.7,0.8c-4.1-0.3-8.2-0.6-12.7-0.9
		c2.6-3.2,5.1-6.1,7.5-9.1c0.5-0.6,1-0.5,1.6-0.4L571.5,454z"/>
	<path class="st48" d="M592.3,416.8c-2.7,3.6-5.3,6.8-7.7,10.1c-0.6,0.8-1.4,0.8-2.2,0.7L572,427c2.6-3.8,5.7-7.1,8.5-10.5
		c0.4-0.5,1.1-0.3,1.7-0.3L592.3,416.8z"/>
	<path class="st49" d="M613.3,418c-2.8,3.5-5.3,6.6-7.8,9.9c-0.4,0.7-1.1,1-1.9,0.9c-3.3-0.3-6.6-0.5-10.2-0.7
		c2.8-3.5,5.5-6.9,8.2-10.2c0.5-0.7,1.2-0.5,1.8-0.5L613.3,418z"/>
	<path class="st50" d="M570.7,415.4L562,426c-0.3,0.4-0.7,0.5-1.1,0.4c-3.2-0.5-6.4-0.3-9.9-0.6c3-3.7,5.8-7.1,8.6-10.5
		c0.3-0.4,0.8-0.7,1.3-0.6L570.7,415.4z"/>
	<path class="st51" d="M507.8,459.2c2.2-2.9,4.3-5.4,6.3-8c0.3-0.6,1-0.9,1.7-0.9c3.8,0.2,7.5,0.4,11.7,0.7
		c-2.3,3.1-4.4,5.9-6.5,8.7c-0.4,0.5-1,0.7-1.5,0.6L507.8,459.2z"/>
	<path class="st52" d="M510.2,423.9l8.3-10.2c0.4-0.5,0.8-1.1,1.6-1.1c3.1,0,6.2,0,10,0c-3.6,4.2-6.5,7.6-9.5,11.1
		c-0.5,0.6-1.3,0.8-2,0.7C516,424.3,513.3,424.1,510.2,423.9z"/>
	<path class="st53" d="M530.7,424.8c3.2-3.8,6.1-7.1,9-10.5c0.3-0.4,0.8-0.6,1.3-0.5l8.2,0.5c-3,3.7-5.9,7.2-8.8,10.7
		c-0.5,0.7-1.2,0.4-1.9,0.4C536.2,425.2,533.8,425,530.7,424.8z"/>
	<path class="st54" d="M145.7,103.7c0.5-8.9,5.4-17,13.1-21.5c6.3-3.8,12.7-3.8,19.1,0c5.1,3,9.1,7.3,12.6,12
		c0.2,0.3,0.6,0.7,0.5,0.8c-1.2,2-3.4,3-4.9,4.6c-1.1,1.1-1.7-0.2-2.3-0.7c-3.4-2.8-7.7-4.5-12.1-4.8c-9.8-0.6-15.9,8.3-12.1,17.4
		c1.8,4.3,5,7.2,9,9.4c0.8,0.4,2.4,0.8,1.2,2.1c-1.1,1.2-0.3,4.2-3.4,3.4c-2.8-0.6-5.6-1.4-8.3-2.4
		C150.1,120.5,145.7,113.8,145.7,103.7z"/>
	<path class="st55" d="M172.7,99c2.1,0,5.2,1.8,8.2,3.7c0.9,0.6,0.8,1.2,0.2,1.8c-3.1,3.5-5.7,7.4-7.9,11.5
		c-0.5,0.9-0.9,0.8-1.6,0.4c-2.9-1.6-5.6-3.5-7.2-6.6C161.8,104.7,165.3,98.9,172.7,99z"/>
	<path class="st14" d="M275.8,174c-5.2-0.4-8.8-2.7-11.2-6.8c-4.6-7.8-5.7-17.1-3.2-25.8c1.9-6.8,7.2-10.6,13.5-10.1
		c-3.6,3.8-4.9,8.5-5.7,13.4c-0.4,2.5,0.2,3.9,2.8,4.4c2.4,0.5,4.8,1.3,7,2.4c-2.5,1.5-4.8,3-7.2,4.1c-1.7,0.6-2.7,2.5-2.1,4.2
		C270.4,164.9,271.9,169.7,275.8,174z"/>
	<path class="st19" d="M737.2,279.2c-0.1-1.5-1.1-2.8,0.3-3.8s2.6,0.1,3.7,0.8c1.8,1.1,3.6,2.2,5.3,3.5c2.5,1.8,2.4,3.1-0.3,4.6
		c-2.2,1.3-4.4,2.5-6.6,3.8c-1.1,0.6-2.2,1.5-3.4,0.1s-0.4-2.4,0.5-3.4c0.2-0.2,0.4-0.5,0.8-1c-3.6-0.2-6.8-0.3-10.1-0.4L611.7,279
		c-8-0.3-16-0.6-23.9-1c-2.1-0.1-3.5,0.1-3.1,2.7c0,0.5-0.1,1-0.2,1.5c-0.1,1.1-1.1,1.8-2.2,1.6l0,0c-1.3-0.1-2.1-1-1.8-2
		c1-4.1-1.2-4.6-4.5-4.3c-1.1,0.2-2.1-0.6-2.3-1.7c0-0.2,0-0.3,0-0.5c0-1.2,0.9-2.3,2.2-2.3c0.1,0,0.2,0,0.3,0h0.2
		c1.5-0.2,3.4,1,4.3-0.2c0.8-1.1,0.5-2.9,0.7-4.4c1.6-17.8,3.2-35.5,4.8-53.3c1.8-19.2,3.5-38.4,5.4-57.6c0.4-4.8,0.9-9.6,1.3-14.6
		c-0.8,0.3-1.5,0.5-2.3,0.7c-1,0.2-1.9-0.4-2.2-1.4c-0.1-0.4,0-0.8,0.2-1.2c2-4.3,4.1-8.6,6.3-12.8c0.8-1.5,2.6-1.2,3.2,0.6
		c1.4,4.3,2.7,8.6,4,12.9c0.4,1.3,0.2,2.4-1,3.1s-2.1-0.2-2.8-1.1c-0.2-0.2-0.5-0.5-1.1-1.1c-0.5,5-0.9,9.6-1.3,14.2
		c-2.3,25.3-4.7,50.6-7,75.9c-1.2,12.9-2.4,25.9-3.7,38.8c-0.2,1.6,0.2,2.1,1.8,2c2.5-0.1,4.9,0,7.4,0.3c1.5,0.2,1.8-0.4,1.8-1.6
		c0.2-2.7,0.4-5.4,0.6-8.1c0.1-1.6,0.1-3.6,2.4-3.5c2.5,0.1,2.1,2.2,1.9,3.9c-0.2,2.5-0.4,5.1-0.6,7.6c-0.1,1.4,0.2,1.9,1.7,1.9
		c5.5,0.1,11,0.3,16.5,0.6c1.5,0.1,1.9-0.4,2-1.7c0.9-11.1,1.8-22.2,2.7-33.3c0.2-2.5,0.4-4.9,0.6-7.4c0.1-1.5,0.6-2.8,2.3-2.7
		c2,0.1,2,1.7,1.9,3.2c-1.1,13.3-2.1,26.6-3.3,39.9c-0.2,2,0.3,2.4,2.2,2.4c4.6,0,9.2,0.2,13.8,0.5c1.8,0.1,2.5-0.1,2.6-2.1
		c1.2-14.8,2.5-29.6,3.8-44.4c0.8-8.7,1.5-17.4,2.3-26.1c0.1-1.2,0-2.7,1.9-2.8c2,0,2.3,1.4,2.2,3c-0.7,8.4-1.3,16.8-2,25.2
		c-1.3,15.2-2.6,30.3-3.9,45.4c-0.2,1.7,0.2,2.3,2,2.4c6.2,0.1,12.4,0.3,18.6,0.6c1.6,0.1,2.2-0.2,2.3-2c0.8-11.4,1.8-22.7,2.7-34
		c0.1-1.6,0.4-3.3,2.4-3.2s1.9,2,1.8,3.5c-0.9,11.1-1.7,22.2-2.7,33.3c-0.2,2.1,0.3,2.7,2.5,2.8c5.7,0,11.4,0.2,17.1,0.6
		c1.8,0.1,2.1-0.6,2.2-2.1c1-12.4,2.1-24.7,3.1-37.1c0.9-10.1,1.8-20.1,2.6-30.2c0.1-1.5,0.6-2.8,2.4-2.6s1.8,1.5,1.7,2.9
		c-1.1,12.9-2.2,25.9-3.3,38.8c-0.8,9.3-1.5,18.6-2.5,27.9c-0.2,2.1,0.6,2.5,2.4,2.6c5.4,0.1,10.9,0.3,16.3,0.7c2,0.1,2-1,2.1-2.2
		c0.7-8.2,1.5-16.4,2.2-24.6c2-22.8,4-45.5,6-68.3c0.7-8.2,1.4-16.4,2-24.6c0.1-1.5,0.3-3.1,2.2-3s2.1,1.9,1.9,3.5
		c-1.4,16.7-2.9,33.3-4.3,50l-4.8,55.3c-0.4,4.1-0.7,8.3-1.1,12.4c-0.1,1.2,0.2,1.6,1.4,1.7C730.5,278.8,733.7,279,737.2,279.2z"/>
	<path class="st56" d="M732.6,127.7c-1.1,0-2.2,0.1-3.3,0c-0.9,0-1.6-0.7-1.8-1.5c-0.3-0.8,0.1-1.8,0.8-2.2
		c3.8-2.9,7.5-5.8,11.4-8.6c1.9-1.4,3.6-0.4,3.6,1.9c-0.2,5-0.5,10-0.8,15c0,1.2-0.8,2.1-2,2.2c-1.2,0.2-1.9-0.6-2.3-1.6
		s-0.7-1.9-1.1-2.9c-1.1,0.2-1.2,1.3-1.7,2c-16.5,28.1-33,56.2-49.5,84.2c-0.6,0.8-0.6,1.9-0.1,2.8c1.4,2.7,0.8,6.1-1.7,8.1
		c-2.2,1.9-5.4,2-7.8,0.3c-2.4-1.7-3.2-4.4-2-7.7c0.5-1,0.5-2.1,0-3.1c-6.5-11.5-12.8-23.1-19.3-34.6c-1.7-3-4.4-3.1-6.5-0.3
		c-16,20.5-32,41-47.9,61.6c-0.9,1.2-2,2.5-3.6,1.2s-0.6-2.7,0.4-3.9c15.5-20.9,31.8-41.1,47.6-61.7c0.9-1.1,1.6-2.1,1-3.8
		c-0.9-3,0.4-6.1,3-7.7c2.5-1.5,5.6-1.3,7.9,0.4c2.3,1.9,3,5.1,1.8,7.9c-0.8,1.6-0.7,3.4,0.3,4.9c6.2,11,12.3,22.1,18.5,33.1
		c0.6,1.1,1,2.2,2.7,2.2s1.8-1.4,2.3-2.3c16.5-27.6,32.2-55.6,48.9-83.1C731.8,129.6,732.6,128.8,732.6,127.7z"/>
</g>
<g>
	<path class="st11" d="M1544.1,477.7h-268.6c-39.9,0-72.2-32.3-72.2-72.2V136.9c0-39.9,32.3-72.2,72.2-72.2h268.6
		c39.9,0,72.2,32.3,72.2,72.2v268.6C1616.3,445.3,1584,477.7,1544.1,477.7z"/>
	<g>
		<path class="st57" d="M1405.5,305.4c-4.5-1.9-5-5.1-5.5-8.3c-2.5-16-5.1-31.9-7.5-47.9c-1.3-8.2-3.8-15.8-9-22.5
			c-6.1-7.9-8.4-17.3-10.3-26.9c-0.7-3.3,0.6-4.1,3.7-4c22,0.1,43.9,0.2,65.9,0.1c3.8,0,4.4,1.7,3.8,4.7c-2,10-4.8,19.7-11.4,27.7
			c-5.3,6.5-6.5,14.4-7.8,22.3c-2.6,15.9-5.2,31.9-7.8,47.8c-0.2,1.3-0.6,2.5-1,3.7c-0.5,1.3-1.5,2.5-2.8,2.4
			c-2.4-0.2-1.4-2.3-1.3-3.6c1.3-15.6,1.6-31.2,2.5-46.8c0.8-13.2,4.7-24.5,12.7-34.8c2.8-3.7,6.2-9.1,4.2-12.8
			c-1.7-3.1-7.9-0.9-12.1-0.9c-10.5-0.1-21.1,0.2-31.6,0.1c-4-0.1-5.1,1.5-3.7,5c1.2,3,1.9,6.5,3.9,8.8c8.1,9.2,11.3,19.9,12.2,31.8
			C1403.6,268.9,1405.2,286.7,1405.5,305.4z"/>
		<path class="st57" d="M1395.9,122.4c1.4,12.7,6.7,21.7,13.2,30.1c3.8,4.9,7.6,9.9,9.3,16.1c2.6,10-2.4,20.3-11.3,23.1
			c-10.8,3.4-22.7-1.6-26.7-10.8c-2.4-5.6-2.9-11.3-1.9-17.1C1380.8,149.2,1387.5,136.4,1395.9,122.4z"/>
		<path class="st57" d="M1419.9,191.5c11.9-15,6.7-28.6-3.4-41.7c-4.7-6.2-9.1-12.5-11.7-19.9c-4.6-13.1-1.5-25.2,9.3-35.2
			c-2.8,15,1.8,27.9,9.7,40.1c6.4,9.9,14.2,18.9,17,30.9C1444.2,179.9,1433.2,193.6,1419.9,191.5z"/>
	</g>
	<g>
		<path class="st57" d="M1321.6,382.4h-5.3v-53.6h5.3V382.4z"/>
		<path class="st57" d="M1372.6,353.6v15.6c0,2.9-0.5,5.4-1.5,7.4c-1,2.1-2.5,3.6-4.4,4.7c-1.9,1.1-4.2,1.6-6.9,1.6
			c-2.8,0-5.1-0.5-7.1-1.5c-2-1-3.5-2.5-4.5-4.4s-1.5-4.3-1.5-7v-28c0-2.9,0.5-5.4,1.5-7.4c1-2.1,2.5-3.6,4.4-4.7
			c1.9-1.1,4.2-1.6,6.9-1.6c2.7,0,4.9,0.5,6.8,1.6c1.9,1,3.3,2.6,4.3,4.6c1,2,1.5,4.4,1.5,7.2v2.6h-5.7v-2.6c0-1.7-0.3-3.2-0.8-4.5
			c-0.5-1.2-1.3-2.2-2.3-2.8c-1-0.6-2.3-1-3.8-1c-1.6,0-3,0.3-4.1,1c-1.1,0.7-2,1.7-2.6,2.9c-0.6,1.3-0.9,2.8-0.9,4.7v28
			c0,1.6,0.3,3.1,0.9,4.2c0.6,1.2,1.5,2.1,2.7,2.7c1.2,0.6,2.6,0.9,4.2,0.9c1.6,0,3-0.3,4.1-1c1.1-0.7,2-1.6,2.6-2.9
			c0.6-1.3,0.9-2.8,0.9-4.6v-10.8h-7.7v-4.9H1372.6z"/>
		<path class="st57" d="M1396.1,328.8h5l17,44l-0.9,1v-45h5.2v53.6h-5.1l-16.9-44l0.9-1v45h-5.2V328.8z"/>
		<path class="st57" d="M1452.8,382.4h-5.3v-53.6h5.3V382.4z"/>
		<path class="st57" d="M1483.3,381.6c-1.9-0.9-3.4-2.3-4.3-4.2c-1-1.9-1.4-4.2-1.4-7v-2.7h5.2v2.7c0,2.6,0.6,4.5,1.9,5.8
			c1.3,1.3,3.2,1.9,5.9,1.9c2.6,0,4.5-0.6,5.7-1.9c1.3-1.3,1.9-3.2,1.9-5.8v-3.2c0-1.7-0.4-3.2-1.1-4.4c-0.8-1.2-1.7-2.2-2.9-3.1
			c-1.2-0.8-2.7-1.7-4.6-2.6c-0.1,0-0.1-0.1-0.2-0.1c-0.1,0-0.1-0.1-0.2-0.1l-0.5-0.3c-2.4-1.2-4.4-2.3-5.8-3.3
			c-1.5-1-2.7-2.3-3.7-4c-1-1.7-1.5-3.7-1.5-6.2v-2.6c0-2.8,0.5-5,1.4-6.9c1-1.8,2.4-3.2,4.3-4.1c1.9-0.9,4.3-1.4,7.2-1.4
			c2.8,0,5.1,0.5,7,1.4c1.9,0.9,3.3,2.3,4.2,4.2c0.9,1.9,1.4,4.2,1.4,7v2.8h-5.2v-2.8c0-2.6-0.6-4.5-1.8-5.7
			c-1.2-1.3-3.1-1.9-5.5-1.9c-2.6,0-4.5,0.6-5.8,1.8c-1.3,1.2-1.9,3-1.9,5.5v2.6c0,1.6,0.4,3,1.2,4.2c0.8,1.2,1.8,2.1,3,2.9
			c1.2,0.7,2.8,1.6,4.9,2.6c0.2,0.1,0.4,0.2,0.6,0.3c0.2,0.1,0.4,0.2,0.6,0.3c0.1,0,0.2,0.1,0.3,0.1c0.1,0,0.2,0.1,0.2,0.1
			c2,1,3.7,2,5.1,3.1c1.4,1.1,2.5,2.5,3.4,4.1c0.9,1.7,1.3,3.8,1.3,6.2v3.4c0,2.8-0.5,5.1-1.4,7s-2.4,3.2-4.3,4.2
			c-1.9,0.9-4.3,1.4-7.2,1.4C1487.6,383,1485.2,382.5,1483.3,381.6z"/>
	</g>
</g>
</svg>
