<svg id="Capa_1" data-name="Capa 1" xmlns="http://www.w3.org/2000/svg" viewBox="0 0 751.68 699.84"><defs><style>.cls-1{fill:#f5e847;}.cls-2{fill:#10262f;}.cls-3{fill:#fff;}.cls-4{fill:#ef8029;}.cls-5{fill:#934815;}.cls-6{fill:#87a09b;}.cls-7{fill:#eec577;}</style></defs><circle class="cls-1" cx="345.63" cy="363.97" r="321.24"/><polygon class="cls-2" points="294.48 380.77 294.59 380.58 294.42 380.56 294.48 380.77"/><path class="cls-3" d="M688.1,345.07c2.21.34,3.65-1.29,5.42-2.1l.89.83c-1.62,2.11-4,2.25-6.37,2.57Z"/><path class="cls-3" d="M382.72,223.09c-9,8.1-10,18.51-2.66,28.07,4.72,6.17,10.48,10.81,18.42,12,1.63.24,1.86.74,1,2.08-2.71,4.44-6.06,8.14-11.1,10-10.84,4-21.77,3.59-32.53.05a65.58,65.58,0,0,1-38.18-31.85,57.17,57.17,0,0,1-2.75-7.09c-.64-1.67-.27-2.41,1.7-2.37a8.81,8.81,0,0,0,3.5-.9c1.27-.54,2.92-1.05,2.56-3a3.28,3.28,0,0,0-3.19-2.49c-7.1-.65-14.15-.45-21,2-1,.36-1.76.93-1.69,2.17a2.16,2.16,0,0,0,1.47,2c1.74.59,3.66,1.64,5.31,1.36,3.79-.65,4.48,2,5.22,4.36a45.57,45.57,0,0,0,7.58,15.14c15.46,19.15,34.47,31.47,60.23,29.8,6.09-.4,12-1.74,17.37-5,1-.58,2-1.21,3-.15,2.41,2.54,5.69,3.4,8.83,4.35,2.3.7,1.94,1.62.79,3a35.14,35.14,0,0,1-17.3,11.1c-18.57,5.29-35.7.61-51.87-8.32-7.57-4.19-15.7-5.73-23.86-7.48-13.72-2.92-27.37-6-40.23-11.83-5.1-2.32-10.29-4.44-15.46-6.57a69.45,69.45,0,0,1-16-9.29c3.42-.79,6.8.58,9.82-1,.7,0,1.59.36,1.85-.76h0c2.33-.11,4.68-.17,7.05-2.24a20,20,0,0,0-6.92-.47c-7.52-1.69-15-3.52-22.08-6.64-9.63-4.28-16.41-11.76-21.54-20.82-.76-1.34-.23-1.83,1.14-1.75a104.38,104.38,0,0,1,17.3,2.24,22,22,0,0,0,13.07-.92c-2.94-2.36-6-3.51-9-4.82-14.29-6.41-22.13-18-26.61-32.46-.7-2.27-.12-2.57,2.14-2A202.59,202.59,0,0,0,231.64,187a5.58,5.58,0,0,0,3.23.58q11.76-.56,23.53-1.18c5-.27,9.94-.24,14.79,1.27s9.55,2.88,14.55,4.38c-3.4-9.82-5.6-19.41-4.33-29.56s4.15-19.29,10.48-27.52c8.19-10.64,19.22-16.18,32-17.51,12.51-1.31,22.37,4.48,29.55,16.91,5.16,8.93,5.17,18.78,6,28.54.37,4.22-.75,8.33-.82,12.53a35.67,35.67,0,0,1-4.25,17.35,9.82,9.82,0,0,0,1.51,11.67,38.89,38.89,0,0,0,6.56,5.58C370.57,214.33,376.64,218.72,382.72,223.09Zm-84-41.53c.2,20.4,11.57,28.92,29.27,27.5,7.79-.62,14-4.57,17.1-11.9a48,48,0,0,0,3-29.18c-3.23-14.72-21.17-22.62-35.83-12.76C302.26,161.93,299.17,172,298.73,181.56Zm7.94-43.86c-.16,3.66,1.52,4.93,5,3.49,4.94-2.06,9.81-4.34,15.35-4.19,5,.14,9.61,1.63,14.17,3.41a5,5,0,0,0,5.45-.69c1.5-1.35,1.56-3.3,1-5.25-.91-3.18-3.08-5.31-5.74-7-9.85-6.3-24.29-4.44-32.26,4.11A9.38,9.38,0,0,0,306.67,137.7Z"/><path class="cls-4" d="M382.72,223.09c-6.08-4.37-12.15-8.76-18.26-13.1a38.89,38.89,0,0,1-6.56-5.58,9.82,9.82,0,0,1-1.51-11.67,35.67,35.67,0,0,0,4.25-17.35c.07-4.2,1.19-8.31.82-12.53-.86-9.76-.87-19.61-6-28.54-7.18-12.43-17-18.22-29.55-16.91-12.77,1.33-23.8,6.87-32,17.51-6.33,8.23-9.21,17.48-10.48,27.52s.93,19.74,4.33,29.56c-5-1.5-9.79-2.9-14.55-4.38s-9.8-1.54-14.79-1.27q-11.77.65-23.53,1.18a5.58,5.58,0,0,1-3.23-.58c2.64-.21,5.3.17,7.85-.44-1.39-.21-2.59-.26-3.21-2.42-.47-1.61-3.1-2.59-4.74-3.88-.76-.59-2.07-1-1.79-2.15.74-3.19-1.47-4.81-3.2-6.79-7.87-9-14-18.93-16.13-30.89a4.46,4.46,0,0,0,.5-3.17c-.17-3,.37-5.28,3.59-6.53,1.65-.64,2.18-2.36,1.11-4.12,2.32.14,3-.66,2.36-3.09a13.09,13.09,0,0,1-.32-6.47c.29-.14.84-.28.84-.41,0-4.51,2-8.6,2.6-13a96.08,96.08,0,0,1,7.56-25.33,207.91,207.91,0,0,1,22-38.15C256.12,32.69,262.45,26,272.14,24c.78-.16.88-.48.6-1.11,4.57-.48,8.06,1.65,11.18,4.65,6.09,5.85,9,13.45,11.7,21.17a147.63,147.63,0,0,1,5.93,24.4,90.65,90.65,0,0,1,.9,23.33,12,12,0,0,0-.17,2.31c.15,1.55-.83,3.87,1.08,4.42,2.23.64,3-1.79,3.89-3.37A19.34,19.34,0,0,0,309.47,91a9.4,9.4,0,0,1,1-4c1.33-.81.83-2.16.89-3.3s.22-2.47,1.67-2.87a13.59,13.59,0,0,1,9.84.71c6.5,3.18,11.81,8.55,19.08,10.31l-3.33.34c1.84,3.1,4.75,4.5,7.73,5.51a126.82,126.82,0,0,1,38.28,20.83,20,20,0,0,0,7,3.75c4.42,1.23,6.86-.1,8-4.47a38.4,38.4,0,0,0,.52-19.68c-.43-1.72-.89-3.43-1.21-5.16-.26-1.38-1.81-3.51-.28-4a6.71,6.71,0,0,1,6,1c20.29,15.82,30.19,37.24,33.66,62.19a80.55,80.55,0,0,1,.48,21.82,45.61,45.61,0,0,0,0,6.61,2.19,2.19,0,0,0,1.5,2.35c4,1,7.68,3.44,12,3.37-5.65,1.7-11.83,1.7-16.92,5.24a.81.81,0,0,1-1.18-.05c-.44-.53,0-1,.12-1.48a76.93,76.93,0,0,0,3.48-23,103.08,103.08,0,0,0-1.57-16.12c-2.08-12.12-7.5-22.35-18-29.37-2.88-1.93-6.11-3.39-9.66-2.2-2.29.76-4.33,1.93-7,1.37a2.76,2.76,0,0,0-3.12,2.4c-.24,1.83,1.19,2.1,2.65,2A65.71,65.71,0,0,0,393.4,132c-1.89-1.66-2.37.25-3,1.28a54.46,54.46,0,0,0-7.84,21.93c-.65,4.93-1.07,9.9-1.3,14.86-.22,4.74-.67,9.59.69,14.2,1,3.24,1.32,7.09,5.29,8.56-1.75-.12-2.38.63-2,2.37.56,2.4,2.31,3.68,4.31,4.73,8.87,4.71,17.74,9.43,26.63,14.09a45.17,45.17,0,0,1,8.86,5.46C410,217.21,395.87,215.11,382.72,223.09ZM288.35,75.83c-.14-13.75-2.42-25.36-8-36.21-3.15-6.18-7.82-7-13.1-2.5-3.52,3-5.63,7-7.73,11C253.1,60.33,250,73.74,246.26,86.91a114.49,114.49,0,0,0-3.95,24.26c-.13,2.16,1.16,4,.81,6.15-.53,3.28.61,6.47,1,9.69.86,6.75,4.08,12.78,5.94,19.24a61.44,61.44,0,0,0,3.82,8.8c.45,1,.92,2.22,2.32,2s1.67-1.42,1.86-2.49a40.92,40.92,0,0,0,.5-4.94,6.18,6.18,0,0,1,.63-3.2c1.89-3,3.75-5.93,5.69-8.86,5-7.54,10.87-14.52,14.64-22.8C285.4,101.9,287.84,88.24,288.35,75.83Z"/><path class="cls-3" d="M461.4,533.28c-1.67,4.81-3.34,9.61-4.9,14.46-.48,1.5-1.57,1.74-2.8,1.84-3.06,3.53-18.66,1.61-27.87.4-3.41-.25-4.26-1.55-3.13-4.67,2.78-7.71,3.88-15.84,6-23.67,2.29-8.48,4.3-17.1,7.46-25.4,2.5-6.56,3.4-13.71,5.33-20.51,6.64-23.5,12.56-47.19,18.38-70.91C470,363.66,482,323,491.77,281.75c1.21-5.15,2.72-10.24,3.24-15.56.19-1.95,1.09-3.27,3.84-2.5,15.34,4.3,30.75,8.38,46.13,12.52a245.21,245.21,0,0,0,84.36,7.91c3.53-.29,7.08-.4,10.61-.69,2-.17,2.52.37,1.72,2.38-3.95,9.93-6.55,20.34-11.45,29.95a15.3,15.3,0,0,0-1.55,8.8c.24,1.63-.33,2.58-2,3.48-7.12,3.85-15,5.14-22.65,7.17a132,132,0,0,1-16.87.75c-1.91,0-2.28-1-2.53-2.3-.3-1.63.54-2.5,2.17-2.65,2.3-.2,4.56-.7,6.91-.71,7.65,0,15.12-1.52,22.53-3.3a6.16,6.16,0,0,0,3.42-2.48c.72-.95.81-2.09-.76-2-3,.08-6.16-.58-9.12.67l-7.24,0a1.3,1.3,0,0,0-2,0l-2.62.13a.84.84,0,0,0-1.45.09l-3,.18c-2-.41-3.92-.86-5.66.65a21,21,0,0,0-6.28.21c-1.13-1.06-2.51-.68-3.77-.51a97.54,97.54,0,0,1-22.72-.06c-7.63-.76-7.87-.6-9.47,7a2.06,2.06,0,0,1-.07.32c-.83,2.76.24,4.19,3.06,4.49,1.2.13,2.93-.29,2.53,2l-1.55.11c-2-.67-3.9-.11-5.76.63L533.56,340c-.59-1.66.37-3,1-4.39,1.57-3.63,4-6.92,4.65-10.9.39-2.25,2.17-5.21-.8-6.54-3.32-1.48-4.29,2.07-5.37,4.07A64,64,0,0,0,525.22,349a48.17,48.17,0,0,1-5.41,12.13c-1.39-.33-2.77-.68-4.17-1-5.9-1.26-5.79-1.23-7.09,4.48-.46,2,.22,2.64,1.95,2.86l7.2.94c-1.21,3.47-.91,7.42-3.39,10.47a249.78,249.78,0,0,0-29.14-4.6c-3.65-.4-4.54.59-5.34,5-.6,3.36,2.23,2.59,3.8,3.32a7.14,7.14,0,0,0,1.63.33c7.71,1.53,15.59,1.84,23.35,3,1.23.19,2.83-.12,3,1.85a27.23,27.23,0,0,1-3,7.94,188,188,0,0,0-25.21-5.53c-5.71-.89-5.73-.73-7.29,4.89-1.24,4.52-1.22,4.38,3.58,5.12,8.84,1.37,17.88.83,26.67,2.75-.95,3.63-1.81,7.3-3.83,10.55-7.53-2.4-15.45-2.5-23.13-4-6.31-1.26-6.35-1.09-8.27,5-1.16,3.7-1.06,3.7,2.71,4.34,8.61,1.46,17.38,1.38,26,2.69-.85,3.15-1,6.57-3.57,9.07-8.3.09-16.48-1.2-24.65-2.4-2.71-.4-4.18.09-4.53,3a37.16,37.16,0,0,1-1.25,5.46c-.41,1.48.12,2.06,1.57,2.07,2.77,0,5.54-.07,8.29.11,6,.41,11.86-1.29,17.84-.61-.06.32-.13.64-.19,1l-.34,1-6.48,19.79c-4.67-1.31-9.44-.73-14.18-.86-3-.08-5.9-.65-8.86-.7-2.36,0-4.45,2.86-4.44,6.06,0,2.86,2.45,2,4,2.17,5.72.55,11.45,1,17.18,1.33,1.93.11,2.89.7,2.72,2.69a17.52,17.52,0,0,1-1.71,5.24c-7.4-.34-14.81-.63-22.2-1.05-3.29-.19-4.83,1.11-5.13,5.11-.24,3.18,2.57,2.15,4.07,2.44,6.53,1.22,13.25.48,19.81,1.67-1.15,4.49-2.36,9-4.9,12.94a33.38,33.38,0,0,0-12,.13c3.54,1.86,7.8,1.41,10.88,4.18l-4,13.36Zm61.15-207.89a1.17,1.17,0,0,0-.39-1.59c-2.34-2.09-4.34-1.79-5.19.92-.76,2.39-1.29,4.86-1.92,7.3-1.91,6.12-1.79,12.61-3.38,18.79-.37,1.43.53,1.64,1.64,1.79,3.49.47,5.82-.9,7.28-4.84,2.43-6.55,2.45-13.39,2-20.25Zm86-11.54h3c10.06-.09,10-.12,12.56-10,.79-3-.2-3.25-2.77-3.33-8.93-.29-17.82.73-26.78.07-15-1.1-29.88-3.23-44.78-5.18-5-.66-9.91-1.94-14.88-2.81-2.89-.51-4.39.58-4.1,3.8a20.15,20.15,0,0,1-.5,6.26c-.64,2.84.82,4.74,3.79,5,6.81.62,13.54,1.88,20.32,2.73C572.38,312.67,590.34,315.47,608.56,313.85ZM496.76,301.5c-.56,2.27.84,3.07,2.6,3.49,6.35,1.51,12.71,2.94,19,4.5,2,.48,3-.05,4-1.85,3.15-6,3.63-12.7,5-19.14.46-2.11-.95-3.34-3.08-3.41a25.72,25.72,0,0,1-6.37-1.33c-4.24-1.22-8.55-2.23-12.87-3.13-1.25-.26-2.84-.72-3.58,1.3A85.84,85.84,0,0,0,496.76,301.5Zm.33,16.71c-3-.22-3.16,1.4-3.5,2.76-1.18,4.72-2.22,9.48-3.52,14.16-.66,2.37,0,3.64,2.34,4.08,4.45.82,8.91,1.58,13.36,2.42,1.74.32,2.31-.48,2.61-2.07,1.06-5.61,1.19-11.37,2.92-16.86a1.45,1.45,0,0,0-1.16-2C505.49,319.76,500.81,318.91,497.09,318.21Zm-9.2,32c-1.41-.44-2,.9-2.21,2.65a36,36,0,0,1-2.21,8.64c-.87,2.17-.11,3.15,1.95,3.42,4.7.63,9.4,1.2,14.09,1.78,1.73.21,2.24-1,2.69-2.33,1.2-3.59,1.27-7.35,1.84-11,.18-1.21-.55-1.58-1.55-1.59A135,135,0,0,1,487.89,350.25Z"/><path class="cls-3" d="M407.13,381.57c2,3.44,5.29,4.48,8.83,4.46a20.81,20.81,0,0,0,17.25-8.8,10.83,10.83,0,0,1-1.92,12.64c-5.72,6.13-13.12,8.45-21.13,9-9.25.62-18.49,1.07-27.63,2.86-4.52.88-9.28.7-13.8,1.39-5.08.77-9.92,3.11-14.87,4.76a10.69,10.69,0,0,0-5.26,3.43c-1,1.27-1.52,2.58-.74,3.78s2.05,0,3-.31a83.78,83.78,0,0,1,25.56-5.21A24.61,24.61,0,0,1,390,413.17,68.15,68.15,0,0,1,408.61,429c5.44,6.81,7.12,14.83,7.25,23.28a6,6,0,0,1-6.07,5.81c-1.37,0-1.62-.8-1.94-1.79-7.14-22.15-28-29.9-47.28-25.56a27.35,27.35,0,0,0-6.15,2.43c-1.59.8-2.38,2-1.76,3.77.68,1.92,2.21,1,3.38.77,7.79-1.44,15.57-2,23.42-.34,12.45,2.57,20.89,12.25,21.64,25,0,.66,0,1.33.07,2,.23,3.66.11,7.2-3.7,9.21a12.3,12.3,0,0,1-12.65-.26,15,15,0,0,1-5.71-5.92c-4.81-9.08-19.41-9.06-24.93,1.73-1.1,2.15-2,4.44-2.85,6.7-5.16,13.15-14.87,21.31-28.74,22.45-16.29,1.35-28.36-7.59-31.78-24.93-2-10.32.94-19.94,4.61-29.39,6.36-16.39,13.06-32.63,22.66-47.48a30.14,30.14,0,0,1,5.84-7.2c9.55-7.9,17.75-17.27,27.41-25.06,8.21-6.61,17.75-10.64,27.4-14.5,4.38-1.76,8.68-3.71,13-5.57,2.72,6.6,6.72,9.45,11.91,8.47,7.92-1.49,12.05-7.44,12.14-17.91a9.06,9.06,0,0,1,4.55,7.4c.44,8.18-3.28,14.58-9.35,19.61-2.39,2-5.84,1.38-8.83,1.83-20.6,3.14-40.62,7.8-57,21.92a22.32,22.32,0,0,0-5.62,6.47c-.42.82-1.29,1.89-.52,2.74s1.89,0,2.67-.48c4.37-2.57,8.81-5.05,13-7.9,14.47-9.83,31.07-13.23,47.83-16.23,1.89-.33,2.81,0,2,2.16a10,10,0,0,0,.14,6.52,3,3,0,0,0,1.92,2.85l.67.07Z"/><path class="cls-4" d="M270.19,597.53c-3.15,5.47-8,9.39-12.59,13.47-10.84,9.57-23.78,14.77-37.77,17.33-11.65,2.13-23.15.76-33.16-5.81-10.79-7.08-16.84-17.68-18-30.51a73.74,73.74,0,0,1,12.57-49.15,4.55,4.55,0,0,1,.72-.66c.88,2.08-.69,4.27.2,6.56a16.31,16.31,0,0,0,4.39-3.22c6.29-6,13.13-11.13,21.3-14.31,11.18-4.33,21.3-10.51,31.06-17.41q13.26-9.39,25.48-20c3.92,6.75,7.69,13.54,13.44,19.09,7.69,7.43,16.43,12.49,27.09,14-.89.94-2.95-.4-3.26,1.58-.75,4.86-4,8.56-5.79,12.93-4.44,11-10.91,21-16.42,31.4-4.6,8.69-11.18,16.11-16.15,24.57-.6,1-2.31,1.41-1.83,3.24C264.25,599,267,597.54,270.19,597.53Z"/><path class="cls-3" d="M573.93,485.05c3.1-4.88,4.79-10.51,8.36-15.14-5.28-2.36-6.47-2-9.24,2.67-5.36,9-10.93,17.79-16.08,26.86-1.21,2.14-2.21,3.64-4.61,4.65-12.66,5.34-16.1,19.21-11.67,30.86,2,5.36,5.91,9.49,9,14.12,1.53,2.27.86,2.9-1.16,3.68-10.8,4.17-21.57,8.4-32.54,12.17-11.56,4-23.09,8-34.8,11.48-.91.28-1.77,1-3,.26,3-5.61,6.08-11.2,9-16.84,6-11.32,11.75-22.72,17.81-34C516,505.66,527,485.57,537.93,465.43c9-16.54,17.69-33.25,27.35-49.42a15.55,15.55,0,0,1,8.74-7c16.37-5.79,33.22-9.87,49.86-14.72,18.57-5.42,37.25-10.45,55.81-15.91,8-2.37,15.89-5.43,23.85-8.1,1.85-.62,3.73-1.38,6.08-1-24.61,40.65-47.45,82.12-72.11,123l-9.74-11.64c3.75-.53,6.2-2.68,7.94-6,3.17-6,6.48-12,9.84-17.92,1.29-2.29-.1-2.22-1.56-2a127.71,127.71,0,0,0-23.93,6.31c-6,2.34-11.86,5.25-18,7.49-5.79,2.13-9.76,10.73-7.87,16.75-.06.39-.13.77-.19,1.16-.14.23-.27.47-.41.71s-.68.53-.75.47c-5.67-4.8-11.88-3.27-18.11-1.57ZM554,463c-.71,1-2.61,1.68-1.69,3.14.74,1.18,2.15.1,3.29-.1A111.93,111.93,0,0,0,570.46,462L603,452.83c6.07-1.7,12.22-3.14,18.18-5.16,10.32-3.49,20.65-6.9,31.35-9.05,3.08-.62,5.89-1.71,7.57-5.14a86.26,86.26,0,0,0-18.34,3.64c-8,2.61-15.88,5.48-24,7.56-8.64,2.21-17.17,4.83-25.89,6.83-11.36,2.6-22.53,6.09-33.73,9.35C556.71,461.28,554.64,460.9,554,463Zm5.33-7.21c.95-.17,1.74-.24,2.48-.45q37.88-11.06,75.74-22.16c4.43-1.3,8.7-3.41,13.21-4.07A83.54,83.54,0,0,0,663,426a6.45,6.45,0,0,0,3.76-3.58,2.15,2.15,0,0,0,.19-1.55c-.27-.61-.95-.29-1.46-.17-3.44.83-6.93,1.49-10.31,2.52-16.5,5-32.94,10.25-49.46,15.21-14.62,4.39-29.66,7.22-44.15,12.1a5.13,5.13,0,0,0-3.43,3.19C557.61,455,557.75,456,559.32,455.78Zm4.9-10.6c4.31-1.45,8.49-3.25,12.86-4.24,8.1-1.83,16.08-4.1,24.09-6.21a448.07,448.07,0,0,0,43.35-13.66c7.28-2.72,14.83-5.23,22.81-5.45a5.79,5.79,0,0,0,4.84-3c.36-.55.84-1.21.48-1.83s-1.17-.18-1.78-.08a185.66,185.66,0,0,0-31.5,7.88c-3.45,1.21-6.55,3.22-10.12,4.17-10.78,2.85-21.51,5.85-32.31,8.61-8.54,2.19-17.14,4.19-25.74,6.13C566.53,438.52,564.1,441,564.22,445.18Zm114.51-45.69c-3.39.74-6.43,1.25-9.38,2.07-13,3.61-25.92,7.33-38.88,11-4,1.13-8.12,2.06-12.15,3.18-7.54,2.1-14.73,5.48-22.6,6.26a63.79,63.79,0,0,0-19.86,4.74c-1.42.62-2.93,1.09-3.89,2.41-.65.89-1.64,1.94-1,3,.74,1.21,2,.3,3,0,8.51-3.13,17.55-4.24,26.18-7.08,9.42-3.11,19.21-5.11,28.76-7.87,7.85-2.27,15.45-5.54,23.4-7.26,7.44-1.61,14.66-4,22.07-5.63C676.61,403.7,678.46,402.58,678.73,399.49Zm3.73-10a29.25,29.25,0,0,0-8.07,1.48c-14,3.68-27.69,8.31-41.79,11.54a73.79,73.79,0,0,0-8.18,2.69c-6.76,2.4-13.45,5.36-20.43,6.7a240.52,240.52,0,0,0-25,6.67,4.84,4.84,0,0,0-2.79,1.68c-.55.8-1.36,1.74-.88,2.71.63,1.31,1.73.35,2.61.15a296.93,296.93,0,0,0,28.89-8.44c11-3.81,22.15-7.48,33.58-10.2,12.56-3,24.9-6.94,37.34-10.47a47.59,47.59,0,0,0,5.07-1.46c1-.39,2.1-1.22,1.67-2.52C684.17,388.9,683,389.56,682.46,389.46ZM555.59,476.93a28,28,0,0,1-4.05,0c-2.79-.46-4.62.41-6.09,3-7.23,12.63-14.65,25.15-21.91,37.77-.59,1-2.49,2.18-1.22,3.29,1,.92,2.95.32,4.36-.43a7,7,0,0,0,1.61-1.14,61.4,61.4,0,0,0,8.05-9.61C543.23,499.21,547.76,487.33,555.59,476.93Z"/><path class="cls-3" d="M131.25,465.17c2.48,1,4.74,3,8.07,1.4-2.27-3.18-4.22-6.5-6.91-9.35-2.39-2.53-5.2-4.74-6.47-8.16,1.91-4.27-.2-8.32-1-12.29-3.44-16.4-2.54-32.23,4.46-47.66,6-13.23,18.81-20,33.06-17.16,11.18,2.23,19,9.15,25.2,18.13s9.69,19.8,15.52,29.18c-1,3.21.63,5.9,1.71,8.69.54,1.4,1.84,2.49,1.74,4.17-1.79-.14-3.76-1.8-5.28-.2s-3.08,2.44-4.46,3.85c-3.32,3.38-3.91,6.42-1.85,10.75s4.94,8.55,5.82,13.58c.81,4.61-.84,7.32-5.45,8-1.74.27-3.5.46-5.26.64-8.08.85-15.92,2.47-23,6.88a11.08,11.08,0,0,0-5.46,7.45c-1.13,5.23.67,10.54-.76,15.74-.33,1.17,1,.86,1.62,1-3.66,3-7.61,5.64-10.94,8.95a103.21,103.21,0,0,0-15.1,18.73c-2.08,3.36-3.78,7-5.63,10.46-.38.73,0,2.12-1.16,2.1s-1.45-1.36-1.62-2.26a121.06,121.06,0,0,1-2.07-12.06,74.82,74.82,0,0,1,6.46-39.37c.46-1,.66-1.6-.63-1.84C131.64,478.12,132.72,471.6,131.25,465.17Z"/><path class="cls-3" d="M590,494.74a.41.41,0,0,1,.28.34,16.54,16.54,0,0,0-9.76,2.13c-2.28,1.4-2.9,3.13-1,5.32a24.08,24.08,0,0,0,4.27,6.27c4.21,4.23,9.06,4,12.82-.7,2.3-2.87,2.39-2.94,4.64,0,6,7.7,11,15.93,12.68,25.73a38.85,38.85,0,0,1-.42,16.79,50.44,50.44,0,0,0-.8,5.81c-.23,1.63.73,1.27,1.6,1a8.47,8.47,0,0,0,5.46-5.83,41.32,41.32,0,0,0,.44-24.49c-2-6.69-5.59-12.48-9.68-18q-3.74-5.07-7.42-10.18c-3.37-4.7-3.29-7.27.27-12,2.72-3.58,8.64-5.67,12.44-4.28,1.49.55,2.91,1.32,4.36,2-1,.16-1.92.35-2.88.49a15.47,15.47,0,0,0-7.37,2.55c-1.67,1.23-1.64,1.71-.1,3.26a1.58,1.58,0,0,0,.7,1.77l-.06-.06c1,3.51,6.37,7.66,10.37,8s6.72-1.73,9-6.83c6.66,7.77,11.33,16.23,12.58,26.32,2,16.5-5.79,28.36-18.46,37.51-5.72,4.13-11.85,7.63-16.75,12.87s-11.39,7.47-18,9.36c-9.95,2.83-19.6,6.83-30.19,7.23-7.35.28-14.15-1.55-20.88-4.09-.41-.43-.85-.77-1.49-.52h0a28.39,28.39,0,0,1-.07-11.79c.3-1.3.87-2.24,2.21-1.36,4.75,3.07,9.31.94,13.91-.34,4.23-1.28,6.2-4.13,6.83-8.52,1-7-1.52-12.69-5.63-18a46.7,46.7,0,0,1-7.31-13.24c-2.18-6.25,1.11-14.64,6.76-17.28a10.42,10.42,0,0,1,11.2,1.92c-2.36.4-4.74.71-7.07,1.25-1.5.35-3.07.93-2.5,3.09,0,.49,0,1-.07,1.47a1.22,1.22,0,0,0,.37,1.56,17.42,17.42,0,0,0,4.44,6.48c4.24,4.33,9.33,3.53,12.35-1.89.87-1.57,1.6-1,2.44,0,5.87,6.89,10,14.57,10.76,23.77A52.38,52.38,0,0,1,582.78,570c3.77.42,5.12-2.13,6.38-4.44,3.87-7.12,3.93-14.67,2.24-22.39-1.86-8.48-6.49-15.45-11.76-22.12-2.39-3-4.65-6.18-6.86-9.36-4.91-7.07-.69-17.14,7.8-19.15,3.18-.76,6-.91,8.53,1.41Z"/><path class="cls-4" d="M500.39,641.15c-14.92-.11-27.06-4.95-35.49-16.7a46.56,46.56,0,0,1-9.12-28.59c0-1.08.11-2,1.4-2.24,11.61-2.18,21.78-8.63,33.2-11.35,5.12-1.22,9.89-3.33,14.7-5.32,2.12-.88,2.68-.5,3.28,1.73,4.51,16.8,15,27.67,32.12,31.83a27.13,27.13,0,0,0,6.9.74c3.29-.06,2.85,1,1.43,3.11-8,11.53-18.74,19.22-31.89,23.75A52.6,52.6,0,0,1,500.39,641.15Z"/><path class="cls-3" d="M203.15,419.26c-5.83-9.38-9.26-20.07-15.52-29.18s-14-15.9-25.2-18.13c-14.25-2.85-27.06,3.93-33.06,17.16-7,15.43-7.9,31.26-4.46,47.66.83,4,2.94,8,1,12.29-5.43-9.82-9.55-20-9.3-31.51,0-2.91,0-5.82,0-8.73.33-12.29,4.62-23.28,11.09-33.54s16.48-15.8,26.85-20.95c1.29-.64,2.68-1.08,4-1.75,11.4-6.09,21.59-3.15,31.1,4.26a87.74,87.74,0,0,1,20.21,22.58A139.58,139.58,0,0,1,226,414.49c1.81,6.2,2.44,12.64,3.42,19a74.92,74.92,0,0,1,.36,19c-.25,2.56-1.14,4.92-2.29,8.42C221.55,445.06,215.86,430,203.15,419.26Z"/><path class="cls-3" d="M342,91.87c-7.27-1.76-12.58-7.13-19.08-10.31a13.59,13.59,0,0,0-9.84-.71c-1.45.4-1.6,1.58-1.67,2.87s.44,2.49-.89,3.3a61,61,0,0,0-1.77-19.7c-.56-2.26,0-3.4,1.71-4.69,8.23-6.19,17.49-10.29,27.07-13.82,4.14-1.52,7.93-4,12.36-4.75.51-.09,1-.1,1.86-.18-1.33,3.34-3.58,5.65-5.85,7.85-1.67,1.6-2.38,3.58-3.19,5.57-.22.53-.76,1.25-.13,1.82s1.24.1,1.84-.19c2.89-1.37,5.75-2.79,8.67-4.09,10.44-4.65,21.26-4.62,32.22-2.5.58.11,1.34,0,1.77.93-1.38,1.79-3.56,2.09-5.52,2.47-4.7.91-9,2.89-13.46,4.53-1.66.61-3.88,2-3.16,3.9s3,.49,4.44.17c11.95-2.68,23.67-2.18,35.11,2.29A49.27,49.27,0,0,1,414.77,72c3.74,2.63,3.47,4.64-.69,6.51-6.65,3-13.61,2.5-20.57,1.73-4.07-.45-8-1.75-12.15-1.7-.71,0-1.64-.26-2,.68s.3,1.5.84,2c1.36,1.29,2.78,2.53,4.21,3.74,8.46,7.18,10.63,16.42,9,27-.38,2.42-1.2,2.72-3.17,1.27-5.71-4.19-11.51-8.21-17.58-11.87C363.14,95.63,352.86,92.89,342,91.87Z"/><path class="cls-3" d="M257.13,284.4c18.16,14.19,37.8,24.42,60.06,29.63,6.59,1.54,13.36,1.92,19.88,3.68.91.24,2.26.05,2.41,1.24.12,1-1.13,1.18-1.9,1.55-8.29,4-13.61,10.95-18.3,18.43-5.79,9.24-11.29,18.68-16.84,28.07-2.2,3.72-2.63,3.85-5.88.74-5.12-4.89-8.25-11.15-11.82-17.13-9.36-15.65-18.65-31.33-25.4-48.36C257,296.45,255,290.68,257.13,284.4Z"/><path class="cls-4" d="M458.74,24.09c3.61.76,5.46,3.55,7.16,6.4,4.29,7.21,6.6,15.16,8.65,23.23a117.84,117.84,0,0,1,1.73,53c-1,4.85-2.84,9.53-4.26,14.3-.23.79-.84,1.85.07,2.43s1.7-.25,2.38-.76c1.39-1,2.68-2.16,4.78-3.88-6.15,21.57-14.11,41-32.29,54.52-.87-.41-.33-1.4-.28-2.16.48-7.18.83-14.36-.14-21.54a1.91,1.91,0,0,1,.57-2c5.25-4.59,9.2-10.28,13-16a52.73,52.73,0,0,0,9-26.12c1.18-18.39,1.32-36.74-3.56-54.73a64.11,64.11,0,0,0-4.92-12.61c-2.43-4.74-7.87-4-11.09-.65-4.47,4.69-6.36,10.7-9.14,16.25-3.22,6.45-5,13.47-7.48,20.21q-4,10.74-7.89,21.48c-.44,1.21-.71,2.49-1.16,4.08-3.18-5-8-7.9-13.17-10.94,3.28-1.64,6.28-2.94,9.07-4.58,4-2.34,7.56-5.15,7.69-10.42a6.27,6.27,0,0,0-3.1-6.11c-6.15-3.86-12.27-7.77-19.47-10.3,3.6-3,6-6.62,9.59-9,1.28,2.24,3,2.32,5.07,1.11,5.69-3.37,9.9-8.46,14.65-12.89s9.58-8.83,16.2-10.37C453.18,25.23,456,24.68,458.74,24.09Z"/><path class="cls-3" d="M474.14,536.18c2.51-6.59,5-13.2,7.54-19.76,10.7-27.36,21.9-54.53,31.56-82.3,5.82-16.72,13-32.93,18.59-49.73,1.67-5,4.25-9.7,6.42-14.54.68-1.52,1.75-2.08,3.5-2.44,8.23-1.73,16.71-1.45,24.89-3.83,17.15-5,34.43-9.52,51.65-14.3,16-4.45,31.75-9.82,47.59-14.84,5-1.6,10.18-3,15.27-4.48.65-.19,1.58-.34,1.66.38.18,1.59.65,3.46-1,4.61a18.4,18.4,0,0,1-4.91,2.73c-13.55,4.26-26.7,9.69-40.49,13.3-14.65,3.83-29.14,8.26-43.63,12.71-10.08,3.1-20.15,6.42-30.67,8-3.48.51-6.88,1.48-10.45,1.43-2.63,0-3.87,1.95-4.83,4-3.58,7.6-7.28,15.15-10.56,22.88-3.15,7.42-6.68,14.68-9.91,22.05-5.52,12.58-10.62,25.34-15.79,38.07-7.24,17.83-15.83,35-24.24,52.32-4.05,8.31-7.66,16.84-11.47,25.27C474.14,537.43,474.33,536.71,474.14,536.18Z"/><path class="cls-3" d="M162.57,499.88c-.66-.17-1.95.14-1.62-1,1.43-5.2-.37-10.51.76-15.74a11.08,11.08,0,0,1,5.46-7.45c7-4.41,14.87-6,23-6.88,1.76-.18,3.52-.37,5.26-.64,4.61-.72,6.26-3.43,5.45-8-.88-5-3.7-9.14-5.82-13.58s-1.47-7.37,1.85-10.75c1.38-1.41,3.08-2.39,4.46-3.85s3.49.06,5.28.2c7,15.14,14.89,29.9,21.37,45.3a31.18,31.18,0,0,1,2.16,7.31c.51,3.22.16,3.48-3.22,2.65a78.33,78.33,0,0,0-19.19-2.26c-13.23,0-25.22,4.31-36.8,10.14C168.08,496.69,165.35,498.33,162.57,499.88Z"/><path class="cls-3" d="M688.1,345.07l-.06,1.3c-11.3,6.15-23.63,9.58-35.75,13.55-23.31,7.64-47,13.95-70.57,20.68-6.1,1.75-11.81,5.1-18.23,5.36-4.55.18-6.32,2.54-7.57,6.3-5.52,16.59-15.49,31-23.1,46.57-5.14,10.51-11,20.65-16.55,31q-9.18,17.25-18.26,34.54c-3.73,7.09-7.38,14.22-11.05,21.34-.3.58-.4,1.28-1.18,1.47L485,527c3.09-7.2,6.26-14.36,9.73-21.39,5.57-11.27,11.06-22.58,16-34.16,4-9.35,8.28-18.54,12.37-27.83,8.32-18.88,16.72-37.72,24.79-56.7,2.38-5.6,6.34-8.05,12-8.69,4.5-.5,8.81-1.93,13.2-3,23.55-5.63,46.35-13.95,69.78-20,11.79-3,23.18-7.36,35-10.33a29.71,29.71,0,0,0,8.32-3.26l1,.11c0,.39-.1.78-.14,1.17a1,1,0,0,0,.5,1.49Z"/><path class="cls-3" d="M133.49,578.87l-.18-1.14c.7-1,.22-1.56-.6-2.07-.69-10.21-.61-20.33,2.59-30.24,2.46-7.65,7-14.15,11.73-20.37,18-23.6,42-34.62,71.69-32.42,5.2.39,10.53.95,15.64,4.19-6.89,4.53-13,9.27-21.14,10.44-5.64.81-11.36,0-16.95,1.54-13.33,3.72-24.36,11.13-33.88,20.92a80.21,80.21,0,0,0-20.31,36,4,4,0,0,0-1.15,2.32c-.92,3.07-1.72,6.18-2.8,9.19S135.67,580.67,133.49,578.87Z"/><path class="cls-5" d="M444.27,140.09a68.4,68.4,0,0,0-6.44-19.85,98,98,0,0,0-6-11c-1.32-2-2.27-4.08-1.3-6.78,4.27-11.82,8.3-23.73,12.48-35.58a126.09,126.09,0,0,1,9.74-21.75c.89-1.52,1.09-2.87,2.65-.18,3.31,5.68,4.5,11.91,5.48,18.19,1.2,7.66,1.17,15.43,1.59,23.17.4,7.25-2.32,13.07-6.78,18.38-1.91,2.28-3.86,4.52-5.78,6.8a7.39,7.39,0,0,0-1.33,1.88c-.35.87-1.06,2-.34,2.78s1.87.23,2.8-.09c3.75-1.32,6.66-3.82,9.35-6.64.41-.43.87-1.22,1.6-.59.46.4.18,1-.05,1.52-2.35,5.47-3.77,11.31-6.69,16.56A42,42,0,0,1,444.27,140.09Z"/><path class="cls-3" d="M338.18,500.27c-.91,6.51-3.94,11-8.94,14.18-9.71,6.12-20.12,6.07-30.64,2.72-19.79-6.29-33.68-30.34-29-50,2.06-8.65,6.95-15.18,15.16-19a13.78,13.78,0,0,1,1.85-.7c.16-.06.39.1.86.24a87.23,87.23,0,0,0-2.88,11.37c-4.06,19.21,14.94,48.71,40.68,45.54a21.16,21.16,0,0,0,6.23-1.42Z"/><path class="cls-3" d="M645.55,322a1.72,1.72,0,0,1-2,.63c-2.06.57-4,0-6.29-.24,1.52-2.82,1.18-5.82,1.78-8.65,1.4-3.93,2.58-8,4.27-11.76s2.7-8.08,4.41-12a53.22,53.22,0,0,0,14.56-2.26,38.18,38.18,0,0,1,19.9,2.16c-.65,1.07-3,.72-2.37,2.89s2.35,1.52,3.78,1.68c4,.44,7.59-1.87,12.22-1.56L693,290.61a22.36,22.36,0,0,1,8.68,1.56c2.69.9,3.5,3.17,3.67,5.71a25.24,25.24,0,0,1-1.19,8.45c-1.87,6.71-4.91,13-7.43,19.45a13.84,13.84,0,0,0-5.9-2.61c.82-2.6-.6-3-2.71-2.78.93-1.07,3.25-.26,3.33-2.48.07-1.78-.94-2.74-2.48-3.33,1.28-2.19.35-3-1.88-3-4.35,0-8.53,1.12-12.75,1.94-.64.13-1.32.58-1.87,0-.7-.67-.11-1.43.12-2.12.76-2.28,1.7-4.51,2.24-6.84.3-1.27.95-3.13-.61-3.9-1.77-.89-2.77.81-3.7,2a37.92,37.92,0,0,0-5.69,10,7.37,7.37,0,0,1-4.7,4.69c-4.83,1.78-9.5,4.05-14.7,4.61Z"/><path class="cls-3" d="M472.44,328.48c-4,15.85-8.06,31.7-12.42,47.47s-7.68,31.66-11.84,47.4c-1.82,6.89-3.37,13.83-5.25,20.7a1.15,1.15,0,0,0-.42,1.52c-.24.84-.47,1.69-.71,2.53a2.35,2.35,0,0,0-.71,2.66h0c-3.61-.13-.51,1.9-.91,2.8l-.34,1.3c-3.62.8-1.43,3-1.12,4.73-1.88,1.61-.79,3.93-1.34,5.89-4.87,17.27-9.89,34.52-14.09,52-2,8.34-4.09,16.7-5.82,25.13-1.53,7.44-5.15,14.33-6,22-.39,3.5-1.42,6.94-.75,10.51-1.28-.94-.88-2.35-1-3.61-.09-1-.32-2.11-1.58-2.07s-1.33,1.15-1.46,2.17c-.29,2.22.62,4.57-.75,6.67-1.56-3.3-1-6.73-.46-10.11,1.76-10.71,5.21-21,7.79-31.51,5.68-23.08,11.55-46.1,17-69.24,1.79-7.67,4.22-15.14,6.32-22.71,6.37-22.92,12.26-46,18.31-69,3.74-14.25,7.88-28.39,11.6-42.65,2.65-10.13,6.28-20,7.92-30.41a5.74,5.74,0,0,1,.7-1.46,1.35,1.35,0,0,0,.53-1.85l.06-.16c4.13-1.25,2.39,2.4,3.24,3.89-.05.28-.11.56-.16.85-.1.05-.28.09-.28.15a3.13,3.13,0,0,0,.09.59l-.25.7c-.92.39-.88,1.07-.54,1.84-.1.47-.21.95-.31,1.42-.1,0-.28.09-.28.13a3.63,3.63,0,0,0,.09.56c-.18.65-.36,1.3-.53,2-.58.27-.64.69-.35,1.21-.06.28-.13.55-.19.82l-.3.05.18.44c-.25.93-.51,1.86-.76,2.79-1.91,1.37-1.06,3.27-1,5-.09.37-.17.74-.26,1.11-.73.35-.72.92-.43,1.56l-.21,1a1.28,1.28,0,0,0-.24.12,3.68,3.68,0,0,0,.15.47c-.16.47-.33.93-.49,1.39A.78.78,0,0,0,472.44,328.48Z"/><path class="cls-3" d="M637.6,380.25l5.12-1.38c.79.2,1.54.25,2-.57l1.58-.45c.25.25.41.15.52-.13l1-.23c1.09.14,2.2.35,3-.75l1.76-.47a1.82,1.82,0,0,0,2.14-.6l3.65-1c2.36.53,5.12-1.2,7.16,1.23l-3.31,1.26a.78.78,0,0,0-1.12.4c-9.45,2.73-19.08,4.74-28.45,7.77-16.69,5.39-33.81,9.36-50.35,15.26-4,1.41-8.09,2.29-12.11,3.49a18.57,18.57,0,0,0-11.07,8.81c-7.2,12.19-13.81,24.71-20.52,37.18q-25.14,46.74-50.26,93.49c-6.42,12-12.65,24.09-18.9,36.17-1.47,2.85-3.53,4.77-6.76,5.26l-.21-.11-.12.19-3.59,1c-1.91-.93-4.09,1.19-6.07-.47,1.26-1.14,3.13,0,4.18-1.36a1,1,0,0,1,.57-.13,2.12,2.12,0,0,0,2.79-1,22.76,22.76,0,0,0,5.43-6.6c5.93-11.23,11.79-22.51,17.81-33.69,10.4-19.33,20.95-38.58,31.37-57.9,10-18.48,19.72-37.08,29.82-55.49C548.91,421.85,552.68,414,558,407c2.2-2.92,4.91-5.2,8.44-6,11.79-2.6,23.15-6.66,34.74-9.94,11.38-3.22,22.66-6.8,34-10.21.73-.22,1.5-.36,2.25-.54l.14.12Z"/><path class="cls-3" d="M347.63,318.41a31.48,31.48,0,0,1,11.89-3.57c10.32-1,19.59-5.31,29.11-8.84a83.31,83.31,0,0,0,8.6-3.94c1.91-1,3.07-.94,3.87,1.39,2.46,7.26,3.39,14.84,4.78,22.32a1.76,1.76,0,0,1-1.07,2.16c-9.54,4.18-17.73,10.81-27.31,15-1.89.82-2.27-.06-2.92-1.27C368.77,330.69,360.87,322.1,347.63,318.41Z"/><path class="cls-3" d="M227,316.58c.88,5.31,1.85,10.61,2.62,15.94,1.7,11.72,4.4,23.24,7,34.79.8,3.56,2.35,5.3,6.14,5.94,9.69,1.63,19.53,2.5,29.07,5,2.27.6,5.64.33,6.1,3.07.43,2.54-2.87,3.2-4.61,4.61-7.32,5.93-15.49,10.67-23,16.28-1.84,1.37-2.22,2.47-.85,4.59,7.67,11.9,15.32,23.81,23.68,35.24,1.61,2.2,2.17,3.91.36,6.44-1.67,2.33-2.39,1.75-3.69-.09-7.77-10.89-15.46-21.83-22.68-33.1-1.67-2.6-3.45-5.12-5.21-7.66-1.53-2.19-1.16-4,.69-5.88a70.26,70.26,0,0,1,11.35-9.16c3.54-2.3,6.75-5,10-7.62.74-.59,2-1.12,1.5-2.3-.38-1-1.59-1-2.56-1.18-7.29-1.44-14.72-1.68-22.08-2.61-8.77-1.1-8.66-1-10.44-9.61-2-9.82-4.86-19.52-6.32-29.42-1.08-7.37-2.33-14.87-1.47-22.43,0-.44-.11-1,.07-1.31.79-1.58,1.67-3.7,3.57-3.41C228.32,313,226.78,315.25,227,316.58Z"/><path class="cls-3" d="M544.07,347.18c-4.94,2.11-6.31,6.89-8,11.22-3.1,8.17-6.1,16.37-9.34,24.49-4.64,11.61-8.71,23.45-13.38,35.05-3.54,8.78-6.67,17.72-10,26.58-4.31,11.56-8.25,23.28-12.6,34.83-5.18,13.77-10.33,27.55-16.08,41.08-2.54,6-4.2,12.22-6.68,18.2-4.41,10.63-8.37,21.46-12.4,32.24-1.38,3.68-2.43,7.48-3.91,12.13a13.87,13.87,0,0,1,.51-7,210.94,210.94,0,0,1,7.61-21.59c8.25-20.15,14.06-41.15,21.62-61.55,5.23-14.1,10-28.39,14.91-42.6q11.64-33.45,23.26-66.91c3.22-9.26,6.62-18.46,9.69-27.77,2.34-7.11,6.73-11.22,14.44-11.25,1.87.12,3.73.23,5.46-.7h0l3.86.25C550.25,346.17,546.61,345.16,544.07,347.18Z"/><path class="cls-3" d="M147.11,593c-2.24-6-.3-12,.48-17.82,3.52-26,16.71-45.4,40.74-56.84A35.58,35.58,0,0,1,201,515.18c-23.2,15.45-37.62,36.16-39.77,64.45a20.86,20.86,0,0,0-1.12,6.44c-.17,2.65-1.37,4.3-4,5a8.51,8.51,0,0,0-4.48,2.58C149.9,595.64,148.2,596.18,147.11,593Z"/><path class="cls-3" d="M264.39,493.78q-12.24,10.65-25.48,20c-9.76,6.9-19.88,13.08-31.06,17.41-8.17,3.18-15,8.34-21.3,14.31a16.31,16.31,0,0,1-4.39,3.22c-.89-2.29.68-4.48-.2-6.56a87.67,87.67,0,0,1,37.65-28.92c9.67-4,17.65-10.43,25.76-16.73,5-3.87,9.86-7.84,14.74-11.82,1.37-1.12,2-1.09,2.36.78C263,488.29,263.74,491,264.39,493.78Z"/><path class="cls-3" d="M541.27,364c-1.61.17-1-1-.82-1.93,1.08-6.23,4.37-9.34,10.92-10.29,16.52-2.41,33.06-4.79,49.31-8.65,13.93-3.3,27.91-6.69,41.47-11.22C653.57,328,665,324.34,676.58,321c1.92-.55,4.82-2,5.6.32.7,2.08-2.39,3.12-4.29,3.65-14.18,4-27.72,9.76-41.75,14.17-12.55,4-25.37,6.92-38.06,10.34-11.43,3.08-22.72,6.71-34.17,9.71C556.54,361.13,549,362.36,541.27,364Z"/><path class="cls-3" d="M535.52,582.94c3.26,6.2,9,8.53,15.39,9.71a50.2,50.2,0,0,0,29.59-2.95c.55-.23,1.09-.83,2.19-.21a20.86,20.86,0,0,1-7.24,7.8c-10.9,7.18-22.87,8.45-35.41,5.47s-23.1-14.46-25.08-27.2c-.19-1.25.06-1.86,1.29-2.14,4.13-.92,7.85-2.93,11.78-4.38.41,3.41,3.13,5.81,4,9.06a1.43,1.43,0,0,0,1.5,1v.22C533.47,582.28,533.82,582.91,535.52,582.94Z"/><path class="cls-3" d="M430.83,557.56c6.14-.86,12.32-.7,18.49-.69,1.93,0,2.12.89,1.69,2.56-1,3.91-2.66,7.6-3.28,11.65-.69,4.57-2.31,9-2.32,13.7,0,2.89-1.6,3.72-3.79,2.06-6.41-4.86-13.62-8.18-20.92-11.36-4.51-2-4.64-2.45-2.89-7.26a14,14,0,0,0,1.14-2.34c1.09-4.14,2.71-5.7,6.85-6.22,4.64-.6,9.3-1.12,13.43-1.62Z"/><path class="cls-6" d="M594.23,485.31c-1.89-6,2.08-14.62,7.87-16.75,6.1-2.24,11.95-5.15,18-7.49A127.71,127.71,0,0,1,644,454.76c1.46-.26,2.85-.33,1.56,2-3.36,5.92-6.67,11.89-9.84,17.92-1.74,3.32-4.19,5.47-7.94,6-4.71-4.37-9.95-7.3-16.7-6.21a11.93,11.93,0,0,0-5,1.72C602,479,597.3,481.12,594.23,485.31Z"/><path class="cls-3" d="M609.76,323.14c3-1.25,6.08-.59,9.12-.67,1.57,0,1.48,1.1.76,2a6.16,6.16,0,0,1-3.42,2.48c-7.41,1.78-14.88,3.27-22.53,3.3-2.35,0-4.61.51-6.91.71-1.63.15-2.47,1-2.17,2.65.25,1.31.62,2.29,2.53,2.3a132,132,0,0,0,16.87-.75c-7.21,2.11-14.76,2.27-22.08,3.78-.2,0-.49-.28-1.06-.62,6.2-1.81.61-5.07,1.17-6.5.56,3.67-3.9,2.63-5.84,3-8.26,1.5-16.45,4.34-25.07,2.81.39-2.24-1.34-1.82-2.54-2-2.82-.3-3.89-1.73-3.06-4.49a2.06,2.06,0,0,0,.07-.32c1.6-7.65,1.84-7.81,9.47-7a97.54,97.54,0,0,0,22.72.06c1.26-.17,2.64-.55,3.77.51,2.78.81,5.28,2.53,8.3,2.54,8.42,0,16.77-.59,24.93-2.9a16.66,16.66,0,0,0-2.63-.16C611.29,323.87,610.37,324,609.76,323.14Z"/><path class="cls-4" d="M265.12,274.8c26.65,14.82,53.87,27.69,84,36.05a6.52,6.52,0,0,1-5.53,1c-17.62-3.2-35.33-6.17-51.75-13.84-8.43-3.93-16.25-9-24.09-14C264.19,281.77,264.62,278.61,265.12,274.8Z"/><path class="cls-3" d="M371.25,519.19c4.24-3.31,7.11-7.74,9.68-12.33,3.78-6.76,7.41-13.6,11-20.46,1.14-2.19,2.52-3.75,5.05-4.3,7.5-1.64,10.8-8,14.56-13.62,1.56-2.31,3.24-3.3,6.37-4.11-16.77,24.93-32.53,49.76-52,73-.63-3.87.66-6.32,1.6-8.85,1.17-3.17,3.52-5.87,3.77-9.4Z"/><path class="cls-4" d="M270.19,597.53c-3.21,0-5.94,1.43-8.72,3.09-.48-1.83,1.23-2.22,1.83-3.24,5-8.46,11.55-15.88,16.15-24.57,5.51-10.44,12-20.37,16.42-31.4,1.76-4.37,5-8.07,5.79-12.93.31-2,2.37-.64,3.26-1.58,4.38-.13,4.59,0,2.85,3.77-9.87,21.55-19.63,43.16-33.93,62.3a1.16,1.16,0,0,0-1,1.37l-.42.57a.91.91,0,0,0-.8,1l-.78.94a.64.64,0,0,0-.63.74Z"/><path class="cls-3" d="M316.91,354.21c1.16,3.05,2,5.32,2.89,7.57A24.63,24.63,0,0,0,327.92,373c1.36,1,1.59,1.81.17,3-1.27,1-2.22,2.48-3.54,3.43-6.05,4.38-10.12,10.42-14.21,16.69-4-5.32-6.43-11.4-9.38-17.19-.66-1.3-.3-2.25,1.09-2.95a14,14,0,0,0,5.66-5.91C310.61,365,314.52,360.59,316.91,354.21Z"/><path class="cls-3" d="M437.74,239.18a22.66,22.66,0,0,1,.37,10.38c-2.26,11.83-8.51,20.9-19.57,26.17a16.85,16.85,0,0,1-15.06-.27c-1.71-.81-2.08-1.7-1-3.33a23.3,23.3,0,0,0,3.82-6.94c.41-1.45,1.73-1.16,2.74-1.41,10.78-2.68,19.45-8.23,25-18.14C435.25,243.6,435.35,241,437.74,239.18Z"/><path class="cls-3" d="M556.3,398.44c1.76-5,4.58-8,10.26-8.19,6.47-.23,12.2-3.7,18.23-5.79,10.67-3.7,21.69-6.17,32.49-9.42,21.92-6.59,44-12.8,65.52-20.52a67.36,67.36,0,0,1,8-2.11c.63-.14,1.74-1.25,2.07.38.2,1,.21,2.06-1,2.56a54.26,54.26,0,0,1-5.23,2.09c-19.11,6-38.12,12.21-57.36,17.74-16.88,4.86-33.88,9.35-50.61,14.69C571.14,392.28,563,393.41,556.3,398.44Z"/><path class="cls-3" d="M425.74,411c-.42,6.72-3.51,12-8.57,16.37-1.48,1.27-2,.23-2.76-.84A75.56,75.56,0,0,0,399.86,411c-1-.82-2.15-1.54-3.23-2.3-.6-.43-1.67-.66-1.36-1.61s1.32-.56,2.06-.61c7.84-.53,15.72-.59,23.39-2.6a2.64,2.64,0,0,1,2.92,1.05A8.22,8.22,0,0,1,425.74,411Z"/><path class="cls-3" d="M272.74,22.87c.28.63.18.95-.6,1.11-9.69,2-16,8.71-21.46,16.17a207.91,207.91,0,0,0-22,38.15,96.08,96.08,0,0,0-7.56,25.33c-.63,4.36-2.63,8.45-2.6,13,0,.13-.55.27-.84.41,0-.53-.11-1.06-.16-1.59a7.44,7.44,0,0,0,.05-3.89,95.25,95.25,0,0,1,6-30.31c6-15.52,13.33-30.57,24.51-43.3a82.59,82.59,0,0,1,12.19-11.22c2.55-1.93,5.54-2.43,8.43-3.33A1.43,1.43,0,0,0,270.4,23Z"/><path class="cls-3" d="M409.62,234.52c-6.95-.39-13.26-.6-19.49-1.64a9.69,9.69,0,0,1-2.23-.54c-1.75-.78-2.53-1.6-.41-3.12a27.06,27.06,0,0,1,11.74-4.28,57.83,57.83,0,0,1,24.69,1.32c2.49.68,6.17,1.38,6,4.23-.11,2.5-3.87,2.29-6.13,2.81A66.65,66.65,0,0,1,409.62,234.52Z"/><path class="cls-3" d="M395.79,177.52a21.08,21.08,0,0,1,5-15.29c4.8-5.65,11.51-5.26,15.86.84,3.1,4.34,3.79,9.34,4,14.47.35,8.38-2,16.09-5.91,23.39,1.39-5.29,3.25-10.48,2.93-16.07a40.48,40.48,0,0,0-.33-4.28c-.75-4.47-2.35-8.49-7.3-9.62s-9,1-12.41,4.53c-.65.67-.74,1.83-1.83,2.1Z"/><path class="cls-3" d="M147.11,593c1.09,3.19,2.79,2.65,4.55.64a8.51,8.51,0,0,1,4.48-2.58c2.59-.68,3.79-2.33,4-5a20.86,20.86,0,0,1,1.12-6.44c-.41,9,.28,17.88,3.25,26.51,1.34,3.91,3.95,7.13,5.54,11C159.48,616.66,147.81,609.08,147.11,593Zm2,4.38c-.08,0-.19,0-.22,0a.59.59,0,0,0-.05.27l.37-.07Z"/><path class="cls-3" d="M419.84,319.15a14.82,14.82,0,0,1,7.57,8c3.41,7.81,6.91,15.59,9.91,23.56,2.4,6.38,5.62,12.39,8,18.77a16.27,16.27,0,0,1,.4,11.21c-3.5-3.47-5-7.57-6.69-11.38a201.86,201.86,0,0,1-10.76-29.59C426.36,332.75,423.2,326.18,419.84,319.15Z"/><path class="cls-6" d="M506.3,403c-8.79-1.92-17.83-1.38-26.67-2.75-4.8-.74-4.82-.6-3.58-5.12,1.56-5.62,1.58-5.78,7.29-4.89a188,188,0,0,1,25.21,5.53Z"/><path class="cls-6" d="M499.78,421.6c-8.62-1.31-17.39-1.23-26-2.69-3.77-.64-3.87-.64-2.71-4.34,1.92-6.1,2-6.27,8.27-5,7.68,1.52,15.6,1.62,23.13,4C501,416.06,500.84,419,499.78,421.6Z"/><path class="cls-6" d="M511.58,387.86c-.14-2-1.74-1.66-3-1.85-7.76-1.18-15.64-1.49-23.35-3a7.14,7.14,0,0,1-1.63-.33c-1.57-.73-4.4,0-3.8-3.32.8-4.41,1.69-5.4,5.34-5a249.78,249.78,0,0,1,29.14,4.6Z"/><path class="cls-3" d="M279.86,624.47c8,0,15.91,0,23.87,0,1,0,2.46-.44,2.76,1.08.33,1.74.44,3.56-.89,5a1.31,1.31,0,0,1-1.15.34c-4.95-2.25-10.2-1.3-15.32-1.41-10.93-.23-21.86-.17-32.8-.23a5.79,5.79,0,0,1-1.32-.1c-1.4-.4-2.41-1.25-2.26-2.81s1.53-1.36,2.57-1.36c8.18,0,16.36,0,24.54,0Z"/><path class="cls-3" d="M373.14,552.42c.08-5.41,3.95-9.74,8.76-9.79,4,0,8.5,5.27,8.45,10-.06,5.15-4.14,9.51-8.79,9.39C376.68,561.87,373.07,557.76,373.14,552.42Z"/><path class="cls-6" d="M493.48,438.32c-6-.68-11.87,1-17.84.61-2.75-.18-5.52-.1-8.29-.11-1.45,0-2-.59-1.57-2.07a37.16,37.16,0,0,0,1.25-5.46c.35-2.93,1.82-3.42,4.53-3,8.17,1.2,16.35,2.49,24.65,2.4C494.62,433,494.85,435.93,493.48,438.32Z"/><path class="cls-6" d="M406.51,381.58a3,3,0,0,1-1.92-2.85c.15-.28.45-.57.45-.85-.14-7.54,2-8,8.82-8.29,4-.19,8.18-.9,12,1.24,4.47,2.51,4.83,5.13.53,7.75-5.9,3.58-12.33,5.26-19.25,3l.05.08Z"/><path class="cls-3" d="M381.45,605c-4.56-.05-8.13-4.06-8.11-9.1,0-5.4,4-9.84,8.77-9.72,4.2.11,8.22,4.63,8.23,9.27C390.36,600.75,386.39,605,381.45,605Z"/><path class="cls-3" d="M371.3,519.13c-1.92,1.67-3.4,1.3-5.11-.6-6.5-7.23-13.16-14.33-19.76-21.47-.62-.67-1.41-1.26-.08-2a10.37,10.37,0,0,0,3.64-4.21c.95-1.7,2.07-1.64,3-.15,5.15,8.24,11.91,15.31,17.15,23.49a7.83,7.83,0,0,1,1.11,5Z"/><path class="cls-3" d="M390,640.2c-.05,4.52-4.28,9.27-8.27,9.3-4.52,0-8.59-5-8.49-10.54a8.33,8.33,0,0,1,8.18-8.36C386.12,630.64,390.06,635,390,640.2Z"/><path class="cls-6" d="M482.87,470.76c.17-2-.79-2.58-2.72-2.69-5.73-.31-11.46-.78-17.18-1.33-1.53-.15-4,.69-4-2.17,0-3.2,2.08-6.09,4.44-6.06,3,.05,5.91.62,8.86.7,4.74.13,9.51-.45,14.18.86C484.51,463.38,484.5,467.34,482.87,470.76Z"/><path class="cls-6" d="M477.71,484.17c-6.56-1.19-13.28-.45-19.81-1.67-1.5-.29-4.31.74-4.07-2.44.3-4,1.84-5.3,5.13-5.11,7.39.42,14.8.71,22.2,1.05Z"/><path class="cls-6" d="M525.22,349A64,64,0,0,1,533,322.24c1.08-2,2-5.55,5.37-4.07,3,1.33,1.19,4.29.8,6.54-.69,4-3.08,7.27-4.65,10.9-.6,1.38-1.56,2.73-1,4.39C529.82,342.13,527.9,345.93,525.22,349Z"/><path class="cls-3" d="M458.74,24.09c-2.77.59-5.56,1.14-8.32,1.79-6.62,1.54-11.39,5.88-16.2,10.37s-9,9.52-14.65,12.89c-2.05,1.21-3.79,1.13-5.07-1.11a153.29,153.29,0,0,1,26.12-20.68C446.23,23.88,452.21,22.44,458.74,24.09Z"/><path class="cls-3" d="M671.26,374.2l-1.14.32c-.62-.44-1.55.24-2.13-.63,1.53-2.09,4.08-2.74,6-4.2a.64.64,0,0,1,.42-.15l.23.1.14-.21,3.8-1.14c.79.2,1.51.2,2-.65l2-.67.15.12.08-.17c10.68-3.14,21.25-6.69,32.07-9.37a5,5,0,0,1,1.27-.31c1.33.06,3.53-.92,3.78.56.31,1.79-1.57,3.11-3.48,3.23-6.94.41-13.37,2.85-19.88,4.91-8,2.52-15.88,5.22-23.81,7.84A1.14,1.14,0,0,0,671.26,374.2Z"/><path class="cls-3" d="M478.89,303c-.85-1.49.89-5.14-3.24-3.89A129.25,129.25,0,0,1,483,271.27a2.65,2.65,0,0,0,2.21-2.18c.18-2.51,1.86-3.75,3.5-5.13-.4,5.86-2.3,11.37-3.8,17-1.64,6.15-3.08,12.36-4.64,18.54C480,300.71,480.05,302.13,478.89,303Z"/><path class="cls-6" d="M552.63,569c-4.6,1.28-9.16,3.41-13.91.34-1.34-.88-1.91.06-2.21,1.36a28.39,28.39,0,0,0,.07,11.79c-.39-.15-.92-.18-1.16-.47-3-3.61-.82-13.44,3.16-15.84,3.29-2,6.22-4.55,9.78-6.12a10.25,10.25,0,0,1,4.1-1.36c.51,2.86-.33,5.54-.58,8.26C551.8,567.74,551.2,568.71,552.63,569Z"/><path class="cls-6" d="M579.49,502.53c-1.92-2.19-1.3-3.92,1-5.32a16.54,16.54,0,0,1,9.76-2.13c1.86,1.14,2.68,3.12,3.9,4.78,1.44,1.95.64,3.39-.71,4.95-1.49,1.72-3.6,2.76-5.2,1.41C585.6,504,582.26,504.05,579.49,502.53Z"/><path class="cls-6" d="M609.8,490.88c-1.54-1.55-1.57-2,.1-3.26a15.47,15.47,0,0,1,7.37-2.55c1-.14,1.92-.33,2.88-.49,2.08,1,3.32,2.79,4.65,4.54,1.11,1.46,1.49,3,.37,4.56a4.45,4.45,0,0,1-4.76,2.09c-3.51-.57-6.6-2.29-10-3.18l.06.06Z"/><path class="cls-3" d="M215.62,126.56c1.07,1.76.54,3.48-1.11,4.12-3.22,1.25-3.76,3.58-3.59,6.53a4.46,4.46,0,0,1-.5,3.17h0a1.68,1.68,0,0,0-.64-2.15,75.8,75.8,0,0,1-1.92-32.3c1.45,3.14,1.34,6,2,8.63,1,4.13,1,8.74,4.81,11.72A2.79,2.79,0,0,0,215.62,126.56Z"/><path class="cls-7" d="M444.42,238c1.21,2,3.08,1.87,5,1.53a28.4,28.4,0,0,0,13.13-5.82,5.24,5.24,0,0,1,3.89-1.4c-4.69,7.2-11.81,11-19.49,14.06-1.45.57-2-.08-1.94-1.57A19.53,19.53,0,0,0,444.42,238Z"/><path class="cls-3" d="M405.92,578.24c1.37-2.1.46-4.45.75-6.67.13-1,.19-2.13,1.46-2.17s1.49,1,1.58,2.07c.12,1.26-.28,2.67,1,3.61,1.06,3.18,4,4.52,6.29,6.56-.82.73-2.18.22-3.06,1.46,2.22,1.48,4.24,3.18,5.15,5.79C413.14,587.26,408.41,584.15,405.92,578.24Z"/><path class="cls-6" d="M554.91,518.17c-.57-2.16,1-2.74,2.5-3.09,2.33-.54,4.71-.85,7.07-1.25,2.29,1.44,4.27,3.26,4.74,6a4,4,0,0,1-2.11,4.18c-1.9.71-4-.35-5.22-2C560.08,519.65,557.52,518.93,554.91,518.17Z"/><path class="cls-3" d="M649.21,515.47c-1.71-5.4-2.85-10.34-5.78-14.54-.55-.78-.25-1.46.55-1.92,1.9-1.08,2.71-3.13,4.3-5C651.71,501,652.4,507.75,649.21,515.47Z"/><path class="cls-3" d="M131.25,465.17c1.47,6.43.39,12.95.63,19.42-.95,1-1,2.72-2.95,3.39-1.14-4.58-.7-9.2-1-13.74.07-2.2.24-4.4.19-6.59,0-1.95.77-2.86,2.67-2.91A.67.67,0,0,1,131.25,465.17Z"/><path class="cls-6" d="M517.7,368.47l-7.2-.94c-1.73-.22-2.41-.86-1.95-2.86,1.3-5.71,1.19-5.74,7.09-4.48,1.4.29,2.78.64,4.17,1C519.27,363.64,519,366.21,517.7,368.47Z"/><path class="cls-3" d="M133.49,578.87c2.18,1.8,3.56,1.41,4.64-1.62s1.88-6.12,2.8-9.19a4,4,0,0,1,1.15-2.32c-2.3,9.67-2.57,19.49-2.23,29.43C136.93,590,134.3,584.78,133.49,578.87Z"/><path class="cls-3" d="M558.18,341.34a.74.74,0,0,1,.5-.22c1.39.16,2.13-.44,2.18-1.85,4.42-1.54,8.9-2.69,13.64-2.32.59,1.09,1.42.93,2.32.44L578,338c0,.4.15.48.49.34,2.15.46,1.48,1.21.11,1.77a28.19,28.19,0,0,1-7.36,1.73q-5.57.66-11.14,1.28C559.2,342.81,557.78,343.07,558.18,341.34Z"/><path class="cls-4" d="M455.56,622.62c4.75,6.55,10.2,11.75,16.23,17C461.88,638,452.75,631.38,455.56,622.62Z"/><path class="cls-3" d="M419.09,588.89c-.91-2.61-2.93-4.31-5.15-5.79.88-1.24,2.24-.73,3.06-1.46,6.57,2,12.37,5.66,18.46,8.71.72.37,1.91.61,1.57,1.73-.25.83-1.29.68-2,.72a4.11,4.11,0,0,0-3.16-.44l-.8-.28c.1-1.21-.26-2.46-1.49-2.58-3.44-.33-6.82-2-10.35-.58Z"/><path class="cls-3" d="M693,290.61l2.75,2.27c-4.63-.31-8.19,2-12.22,1.56-1.43-.16-3.17.46-3.78-1.68s1.72-1.82,2.37-2.89A45.62,45.62,0,0,1,693,290.61Z"/><path class="cls-3" d="M474.14,536.18c.19.53,0,1.25.76,1.49-2.1,5.67-4.25,11.32-6.3,17s-4,11.42-6,17.16C461.36,569,467.89,548.89,474.14,536.18Z"/><path class="cls-3" d="M690.86,323.17a13.84,13.84,0,0,1,5.9,2.61c-.08.4-.15.8-.23,1.2a.6.6,0,0,0-.31.87c-1.43,3.19-4.78,3.15-7.39,4.27-1.16.5-1.33-.9-1-1.36C689.67,328.52,689.16,325.41,690.86,323.17Z"/><path class="cls-3" d="M430.83,557.56l8.4.48c-4.13.5-8.79,1-13.43,1.62-4.14.52-5.76,2.08-6.85,6.22a14,14,0,0,1-1.14,2.34l.12-1.77a1.18,1.18,0,0,0,.35-1.65c.07-1,.1-1.95.23-2.92.34-2.62,1.3-4.44,4.49-4.23C425.6,557.83,428.22,557.61,430.83,557.56Z"/><path class="cls-3" d="M296.86,384.28c4,5.9,8,11.81,8.67,19.34L296,384.7Z"/><path class="cls-3" d="M674,369.69c-2,1.46-4.52,2.11-6,4.2.58.87,1.51.19,2.13.63l-4.52,1.42c-2-2.43-4.8-.7-7.16-1.23C663.53,372.7,668.56,370.49,674,369.69Z"/><path class="cls-3" d="M488.73,264c-1.64,1.38-3.32,2.62-3.5,5.13a2.65,2.65,0,0,1-2.21,2.18c1-4.72,1.5-9.64,6.2-13C489.87,260.64,489.13,262.28,488.73,264Z"/><path class="cls-6" d="M471,501.42c-4.85-2.77-11.57-2.32-17.17-4.18a82.71,82.71,0,0,1,19-.13A9.32,9.32,0,0,1,471,501.42Z"/><path class="cls-3" d="M689,314.58c1.54.59,2.55,1.55,2.48,3.33-.08,2.22-2.4,1.41-3.33,2.48l-3.11.78C685.62,318.26,687.25,316.39,689,314.58Z"/><path class="cls-3" d="M419.18,588.92c3.53-1.39,6.91.25,10.35.58,1.23.12,1.59,1.37,1.49,2.58A40.54,40.54,0,0,1,419.18,588.92Z"/><path class="cls-3" d="M558.18,341.34c-.4,1.73,1,1.47,1.93,1.76a50.08,50.08,0,0,1-16,4.08c2.54-2,6.18-1,9.1-3.32l-3.86-.25Z"/><path class="cls-3" d="M639,313.72c-.6,2.83-.26,5.83-1.78,8.65,2.24.26,4.23.81,6.29.24-2.62,1.22-5.24,2.47-8.57,2.71C637.63,321.57,636.91,317.18,639,313.72Z"/><path class="cls-3" d="M485,527l.78.15a34.71,34.71,0,0,1-7.06,12.25C480.05,534.88,483.46,531.42,485,527Z"/><path class="cls-2" d="M566.19,494.82c-.73,2.4-1.53,4.78-2.18,7.21-.38,1.44-1.19,1.66-2.44,1.32a22.86,22.86,0,0,1-3.41-1.07c4.57-.76,5-5.31,7.73-7.78Z"/><path class="cls-3" d="M533.48,579.11a1.43,1.43,0,0,1-1.5-1c-.82-3.25-3.54-5.65-4-9.06.6-.69,1.66-.92,1.88-.14C530.9,572.38,533.79,575.2,533.48,579.11Z"/><path class="cls-3" d="M662.25,287.71A53.22,53.22,0,0,1,647.69,290c.28-1.26,1.3-1.44,2.29-1.34C654.13,289.06,658.13,287.65,662.25,287.71Z"/><path class="cls-6" d="M456.94,584.26c-1.05,1.35-2.92.22-4.18,1.36,2,1.66,4.16-.46,6.07.47a8,8,0,0,1-6.19,1.11c-.9-.15-1.72-.5-1.71-1.61s.81-1.36,1.79-1.34C454.12,584.29,455.53,584.26,456.94,584.26Z"/><path class="cls-3" d="M253.7,249.92a20,20,0,0,1,6.92.47c-2.37,2.07-4.72,2.13-7.05,2.24C253.85,251.74,254.86,250.88,253.7,249.92Z"/><path class="cls-6" d="M130.8,464.74c-1.9.05-2.72,1-2.67,2.91.05,2.19-.12,4.39-.19,6.59-1-4.16-.62-8.35-.55-13C129.14,462.35,130.32,463.2,130.8,464.74Z"/><path class="cls-3" d="M438.72,459.6c-.31-1.74-2.5-3.93,1.12-4.73A13.81,13.81,0,0,1,438.72,459.6Z"/><path class="cls-6" d="M116.6,408.82c0,2.91,0,5.82,0,8.73A20.4,20.4,0,0,1,116.6,408.82Z"/><path class="cls-3" d="M474.34,321.56c-.1-1.75-.95-3.65,1-5A7.91,7.91,0,0,1,474.34,321.56Z"/><path class="cls-3" d="M573.93,485.05l.84,1a5.34,5.34,0,0,1-3.51,2C572.07,486.6,572.71,485.58,573.93,485.05Z"/><path class="cls-2" d="M543.81,338.4c1.86-.74,3.74-1.3,5.76-.63C547.73,338.77,545.76,338.45,543.81,338.4Z"/><path class="cls-3" d="M440.18,453.57c.4-.9-2.7-2.93.91-2.8A3.59,3.59,0,0,1,440.18,453.57Z"/><path class="cls-2" d="M543.55,344.31l5.72-.7c-1.86-.06-3.72-.18-5.46.7"/><path class="cls-2" d="M560.86,339.27c-.05,1.41-.79,2-2.18,1.85C558.51,339.45,559.23,338.82,560.86,339.27Z"/><path class="cls-3" d="M650.89,376.74c-.79,1.1-1.9.89-3,.75A3.62,3.62,0,0,1,650.89,376.74Z"/><path class="cls-2" d="M576.82,337.39c-.9.49-1.73.65-2.32-.44C575.41,336.37,576.26,336.1,576.82,337.39Z"/><path class="cls-6" d="M460.3,583.15a2.12,2.12,0,0,1-2.79,1A5.58,5.58,0,0,1,460.3,583.15Z"/><path class="cls-6" d="M217.55,111.52a7.44,7.44,0,0,1-.05,3.89A5.23,5.23,0,0,1,217.55,111.52Z"/><path class="cls-3" d="M132.71,575.66c.82.51,1.3,1.11.6,2.07A1.88,1.88,0,0,1,132.71,575.66Z"/><path class="cls-3" d="M431.82,592.36a4.11,4.11,0,0,1,3.16.44A3,3,0,0,1,431.82,592.36Z"/><path class="cls-3" d="M644.77,378.3c-.51.82-1.26.77-2,.57A1.91,1.91,0,0,1,644.77,378.3Z"/><path class="cls-3" d="M680.58,367.64c-.44.85-1.16.85-2,.65A1.91,1.91,0,0,1,680.58,367.64Z"/><path class="cls-3" d="M654.79,375.67a1.82,1.82,0,0,1-2.14.6A1.94,1.94,0,0,1,654.79,375.67Z"/><path class="cls-3" d="M441.09,450.76a2.35,2.35,0,0,1,.71-2.66A2.7,2.7,0,0,1,441.09,450.76Z"/><path class="cls-6" d="M253.58,252.62c-.26,1.12-1.15.71-1.85.76Z"/><path class="cls-3" d="M475.59,299.31a1.35,1.35,0,0,1-.53,1.85C474.94,300.46,474.85,299.77,475.59,299.31Z"/><path class="cls-3" d="M477.75,307.17c-.34-.77-.38-1.45.54-1.84A1.38,1.38,0,0,1,477.75,307.17Z"/><path class="cls-3" d="M473.65,324.23c-.29-.64-.3-1.21.43-1.56C474.28,323.29,474.39,323.88,473.65,324.23Z"/><path class="cls-3" d="M671.26,374.2a1.14,1.14,0,0,1,1.48-.42A1.14,1.14,0,0,1,671.26,374.2Z"/><path class="cls-6" d="M209.78,138.23a1.68,1.68,0,0,1,.64,2.15A2.08,2.08,0,0,1,209.78,138.23Z"/><path class="cls-6" d="M555.21,521.2a1.22,1.22,0,0,1-.37-1.56A1.36,1.36,0,0,1,555.21,521.2Z"/><path class="cls-3" d="M661.17,377.6a.78.78,0,0,1,1.12-.4A.79.79,0,0,1,661.17,377.6Z"/><path class="cls-3" d="M687.16,341.8l-1-.11a.72.72,0,0,1,1-.57C687.52,341.25,687.48,341.55,687.16,341.8Z"/><path class="cls-3" d="M442.51,445.57a1.15,1.15,0,0,1,.42-1.52A1.34,1.34,0,0,1,442.51,445.57Z"/><path class="cls-3" d="M472.44,328.48a.78.78,0,0,1,.42-1.24A.83.83,0,0,1,472.44,328.48Z"/><path class="cls-3" d="M536.61,582.46c.64-.25,1.08.09,1.49.52C537.45,583.25,536.89,583.27,536.61,582.46Z"/><path class="cls-6" d="M418.28,564.8a1.18,1.18,0,0,1-.35,1.65A1.43,1.43,0,0,1,418.28,564.8Z"/><path class="cls-3" d="M687.52,344.46A1,1,0,0,1,687,343,1.38,1.38,0,0,1,687.52,344.46Z"/><path class="cls-6" d="M270.4,23a1.43,1.43,0,0,1-1.73.36A1.72,1.72,0,0,1,270.4,23Z"/><path class="cls-2" d="M567.27,492.57c.05.57,0,1.09-.64,1.34l0,0a.92.92,0,0,1,.65-1.35Z"/><path class="cls-6" d="M272.82,594.34a1.16,1.16,0,0,1,1-1.37A1.69,1.69,0,0,1,272.82,594.34Z"/><path class="cls-3" d="M476.37,312.44c-.29-.52-.23-.94.35-1.21C477,311.74,477,312.18,476.37,312.44Z"/><path class="cls-3" d="M646.87,377.72c-.11.28-.27.38-.52.13C646.46,377.56,646.63,377.49,646.87,377.72Z"/><path class="cls-6" d="M696.22,327.85a.6.6,0,0,1,.31-.87A.6.6,0,0,1,696.22,327.85Z"/><path class="cls-3" d="M473.35,325.85a3.68,3.68,0,0,1-.15-.47,1.28,1.28,0,0,1,.24-.12,3.74,3.74,0,0,1,.12.45S473.42,325.81,473.35,325.85Z"/><polygon class="cls-6" points="682.79 366.92 682.71 367.09 682.57 366.97 682.64 366.76 682.79 366.92"/><path class="cls-3" d="M645.55,322h0Z"/><path class="cls-6" d="M578.5,338.32c-.34.14-.53.06-.49-.34C578.48,337.65,578.54,337.91,578.5,338.32Z"/><polygon class="cls-6" points="637.6 380.25 637.52 380.41 637.38 380.29 637.46 380.08 637.6 380.25"/><polygon class="cls-6" points="462.42 585.11 462.55 584.92 462.75 585.03 462.62 585.26 462.42 585.11"/><path class="cls-6" d="M476.06,313.75l-.18-.44.3-.05.11.28Z"/><path class="cls-2" d="M567.32,492.61l.22-.46c.36.43,0,.37-.27.42Z"/><path class="cls-6" d="M493,440.28l.34-1Z"/><path class="cls-2" d="M566.63,493.91l-.44.9-.3-.31c.1-.4.25-.75.78-.55Z"/><path class="cls-6" d="M590,494.74l-.84-.78C589.69,493.9,589.93,494.19,590,494.74Z"/><polygon class="cls-6" points="674.83 369.43 674.69 369.64 674.46 369.54 674.6 369.28 674.83 369.43"/><path class="cls-6" d="M271.6,595.87a.91.91,0,0,1,.8-1A1.06,1.06,0,0,1,271.6,595.87Z"/><polygon class="cls-6" points="294.48 380.77 294.42 380.56 294.59 380.58 294.48 380.77"/><path class="cls-6" d="M270.19,597.55a.64.64,0,0,1,.63-.74A.69.69,0,0,1,270.19,597.55Z"/><path class="cls-6" d="M593.63,487.18c.14-.24.27-.48.41-.71C594.29,486.92,594.15,487.15,593.63,487.18Z"/><path class="cls-3" d="M478.54,304.63a3.13,3.13,0,0,1-.09-.59c0-.06.18-.1.28-.15C479,304.22,478.91,304.46,478.54,304.63Z"/><path class="cls-6" d="M466.56,232.24l.43-.8C467.14,231.87,467,232.11,466.56,232.24Z"/><path class="cls-3" d="M395.85,177.59l-.28.19.22-.26Z"/><path class="cls-3" d="M477.25,309.28a3.63,3.63,0,0,1-.09-.56s.18-.09.28-.13C477.65,308.9,477.6,309.13,477.25,309.28Z"/><path class="cls-2" d="M298.73,181.56c.44-9.6,3.53-19.63,13.52-26.34,14.66-9.86,32.6-2,35.83,12.76a48,48,0,0,1-3,29.18c-3.1,7.33-9.31,11.28-17.1,11.9C310.3,210.48,298.93,202,298.73,181.56Zm42.83-10.16a15.13,15.13,0,0,0-.27-2,15.72,15.72,0,0,0-21.61-10.35c-9.35,4-13.46,11.53-14.19,21.37-.76,10.38,3.14,18.5,11.42,24.62.6.45,1.31.92,2.16,0A32.25,32.25,0,0,1,316.81,189C318,177.26,329.53,167,341.56,171.4Z"/><path class="cls-2" d="M306.67,137.7a9.38,9.38,0,0,1,2.94-6.13c8-8.55,22.41-10.41,32.26-4.11,2.66,1.7,4.83,3.83,5.74,7,.55,1.95.49,3.9-1,5.25a5,5,0,0,1-5.45.69c-4.56-1.78-9.21-3.27-14.17-3.41-5.54-.15-10.41,2.13-15.35,4.19C308.19,142.63,306.51,141.36,306.67,137.7Z"/><path class="cls-2" d="M288.35,75.83c-.51,12.41-3,26.07-8.81,38.93-3.77,8.28-9.67,15.26-14.64,22.8-1.94,2.93-3.8,5.9-5.69,8.86a6.18,6.18,0,0,0-.63,3.2,40.92,40.92,0,0,1-.5,4.94c-.19,1.07-.57,2.28-1.86,2.49s-1.87-1-2.32-2a61.44,61.44,0,0,1-3.82-8.8c-1.86-6.46-5.08-12.49-5.94-19.24-.41-3.22-1.55-6.41-1-9.69.35-2.18-.94-4-.81-6.15a114.49,114.49,0,0,1,3.95-24.26C250,73.74,253.1,60.33,259.57,48.1c2.1-4,4.21-8,7.73-11,5.28-4.53,9.95-3.68,13.1,2.5C285.93,50.47,288.21,62.08,288.35,75.83Zm-33,62.6c3.25-4.26,6-7.82,8.72-11.43,5.4-7.25,10.77-14.52,13.53-23.31a95.71,95.71,0,0,0,3.75-36.34c-.64-8.23-2.69-16.11-7.16-23.27-1.47-2.36-2.46-1.66-3.58-.12a51,51,0,0,0-3.72,5.8C259.8,63,256.23,77.51,253.08,92.08c-.41,1.9-1.78,4.19-.09,6.31,3,3.83,4.13,8.68,6.66,12.8.89,1.43,2,3.69.26,4.82s-3.83-.2-5.21-1.74c-1.09-1.24-1.92-2.7-2.92-4-.55-.74-.77-1.83-2.16-2C249.92,118.42,252.54,128.05,255.39,138.43Z"/><path class="cls-2" d="M401.28,125.14c6.23-2.28,12.08-1.43,17.72,1.93a16.2,16.2,0,0,1,7,8.87,4.63,4.63,0,0,1-1.35,5.4c-1.7,1.54-3.12.37-4.45-.52-6.52-4.37-13.31-3.73-20.31-1.38-1.9.64-4,2.65-6,.24s-1.4-5.06-.51-7.7A65.71,65.71,0,0,1,401.28,125.14Z"/><path class="cls-6" d="M608.56,313.85c-18.22,1.62-36.18-1.18-54.15-3.42-6.78-.85-13.51-2.11-20.32-2.73-3-.27-4.43-2.17-3.79-5a20.15,20.15,0,0,0,.5-6.26c-.29-3.22,1.21-4.31,4.1-3.8,5,.87,9.88,2.15,14.88,2.81,14.9,1.95,29.77,4.08,44.78,5.18,9,.66,17.85-.36,26.78-.07,2.57.08,3.56.36,2.77,3.33-2.6,9.85-2.5,9.88-12.56,10Z"/><path class="cls-6" d="M496.76,301.5a85.84,85.84,0,0,1,4.73-19.57c.74-2,2.33-1.56,3.58-1.3,4.32.9,8.63,1.91,12.87,3.13a25.72,25.72,0,0,0,6.37,1.33c2.13.07,3.54,1.3,3.08,3.41-1.4,6.44-1.88,13.13-5,19.14-.94,1.8-2,2.33-4,1.85-6.33-1.56-12.69-3-19-4.5C497.6,304.57,496.2,303.77,496.76,301.5Z"/><path class="cls-6" d="M497.09,318.21c3.72.7,8.4,1.55,13.05,2.47a1.45,1.45,0,0,1,1.16,2c-1.73,5.49-1.86,11.25-2.92,16.86-.3,1.59-.87,2.39-2.61,2.07-4.45-.84-8.91-1.6-13.36-2.42-2.34-.44-3-1.71-2.34-4.08,1.3-4.68,2.34-9.44,3.52-14.16C493.93,319.61,494.05,318,497.09,318.21Z"/><path class="cls-6" d="M487.89,350.25a135,135,0,0,0,14.6,1.53c1,0,1.73.38,1.55,1.59-.57,3.69-.64,7.45-1.84,11-.45,1.34-1,2.54-2.69,2.33-4.69-.58-9.39-1.15-14.09-1.78-2.06-.27-2.82-1.25-1.95-3.42a36,36,0,0,0,2.21-8.64C485.91,351.15,486.48,349.81,487.89,350.25Z"/><path class="cls-6" d="M522.58,327.51c.46,6.86.44,13.7-2,20.25-1.46,3.94-3.79,5.31-7.28,4.84-1.11-.15-2-.36-1.64-1.79,1.59-6.18,1.47-12.67,3.38-18.79,3.08-.48,1.57-3.62,3-5.12.68-.74.3-2.48,1.67-2.53s1.5,1.31,1.65,2.42C521.43,327.52,522,327.53,522.58,327.51Z"/><path class="cls-3" d="M609.76,323.14c.61.86,1.53.73,2.4.76a16.66,16.66,0,0,1,2.63.16c-8.16,2.31-16.51,2.93-24.93,2.9-3,0-5.52-1.73-8.3-2.54a21,21,0,0,1,6.28-.21,13.1,13.1,0,0,0,5.66-.65l3-.18c.52.6,1,.42,1.45-.09l2.62-.13a2.13,2.13,0,0,0,2,0Z"/><path class="cls-6" d="M522.58,327.51c-.57,0-1.15,0-1.24-.72-.15-1.11-.25-2.47-1.65-2.42s-1,1.79-1.67,2.53c-1.4,1.5.11,4.64-3,5.12.63-2.44,1.16-4.91,1.92-7.3.85-2.71,2.85-3,5.18-.92a1.56,1.56,0,0,0,.4,1.59Z"/><path class="cls-6" d="M593.5,323.56a13.1,13.1,0,0,1-5.66.65C589.58,322.7,591.54,323.15,593.5,323.56Z"/><path class="cls-6" d="M597.92,323.29c-.45.51-.93.69-1.45.09A.84.84,0,0,1,597.92,323.29Z"/><path class="cls-6" d="M602.52,323.12a2.13,2.13,0,0,1-2,0A1.3,1.3,0,0,1,602.52,323.12Z"/><path class="cls-6" d="M522.55,325.39a1.56,1.56,0,0,1-.4-1.59A1.16,1.16,0,0,1,522.55,325.39Z"/><path class="cls-2" d="M406.51,381.58l.67.07Z"/><path class="cls-6" d="M559.32,455.78c-1.57.2-1.71-.79-1.2-2a5.13,5.13,0,0,1,3.43-3.19c14.49-4.88,29.53-7.71,44.15-12.1,16.52-5,33-10.18,49.46-15.21,3.38-1,6.87-1.69,10.31-2.52.51-.12,1.19-.44,1.46.17a2.15,2.15,0,0,1-.19,1.55A6.45,6.45,0,0,1,663,426a83.54,83.54,0,0,1-12.23,3.08c-4.51.66-8.78,2.77-13.21,4.07q-37.86,11.13-75.74,22.16C561.06,455.54,560.27,455.61,559.32,455.78Z"/><path class="cls-6" d="M564.22,445.18c-.12-4.21,2.31-6.66,7-7.71,8.6-1.94,17.2-3.94,25.74-6.13,10.8-2.76,21.53-5.76,32.31-8.61,3.57-1,6.67-3,10.12-4.17a185.66,185.66,0,0,1,31.5-7.88c.61-.1,1.33-.69,1.78.08s-.12,1.28-.48,1.83a5.79,5.79,0,0,1-4.84,3c-8,.22-15.53,2.73-22.81,5.45a448.07,448.07,0,0,1-43.35,13.66c-8,2.11-16,4.38-24.09,6.21C572.71,441.93,568.53,443.73,564.22,445.18Z"/><path class="cls-6" d="M678.73,399.49c-.27,3.09-2.12,4.21-4.39,4.71-7.41,1.65-14.63,4-22.07,5.63-7.95,1.72-15.55,5-23.4,7.26-9.55,2.76-19.34,4.76-28.76,7.87-8.63,2.84-17.67,4-26.18,7.08-.95.35-2.24,1.26-3,0-.62-1,.37-2.07,1-3,1-1.32,2.47-1.79,3.89-2.41A63.79,63.79,0,0,1,595.72,422c7.87-.78,15.06-4.16,22.6-6.26,4-1.12,8.12-2.05,12.15-3.18,13-3.65,25.91-7.37,38.88-11C672.3,400.74,675.34,400.23,678.73,399.49Z"/><path class="cls-6" d="M682.46,389.46c.54.1,1.71-.56,2.07.53.43,1.3-.71,2.13-1.67,2.52a47.59,47.59,0,0,1-5.07,1.46c-12.44,3.53-24.78,7.47-37.34,10.47-11.43,2.72-22.56,6.39-33.58,10.2A296.93,296.93,0,0,1,578,423.08c-.88.2-2,1.16-2.61-.15-.48-1,.33-1.91.88-2.71a4.84,4.84,0,0,1,2.79-1.68,240.52,240.52,0,0,1,25-6.67c7-1.34,13.67-4.3,20.43-6.7a73.79,73.79,0,0,1,8.18-2.69c14.1-3.23,27.82-7.86,41.79-11.54A29.25,29.25,0,0,1,682.46,389.46Z"/><path class="cls-6" d="M554,463c.65-2.09,2.72-1.71,4.14-2.13,11.2-3.26,22.37-6.75,33.73-9.35,8.72-2,17.25-4.62,25.89-6.83,8.12-2.08,16-4.95,24-7.56a86.26,86.26,0,0,1,18.34-3.64c-1.68,3.43-4.49,4.52-7.57,5.14-10.7,2.15-21,5.56-31.35,9.05-6,2-12.11,3.46-18.18,5.16L570.46,462c-.67-1-1.54-.46-2.36-.27-3.52.83-7.05,1.67-10.58,2.48C556.13,464.49,554.63,465,554,463Z"/><path class="cls-2" d="M555.59,476.93c-7.83,10.4-12.36,22.28-19.25,32.83a61.4,61.4,0,0,1-8.05,9.61,7,7,0,0,1-1.61,1.14c-1.41.75-3.32,1.35-4.36.43-1.27-1.11.63-2.28,1.22-3.29,7.26-12.62,14.68-25.14,21.91-37.77,1.47-2.57,3.3-3.44,6.09-3A28,28,0,0,0,555.59,476.93Z"/><path class="cls-6" d="M554,463c.64,2,2.14,1.5,3.53,1.18,3.53-.81,7.06-1.65,10.58-2.48.82-.19,1.69-.78,2.36.27A111.93,111.93,0,0,1,555.59,466c-1.14.2-2.55,1.28-3.29.1C551.38,464.67,553.28,464,554,463Z"/><path class="cls-2" d="M609.8,490.88l.7,1.77A1.58,1.58,0,0,1,609.8,490.88Z"/><path class="cls-3" d="M149.08,597.37l.1.25-.37.07a.59.59,0,0,1,.05-.27S149,597.39,149.08,597.37Z"/><path class="cls-3" d="M341.56,171.4c-12-4.37-23.52,5.86-24.75,17.55a32.25,32.25,0,0,0,2.26,16.15c-.85.89-1.56.42-2.16,0-8.28-6.12-12.18-14.24-11.42-24.62.73-9.84,4.84-17.37,14.19-21.37a15.72,15.72,0,0,1,21.61,10.35A15.13,15.13,0,0,1,341.56,171.4Z"/><path class="cls-5" d="M255.39,138.43c-2.85-10.38-5.47-20-5.77-30.23,1.39.22,1.61,1.31,2.16,2,1,1.32,1.83,2.78,2.92,4,1.38,1.54,3.38,3,5.21,1.74s.63-3.39-.26-4.82c-2.53-4.12-3.62-9-6.66-12.8-1.69-2.12-.32-4.41.09-6.31,3.15-14.57,6.72-29,13.85-42.32a51,51,0,0,1,3.72-5.8c1.12-1.54,2.11-2.24,3.58.12,4.47,7.16,6.52,15,7.16,23.27a95.71,95.71,0,0,1-3.75,36.34c-2.76,8.79-8.13,16.06-13.53,23.31C261.41,130.61,258.64,134.17,255.39,138.43Z"/><path class="cls-3" d="M400.58,370.4s28.41-7.65,32.63,6.83c0,0-.21,4.91-2.61,5.37s-4.85,1.5-8.37,2.54-9.48,2.25-9.48,2.25H408.4a20.65,20.65,0,0,1-3.81-4.79A19.3,19.3,0,0,1,403,376,53.7,53.7,0,0,0,400.58,370.4Z"/><path class="cls-2" d="M392.32,339.87l4.44,10.3s2.52,1.46,4.32.5,10.8-5.28,10.8-6.12,3.36-7,2.76-8.08-1.25-3.8-1.89-3.8h-2.91l-8.16,2.86Z"/><path class="cls-3" d="M391.74,344.13s7.2-4.66,24.05-9.44L417,345.27l-2.29,3.28L412,351.87l-7.63,1.92h-9.92s-5.85-6.6-5.85-7.08S391.74,344.13,391.74,344.13Z"/><path class="cls-3" d="M563.45,513s6.37,3.56,12.6,14.76l-7.18,4.1-9.18.27-.51-.72L555,525.63l-.3-3.6-.69-4-.09-2.25,1.66-1.26,4.37-.64Z"/><path class="cls-3" d="M587.13,492.65s2-.67,16.71,18.91l-12.92,3.91-4.37-1.64s-2.59-.32-5.83-3.56-6.14-6.35-6-6.78,1.87-5.46,1.87-5.46l6.12-4.08Z"/><path class="cls-3" d="M617.25,483.2s6.25,1.32,15.76,14.55l-4.53,2.32s-5.64,2.88-7,2.88-7.61.24-9.09-1-3.78-5.16-3.78-5.16l-3.45-8.76,4.56-2.76Z"/><path class="cls-2" d="M552.09,342.9S571.25,340,581.56,338l-1.68-1.51-3.72-.94-13.32,2.58a54.39,54.39,0,0,0-5.64,1.11C556.72,339.51,552.09,342.9,552.09,342.9Z"/><path class="cls-3" d="M543.65,344.4s4.33.47,5.62-.5l.22-.28A47.35,47.35,0,0,0,543.65,344.4Z"/><path class="cls-3" d="M533.39,579.28a4.54,4.54,0,0,1,.94.53,6.55,6.55,0,0,0,1.13,2.2l.06.93s-.26.43-.34.43a3.71,3.71,0,0,1-1.45-.27c-.31-.25-.88-.65-.88-.65Z"/><path class="cls-2" d="M720.47,348.72a18,18,0,0,0-8.21.61c-4,1.08-8,2.3-12.21,3.5,1.31-3.07,2.55-5.78,3.62-8.55.43-1.11.81-2.65-1.16-2.69-2.88,0-6-.66-8.1,2.21-1.62,2.11-4,2.25-6.37,2.57-11.3,6.15-23.63,9.58-35.75,13.55-23.31,7.64-47,13.95-70.57,20.68-6.1,1.75-11.81,5.1-18.23,5.36-4.55.18-6.32,2.54-7.57,6.3-5.52,16.59-15.49,31-23.1,46.57-5.14,10.51-11,20.65-16.55,31q-9.18,17.25-18.26,34.54c-3.73,7.09-7.38,14.22-11.05,21.34-.3.58-.4,1.28-1.17,1.47a34.89,34.89,0,0,1-7.07,12.25c1.33-4.53,4.74-8,6.28-12.4,3.09-7.2,6.26-14.36,9.73-21.39,5.57-11.27,11.06-22.58,16-34.16,4-9.35,8.28-18.54,12.37-27.83,8.32-18.88,16.72-37.72,24.79-56.7,2.38-5.6,6.34-8.05,12-8.69,4.5-.5,8.81-1.93,13.2-3,23.55-5.63,46.35-13.95,69.78-20,11.79-3,23.18-7.36,35-10.33a29.71,29.71,0,0,0,8.32-3.26.72.72,0,0,1,1-.57c.4.13.36.43,0,.68,0,.39-.1.78-.14,1.17a1.38,1.38,0,0,1,.5,1.49c.2.2.39.41.58.61,2.21.34,3.65-1.29,5.42-2.1a20.2,20.2,0,0,1,6.6-10.78,15.57,15.57,0,0,0,3.45-5.63,197.94,197.94,0,0,0,6.66-19.1,31.9,31.9,0,0,0,1.38-10.81c-.13-4.84-2.6-8.13-6.76-10.2a32.82,32.82,0,0,0-5.63-1.94c-6.52-1.87-13.38-1.91-19.94-3.43a58.46,58.46,0,0,0-26.64.13c-.9.2-2,1-2.79.2s.1-1.85.4-2.76c1.12-3.37.87-3.76-2.89-3.5-6.85.46-13.61,1.67-20.51,1.83-14.88.34-29.81.88-44.56-1.18a276.26,276.26,0,0,1-40.76-8.91c-16-4.77-32.16-8.9-48.26-13.27-8.29-2.25-14,1.32-15.73,9.75-.61,3-1,6.1-1.72,9.11-3.25,14.11-6.57,28.2-9.84,42.3a171.29,171.29,0,0,1-5.86,20.4c-1.26-.85-2.25-1.55-3.27-2.19-11.21-7-23.85-11.39-34.3-20-5.31-4.4-11-8.22-15.64-13.49-1.48-1.69-1.64-2.47.13-3.81a28.08,28.08,0,0,0,8.49-10.06,3.28,3.28,0,0,1,2.13-1.9c12.22-3.74,20-12.43,25.08-23.57,1.85-4,4.47-5.91,8.37-7.53a55,55,0,0,0,29.83-29.19c2.52-5.59-.23-9.95-6.31-10.7-1.67-.21-3.37-.3-5.35-.48a25.74,25.74,0,0,1,1.73-2.4c6.21-6.65,9.68-14.68,11.83-23.38a19.86,19.86,0,0,0,.7-6.91c-.37-3.43-2.77-5.22-6.21-5.39s-6.41.89-9.58,1.58c-4.38,1-8.64,2.76-13.47,2.43a23.33,23.33,0,0,1,4-4.72,67.92,67.92,0,0,0,9.6-11c7.48-11.05,13.28-22.8,16.56-35.83a139.09,139.09,0,0,0,3.85-27.19c.06-1.31.61-3.28-1.47-3.49-2.44-.25-1.72-1.69-1.62-3.07.63-8.06,1-16.13-.19-24.19a154.9,154.9,0,0,0-5.74-25.36c-2.37-7.37-5.11-14.26-9.54-20.52a17.44,17.44,0,0,0-8.45-6.12c-10.31-3.92-18.78,1.37-27.11,5.8a74.62,74.62,0,0,0-11.09,7.69c-8.43,6.69-15.84,14.48-23.79,21.7-1.29,1.17-2.35,2.87-4.85,2.4.65-1.22,1.11-2.22,1.67-3.15,2.33-3.83,2.05-4.39-2.32-5.34-11-2.4-22.05-2.49-33.35-1.26,1-2.76,2.32-5.33,2.92-8.15.35-1.68-.05-2.46-1.94-2.43a32.32,32.32,0,0,0-9.8,1.58C337,40.49,323,46.61,310,55c-3.4,2.21-3.41,2.26-4.51-1.62-2.66-9.31-6.35-18.16-12-26-3.52-4.89-7.58-9.2-13.52-11.3-10.34-3.67-19,.19-26.78,6.4C239,33.75,229.53,48.68,222.33,65.05c-3.83,8.71-7.71,17.47-9.23,27.1a70.09,70.09,0,0,1-2.43-6.79c-.46-1.41-1.13-2.66-2.86-2.85-1.88-.2-2.89,1-3.6,2.4a28.08,28.08,0,0,0-1.83,4.6c-3,10.13-3.12,20.56-2.64,31,1,20.9,7,40,21.08,56,.08.09,0,.38-.16,1l-14.15-3.07c-6.17-1.33-9.21,1.46-8.4,7.69a47.25,47.25,0,0,0,3.5,12.75,63.58,63.58,0,0,0,11.75,17.95,51.46,51.46,0,0,0-5.31,0c-4.72.53-7.25,4.07-6.22,8.68a20.84,20.84,0,0,0,1.54,4.37c4.42,9.15,11.44,16,19.85,21.38,3.42,2.17,7,3.7,8.68,7.83.57,1.42,2.15,2.5,3.42,3.55,5.85,4.84,12.52,8.29,19.45,11.3,1.26.54,3,.73,2.89,2.68s0,3.9-2.43,4.94c-2.6,1.12-4.24,3.5-5.86,5.76a27.45,27.45,0,0,1-4.69,5.12c-7.14,5.95-14.23,12-21.35,17.94a15.36,15.36,0,0,0-4.27,5c-1.56,3.33-4.24,5.26-7.47,6.7-2.72,1.21-5.4,2.52-8.08,3.84-10,4.9-20.43,8.65-30.22,13.92-7.68,4.13-15.35,8.27-23.24,12.05-9.44,4.53-18.34,9.88-25,18.54a75.3,75.3,0,0,0-15,33.6,81.42,81.42,0,0,0,5.71,46.49A47.42,47.42,0,0,1,120,466.45a157.39,157.39,0,0,0,1.66,22.84,16.92,16.92,0,0,1-.33,6.92c-5.31,18.19-2.43,36,2.68,53.61a35.21,35.21,0,0,1,1.08,12.35c-.69,11.55.6,22.73,6.57,33a74,74,0,0,0,20.45,23.09c6.26,4.57,12.83,8.3,20.85,7.58a10.33,10.33,0,0,1,7.57,2.33,44.13,44.13,0,0,0,22.28,8.72c9.79.87,19.35.1,28.78-3.82-.05,4.35-.16,18.3-.12,31.06a322.44,322.44,0,0,0,223.05,2c0-11.06.18-23.82.69-26.18a36,36,0,0,0,18.32,7c4.73.51,9.49.76,14.21,1.33,20.4,2.48,38.46-3,54.29-15.95a66,66,0,0,0,14.66-17.05c.79-1.31.85-3.34,2.85-3.74a45.44,45.44,0,0,0,15.84-6.1c6.82-4.41,13.33-9.45,16.19-17.58a2.93,2.93,0,0,1,2.52-2.07c8.67-1.7,15.25-6.75,21.14-12.95a20.43,20.43,0,0,1,4.89-3.91c17.65-9.83,29.09-23.89,30.23-44.85a3.94,3.94,0,0,1,1.55-3.45c3.22-2.25,4.41-5.68,5.22-9.31,1.55-7-.44-13.36-4.13-19-2.41-3.67-1.4-6.16.54-9.16,8.81-13.61,16.62-27.81,25-41.69,9.83-16.35,19.54-32.77,28.92-49.39,6.08-10.76,12.39-21.4,18.45-32.18C729,354.18,726.91,350,720.47,348.72ZM566.56,390.25c6.47-.23,12.2-3.7,18.23-5.79,10.67-3.7,21.69-6.17,32.49-9.42,21.92-6.59,44-12.8,65.52-20.52a67.36,67.36,0,0,1,8-2.11c.63-.14,1.74-1.25,2.07.38.2,1,.21,2.06-1,2.56a54.26,54.26,0,0,1-5.23,2.09c-19.11,6-38.12,12.21-57.36,17.74-16.88,4.86-33.88,9.35-50.61,14.69-7.56,2.41-15.73,3.54-22.4,8.57C558.06,393.42,560.88,390.46,566.56,390.25ZM681.85,335a18.4,18.4,0,0,1-4.91,2.73c-13.55,4.26-26.7,9.69-40.49,13.3-14.65,3.83-29.14,8.26-43.63,12.71-10.08,3.1-20.15,6.42-30.67,8-3.48.51-6.88,1.48-10.45,1.43-2.63,0-3.87,1.95-4.83,4-3.58,7.6-7.28,15.15-10.56,22.88-3.15,7.42-6.68,14.68-9.91,22.05-5.52,12.58-10.62,25.34-15.79,38.07-7.24,17.83-15.83,35-24.24,52.32-4.05,8.31-7.66,16.84-11.47,25.27-2.1,5.67-4.25,11.32-6.3,17s-4,11.42-6,17.16c-1.2-2.87,5.33-23,11.58-35.66,2.51-6.59,5-13.2,7.54-19.76,10.7-27.36,21.9-54.53,31.56-82.3,5.82-16.72,13-32.93,18.59-49.73,1.67-5,4.25-9.7,6.42-14.54.68-1.52,1.75-2.08,3.5-2.44,8.23-1.73,16.71-1.45,24.89-3.83,17.15-5,34.43-9.52,51.65-14.3,16-4.45,31.75-9.82,47.59-14.84,5-1.6,10.18-3,15.27-4.48.65-.19,1.58-.34,1.66.38C683,331.93,683.46,333.8,681.85,335Zm-121,4.32c4.42-1.54,8.9-2.69,13.64-2.32.91-.58,1.76-.85,2.32.44L578,338c.47-.33.53-.07.49.34,2.15.46,1.48,1.21.11,1.77a28.19,28.19,0,0,1-7.36,1.73q-5.57.66-11.14,1.28a50.08,50.08,0,0,1-16,4.08c-4.94,2.11-6.31,6.89-8,11.22-3.1,8.17-6.1,16.37-9.34,24.49-4.64,11.61-8.71,23.45-13.38,35.05-3.53,8.78-6.67,17.72-10,26.58-4.31,11.56-8.25,23.28-12.6,34.83-5.18,13.77-10.33,27.55-16.08,41.08-2.54,6-4.2,12.22-6.68,18.2-4.41,10.63-8.37,21.46-12.4,32.24-1.38,3.68-2.43,7.48-3.91,12.13a13.87,13.87,0,0,1,.51-7,210.94,210.94,0,0,1,7.61-21.59c8.25-20.15,14.06-41.15,21.62-61.55,5.23-14.1,10-28.39,14.91-42.6q11.64-33.45,23.26-66.91c3.22-9.26,6.62-18.46,9.69-27.77,2.34-7.11,6.73-11.22,14.44-11.25,1.74-.88,3.6-.76,5.46-.7h.05l8.86-2.27a.74.74,0,0,1,.5-.22C558.51,339.45,559.23,338.82,560.86,339.27Zm39.82,3.81c13.93-3.3,27.91-6.69,41.47-11.22C653.57,328,665,324.34,676.58,321c1.92-.55,4.82-2,5.6.32.7,2.08-2.39,3.12-4.29,3.65-14.18,4-27.72,9.76-41.75,14.17-12.55,4-25.37,6.92-38.06,10.34-11.43,3.08-22.71,6.71-34.17,9.71-7.37,1.93-14.92,3.16-22.64,4.75-1.61.17-1-1-.82-1.93,1.08-6.23,4.37-9.34,10.92-10.29C567.89,349.32,584.43,346.94,600.68,343.08Zm47-53.11c.28-1.26,1.3-1.44,2.29-1.34,4.15.43,8.15-1,12.27-.92a38.18,38.18,0,0,1,19.9,2.16,45.62,45.62,0,0,1,10.88.74,22.36,22.36,0,0,1,8.68,1.56c2.69.9,3.5,3.17,3.67,5.71a25.24,25.24,0,0,1-1.19,8.45c-1.87,6.71-4.91,13-7.43,19.45-.08.4-.15.8-.23,1.2a.6.6,0,0,1-.31.87c-1.43,3.19-4.77,3.15-7.39,4.27-1.16.5-1.33-.9-1-1.36,1.8-2.24,1.29-5.35,3-7.59.82-2.6-.6-3-2.71-2.78l-3.11.78c.58-2.91,2.21-4.78,4-6.59,1.28-2.19.35-3-1.88-3-4.35,0-8.53,1.12-12.75,1.94-.64.13-1.32.58-1.87,0-.7-.67-.11-1.43.12-2.12.76-2.28,1.7-4.51,2.24-6.84.3-1.27.95-3.13-.61-3.9-1.77-.89-2.77.81-3.7,2a37.92,37.92,0,0,0-5.69,10,7.37,7.37,0,0,1-4.7,4.69c-4.83,1.78-9.5,4.05-14.7,4.61h.09a1.72,1.72,0,0,1-2,.63c-2.62,1.22-5.24,2.47-8.57,2.71,2.68-3.75,2-8.14,4.06-11.6,1.4-3.93,2.58-8,4.27-11.76S646,293.88,647.69,290ZM495,266.19c.19-1.95,1.09-3.27,3.84-2.5,15.34,4.3,30.75,8.38,46.13,12.52a245.21,245.21,0,0,0,84.36,7.91c3.53-.29,7.08-.4,10.61-.69,2-.17,2.52.37,1.72,2.38-3.95,9.93-6.55,20.34-11.45,29.95a15.3,15.3,0,0,0-1.55,8.8c.24,1.63-.33,2.58-2,3.48-7.12,3.85-15,5.14-22.65,7.17-7.21,2.11-14.76,2.27-22.08,3.78-.2,0-.49-.28-1.06-.62,5.41-1.58,1.84-4.26,1.22-5.87,0,2.92-4.07,2-5.89,2.35-8.26,1.5-16.45,4.34-25.07,2.81l-1.56.11c-1.84,1-3.81.68-5.76.63L533.56,340c-3.74,2.13-5.66,5.93-8.34,9a47.82,47.82,0,0,1-5.41,12.13c-.54,2.48-.81,5-2.11,7.31-1.21,3.47-.91,7.42-3.39,10.47l-2.73,8.92a27.23,27.23,0,0,1-3,7.94L506.3,403c-.95,3.63-1.81,7.3-3.83,10.55-1.45,2.48-1.63,5.4-2.69,8-.85,3.15-1,6.57-3.57,9.07-1.59,2.3-1.36,5.26-2.73,7.65-.06.32-.13.64-.19,1l-.34,1-6.48,19.79c-2,3.31-2,7.27-3.6,10.69a17.52,17.52,0,0,1-1.71,5.24l-3.45,8.17c-8.16,19.29-13.77,39.65-20,59.63a13.25,13.25,0,0,1-2,4.42c-5,6.27-22.87,2.27-29.86,1.76-3.41-.25-4.26-1.55-3.13-4.67,2.78-7.71,3.88-15.84,6-23.67,2.29-8.48,4.3-17.1,7.46-25.4,2.5-6.56,3.4-13.71,5.33-20.51,6.64-23.5,12.56-47.19,18.38-70.91C470,363.66,482,323,491.77,281.75,493,276.6,494.49,271.51,495,266.19Zm-67.6,61c3.41,7.81,6.91,15.59,9.91,23.56,2.4,6.38,5.62,12.39,8,18.77a16.27,16.27,0,0,1,.4,11.21c-3.5-3.47-5-7.57-6.69-11.38a201.86,201.86,0,0,1-10.76-29.59c-1.9-7-5.06-13.54-8.42-20.57A14.82,14.82,0,0,1,427.41,327.15Zm-18.63,8.22c2.48-.65,3.54.44,3.9,2.64a6.54,6.54,0,0,1-1.85,5.46c-2.93,3.36-6.92,4.51-10.18,5-4.47.36-4.84-2.82-5.92-4.84s1.16-2.79,2.49-3.57A45.26,45.26,0,0,1,408.78,335.37Zm-2.9-9.6a1.76,1.76,0,0,1-1.07,2.16c-9.54,4.18-17.73,10.81-27.31,15-1.89.82-2.27-.06-2.92-1.27-5.81-10.93-13.71-19.52-26.95-23.21a31.48,31.48,0,0,1,11.89-3.57c10.32-1,19.59-5.31,29.11-8.84a83.31,83.31,0,0,0,8.6-3.94c1.91-1,3.07-.94,3.87,1.39C403.56,310.71,404.49,318.29,405.88,325.77Zm-62.32-13.95c-17.62-3.2-35.33-6.17-51.75-13.84-8.43-3.93-16.25-9-24.09-14-3.53-2.24-3.1-5.4-2.6-9.21,26.65,14.82,53.87,27.69,84,36.05A6.52,6.52,0,0,1,343.56,311.82Zm94.55-62.26c-2.26,11.83-8.51,20.9-19.58,26.17-5,2.37-10.06,2.1-15-.27-1.71-.81-2.08-1.7-1-3.33a23.3,23.3,0,0,0,3.82-6.94c.41-1.45,1.73-1.16,2.74-1.41,10.78-2.68,19.45-8.23,25-18.14,1.15-2,1.25-4.68,3.64-6.46A22.66,22.66,0,0,1,438.11,249.56Zm-48-16.68a9.69,9.69,0,0,1-2.23-.54c-1.75-.78-2.53-1.6-.41-3.12a27.06,27.06,0,0,1,11.74-4.28,57.83,57.83,0,0,1,24.69,1.32c2.49.68,6.17,1.38,6,4.23-.11,2.5-3.87,2.29-6.13,2.81a66.65,66.65,0,0,1-14.21,1.22C402.67,234.13,396.36,233.92,390.13,232.88ZM414.5,48a153.73,153.73,0,0,1,26.12-20.67c5.61-3.47,11.59-4.91,18.12-3.26,3.61.76,5.46,3.55,7.16,6.4,4.29,7.21,6.6,15.16,8.65,23.23a117.84,117.84,0,0,1,1.73,53c-1,4.85-2.84,9.53-4.26,14.3-.23.79-.84,1.85.07,2.43s1.7-.25,2.38-.76c1.39-1,2.69-2.16,4.78-3.88-6.15,21.57-14.11,41-32.29,54.52-.87-.41-.33-1.4-.28-2.16.48-7.18.83-14.36-.14-21.54a1.91,1.91,0,0,1,.57-2c5.25-4.59,9.2-10.28,13-16a52.73,52.73,0,0,0,9-26.12c1.18-18.39,1.32-36.74-3.56-54.73a64.11,64.11,0,0,0-4.92-12.61c-2.43-4.74-7.87-4-11.09-.65-4.47,4.69-6.36,10.7-9.14,16.25-3.22,6.45-5,13.47-7.48,20.21q-4,10.74-7.89,21.48c-.44,1.21-.71,2.49-1.16,4.08-3.18-5-8-7.9-13.17-10.94,3.28-1.64,6.28-2.94,9.07-4.58,4-2.34,7.56-5.15,7.69-10.42a6.27,6.27,0,0,0-3.1-6.11c-6.15-3.86-12.27-7.77-19.47-10.3C408.51,54.07,410.92,50.45,414.5,48Zm33.75,68.09c.75.84,1.87.23,2.8-.1,3.75-1.31,6.66-3.81,9.35-6.63.41-.43.87-1.22,1.6-.59.46.4.18,1-.05,1.52-2.35,5.47-3.77,11.31-6.69,16.56a42,42,0,0,1-11,13.22,68.4,68.4,0,0,0-6.44-19.85,98,98,0,0,0-6-11c-1.32-2-2.27-4.08-1.3-6.78,4.27-11.82,8.3-23.73,12.48-35.58a126.09,126.09,0,0,1,9.74-21.75c.89-1.52,1.09-2.87,2.65-.18,3.31,5.68,4.5,11.91,5.48,18.19,1.2,7.66,1.17,15.43,1.59,23.17.4,7.25-2.32,13.07-6.78,18.38-1.91,2.28-3.86,4.52-5.78,6.8a7.39,7.39,0,0,0-1.33,1.88C448.24,114.2,447.53,115.3,448.25,116.11ZM241.91,254.34c3.42-.79,6.8.58,9.82-1l1.84-.76c.29-.89,1.28-1.74.13-2.7-7.52-1.69-15-3.52-22.08-6.64-9.63-4.28-16.41-11.76-21.54-20.82-.76-1.34-.23-1.83,1.14-1.75a104.38,104.38,0,0,1,17.3,2.24,22,22,0,0,0,13.07-.92c-2.94-2.36-6-3.51-9-4.82-14.29-6.41-22.13-18-26.61-32.46-.7-2.27-.12-2.57,2.14-2A202.59,202.59,0,0,0,231.64,187c2.64-.21,5.3.17,7.85-.44-1.39-.21-2.59-.26-3.21-2.42-.47-1.61-3.1-2.59-4.74-3.88-.76-.59-2.07-1-1.79-2.15.74-3.19-1.47-4.81-3.2-6.79-7.87-9-14-18.92-16.13-30.89a2.08,2.08,0,0,1-.64-2.15,75.8,75.8,0,0,1-1.92-32.3c1.45,3.14,1.34,6,2,8.63,1,4.13,1,8.74,4.81,11.72a2.79,2.79,0,0,0,.94.28c2.32.14,3-.66,2.36-3.09a13.09,13.09,0,0,1-.32-6.47c0-.53-.11-1.06-.16-1.58a5.26,5.26,0,0,1,.05-3.9,95.25,95.25,0,0,1,6-30.31c6-15.52,13.33-30.57,24.51-43.3a82.59,82.59,0,0,1,12.19-11.22c2.55-1.93,5.54-2.43,8.43-3.33A1.72,1.72,0,0,1,270.4,23l2.34-.13c4.57-.48,8.06,1.65,11.18,4.65,6.09,5.85,9,13.45,11.7,21.17a147.63,147.63,0,0,1,5.93,24.4,90.65,90.65,0,0,1,.9,23.33,12,12,0,0,0-.17,2.31c.15,1.55-.83,3.87,1.08,4.42,2.23.64,3-1.79,3.89-3.37A19.34,19.34,0,0,0,309.47,91a9.4,9.4,0,0,1,1-4,61,61,0,0,0-1.77-19.7c-.56-2.26,0-3.4,1.71-4.69,8.23-6.19,17.49-10.29,27.07-13.82,4.14-1.52,7.93-4,12.36-4.75.51-.09,1-.1,1.86-.18-1.33,3.34-3.58,5.65-5.85,7.85-1.67,1.6-2.38,3.58-3.19,5.57-.22.53-.76,1.25-.13,1.82s1.24.1,1.84-.19c2.89-1.37,5.75-2.79,8.67-4.09,10.44-4.65,21.26-4.62,32.22-2.5.58.11,1.34,0,1.77.93-1.38,1.79-3.56,2.09-5.52,2.47-4.7.91-9,2.89-13.46,4.53-1.66.61-3.88,2-3.16,3.9s3,.49,4.44.17c11.95-2.68,23.67-2.18,35.11,2.29A49.27,49.27,0,0,1,414.77,72c3.74,2.63,3.47,4.64-.69,6.51-6.65,3-13.61,2.5-20.57,1.73-4.07-.45-8-1.75-12.15-1.7-.71,0-1.64-.26-2,.68s.3,1.5.84,2c1.36,1.29,2.78,2.53,4.21,3.74,8.46,7.18,10.63,16.42,9,27-.38,2.42-1.19,2.72-3.17,1.27-5.71-4.19-11.51-8.21-17.58-11.87-9.46-5.7-19.75-8.44-30.61-9.46l-3.33.34c1.84,3.1,4.75,4.5,7.73,5.51a126.82,126.82,0,0,1,38.28,20.83,20,20,0,0,0,7,3.75c4.42,1.23,6.86-.1,8-4.47a38.4,38.4,0,0,0,.52-19.68c-.43-1.72-.89-3.43-1.21-5.16-.26-1.38-1.81-3.51-.28-4a6.71,6.71,0,0,1,6,1c20.29,15.82,30.19,37.24,33.66,62.19a80.55,80.55,0,0,1,.48,21.82,47.08,47.08,0,0,0,0,6.61,2.19,2.19,0,0,0,1.5,2.35c4,1,7.68,3.44,12,3.37a104.31,104.31,0,0,0,23.25-5.59A29,29,0,0,1,473,192c-4.75,10.61-11.18,19.81-21.8,25.47-2,1.05-5.29,2.39-4.66,4.5s4.05,1.11,6.21.87c6.9-.76,13.77-1.75,21.19-2.72-1.86,4.43-3.86,8.22-7,11.37.15.43,0,.67-.43.8l-.09.09c-4.69,7.2-11.81,11-19.49,14.06-1.45.57-2-.08-1.94-1.57a19.53,19.53,0,0,0-.62-6.8c-3.35-15.58-14-24.73-27.41-31.39,11.56-11.58,12.89-25.59,8.83-40.48a19.78,19.78,0,0,0-11.61-13.32c-5.57-2.36-10.7-1.35-15.11,2.51-8.48,7.43-10.55,17.29-9.73,28,.19,2.52.24,5.07.61,7.58.42,2.78-.67,3-2.78,1.92-1.75-.12-2.38.63-2,2.37.56,2.4,2.31,3.68,4.31,4.73,8.87,4.71,17.74,9.43,26.63,14.09a45.17,45.17,0,0,1,8.86,5.46c-15.07-2.25-29.19-4.35-42.34,3.63-9,8.1-10,18.51-2.66,28.07,4.72,6.17,10.48,10.81,18.42,12,1.63.24,1.86.74,1,2.08-2.71,4.44-6.06,8.14-11.1,10-10.84,4-21.77,3.59-32.53.05a65.58,65.58,0,0,1-38.18-31.85,57.17,57.17,0,0,1-2.75-7.09c-.64-1.67-.27-2.41,1.7-2.37a8.81,8.81,0,0,0,3.5-.9c1.27-.54,2.92-1.05,2.56-3a3.28,3.28,0,0,0-3.19-2.49c-7.1-.65-14.15-.45-21,2-1,.36-1.76.93-1.69,2.17a2.16,2.16,0,0,0,1.47,2c1.74.59,3.66,1.64,5.31,1.36,3.79-.65,4.48,2,5.22,4.36a45.57,45.57,0,0,0,7.58,15.14c15.46,19.15,34.47,31.47,60.23,29.8,6.09-.4,12-1.74,17.37-5,1-.58,2-1.21,3-.15,2.41,2.54,5.69,3.4,8.83,4.35,2.3.7,1.94,1.62.79,3a35.14,35.14,0,0,1-17.3,11.1c-18.57,5.29-35.7.61-51.87-8.32-7.57-4.19-15.7-5.73-23.86-7.48-13.72-2.92-27.37-6-40.23-11.83-5.1-2.32-10.29-4.44-15.46-6.57A69.45,69.45,0,0,1,241.91,254.34Zm175.81-69.48a40.48,40.48,0,0,0-.33-4.28c-.75-4.47-2.35-8.49-7.3-9.62s-9,1-12.41,4.53c-.65.67-.74,1.83-1.83,2.1l-.28.19.22-.26a21.08,21.08,0,0,1,5-15.29c4.8-5.65,11.51-5.26,15.86.84,3.1,4.34,3.79,9.34,4,14.47.35,8.38-2,16.09-5.91,23.39C416.18,195.64,418,190.45,417.72,184.86ZM257.13,284.4c18.16,14.19,37.8,24.42,60.06,29.63,6.59,1.54,13.36,1.92,19.88,3.68.91.24,2.26.05,2.41,1.24.12,1-1.13,1.18-1.9,1.55-8.29,4-13.61,10.95-18.3,18.43-5.79,9.24-11.29,18.68-16.84,28.07-2.2,3.72-2.63,3.85-5.88.74-5.12-4.89-8.25-11.15-11.82-17.13-9.36-15.65-18.65-31.33-25.4-48.36C257,296.45,255,290.68,257.13,284.4ZM301,379c-.66-1.3-.3-2.25,1.09-2.95a14,14,0,0,0,5.66-5.91c2.9-5.07,6.81-9.51,9.2-15.89,1.16,3.05,2,5.32,2.89,7.57A24.63,24.63,0,0,0,327.92,373c1.36,1,1.59,1.81.17,3-1.27,1-2.22,2.48-3.54,3.43-6.05,4.38-10.12,10.42-14.21,16.69C306.33,390.83,303.91,384.75,301,379Zm4.57,24.66L296,384.7l.87-.42C300.87,390.18,304.85,396.09,305.53,403.62Zm-82.87-87.48c.79-1.58,1.67-3.7,3.57-3.41,2.09.31.55,2.52.78,3.85.88,5.31,1.85,10.61,2.62,15.94,1.7,11.72,4.4,23.24,7,34.79.8,3.56,2.35,5.3,6.14,5.94,9.69,1.63,19.53,2.5,29.07,5,2.27.6,5.64.33,6.1,3.07.43,2.54-2.87,3.2-4.61,4.61-7.32,5.93-15.49,10.67-23,16.28-1.84,1.37-2.22,2.47-.85,4.59,7.67,11.9,15.32,23.81,23.68,35.24,1.61,2.2,2.17,3.91.36,6.44-1.67,2.33-2.39,1.75-3.69-.09-7.77-10.89-15.46-21.83-22.68-33.1-1.67-2.6-3.45-5.12-5.21-7.66-1.53-2.19-1.16-4,.69-5.88a70.26,70.26,0,0,1,11.35-9.16c3.54-2.3,6.75-5,10-7.62.74-.59,2-1.12,1.5-2.3-.38-1-1.59-1-2.56-1.18-7.29-1.44-14.72-1.68-22.08-2.61-8.77-1.1-8.66-1-10.44-9.61-2-9.83-4.86-19.52-6.32-29.42-1.08-7.37-2.33-14.87-1.47-22.43C222.64,317,222.48,316.49,222.66,316.14ZM130.9,538c-.38.73,0,2.12-1.16,2.1s-1.45-1.36-1.62-2.26a121.06,121.06,0,0,1-2.07-12.06,74.82,74.82,0,0,1,6.46-39.37c.46-1,.66-1.6-.63-1.84-.95,1-1,2.72-2.95,3.39-1.14-4.58-.7-9.2-1-13.74-1-4.16-.62-8.35-.55-13,1.75,1.13,2.93,2,3.41,3.52a.67.67,0,0,1,.45.43c2.48,1,4.74,3,8.07,1.4-2.27-3.18-4.22-6.5-6.91-9.35-2.39-2.53-5.2-4.74-6.47-8.16-5.43-9.82-9.55-20-9.3-31.51a20.4,20.4,0,0,1,0-8.73c.33-12.29,4.62-23.28,11.09-33.54s16.48-15.8,26.85-20.95c1.29-.64,2.68-1.08,4-1.75,11.4-6.09,21.59-3.15,31.1,4.26a87.74,87.74,0,0,1,20.21,22.58A139.58,139.58,0,0,1,226,414.49c1.81,6.2,2.44,12.64,3.42,19a74.92,74.92,0,0,1,.36,19c-.25,2.56-1.14,4.92-2.29,8.42-5.91-15.9-11.6-30.93-24.31-41.7-1,3.21.63,5.9,1.71,8.69.54,1.4,1.84,2.49,1.74,4.17,7,15.14,14.89,29.9,21.37,45.3a31.18,31.18,0,0,1,2.16,7.31c.51,3.22.16,3.48-3.22,2.65a78.33,78.33,0,0,0-19.19-2.26c-13.23,0-25.22,4.31-36.8,10.14-2.84,1.43-5.57,3.07-8.35,4.62-3.66,3-7.61,5.64-10.94,8.95a103.21,103.21,0,0,0-15.1,18.73C134.45,530.92,132.75,534.52,130.9,538Zm11.18,27.72c-2.3,9.67-2.57,19.49-2.23,29.43-2.92-5.18-5.55-10.39-6.36-16.3l-.18-1.14a1.88,1.88,0,0,1-.6-2.07c-.69-10.21-.61-20.33,2.59-30.24,2.46-7.65,7-14.15,11.73-20.37,18-23.6,42-34.62,71.69-32.42,5.2.39,10.53.95,15.64,4.19-6.89,4.53-13,9.27-21.14,10.44-5.64.81-11.36,0-16.95,1.54-13.33,3.72-24.36,11.13-33.88,20.92A80.21,80.21,0,0,0,142.08,565.74Zm5,27.25c-2.24-6-.3-12,.48-17.82,3.52-26,16.71-45.4,40.74-56.84A35.58,35.58,0,0,1,201,515.18c-23.2,15.45-37.62,36.16-39.77,64.45-.41,9,.28,17.88,3.25,26.51,1.34,3.91,3.95,7.13,5.54,11C159.48,616.66,147.81,609.08,147.11,593Zm158.49,37.6a1.31,1.31,0,0,1-1.15.34c-4.95-2.25-10.2-1.3-15.32-1.41-10.93-.23-21.86-.17-32.8-.23a5.79,5.79,0,0,1-1.32-.1c-1.4-.4-2.41-1.25-2.26-2.81s1.53-1.36,2.57-1.36c8.18,0,16.36,0,24.54,0v-.53c8,0,15.91,0,23.87,0,1,0,2.46-.44,2.76,1.08C306.82,627.3,306.93,629.12,305.6,630.59Zm2.17-99.92c-9.87,21.55-19.63,43.16-33.93,62.3a1.69,1.69,0,0,1-1,1.37l-.42.57a1.06,1.06,0,0,1-.8,1l-.78.94a.69.69,0,0,1-.63.74v0c-3.15,5.47-8,9.39-12.59,13.47-10.84,9.57-23.78,14.77-37.77,17.33-11.65,2.13-23.15.76-33.16-5.81-10.79-7.08-16.84-17.68-18-30.51a73.74,73.74,0,0,1,12.57-49.15,4.23,4.23,0,0,1,.73-.66,87.59,87.59,0,0,1,37.64-28.92c9.67-4,17.65-10.43,25.76-16.73,5-3.87,9.86-7.84,14.74-11.82,1.37-1.12,2-1.09,2.36.78.54,2.78,1.27,5.51,1.92,8.27,3.92,6.75,7.69,13.54,13.44,19.09,7.69,7.43,16.43,12.49,27.09,14C309.3,526.77,309.51,526.86,307.77,530.67Zm21.47-16.22c-9.71,6.12-20.12,6.07-30.64,2.72-19.79-6.29-33.68-30.34-29-50,2.06-8.65,6.95-15.18,15.16-19a13.78,13.78,0,0,1,1.85-.7c.16-.06.39.1.86.24a87.23,87.23,0,0,0-2.88,11.37c-4.06,19.21,14.94,48.71,40.68,45.54a21.16,21.16,0,0,0,6.23-1.42l6.66-2.9C337.27,506.78,334.24,511.3,329.24,514.45Zm-6.65-16.19c-16.29,1.35-28.36-7.59-31.78-24.93-2-10.32.94-19.94,4.61-29.39,6.36-16.39,13.06-32.63,22.66-47.48a30.14,30.14,0,0,1,5.84-7.2c9.55-7.9,17.75-17.27,27.41-25.06,8.21-6.61,17.75-10.64,27.4-14.5,4.38-1.76,8.68-3.71,13-5.57,2.72,6.6,6.72,9.45,11.91,8.47,7.92-1.49,12.05-7.44,12.14-17.91a9.06,9.06,0,0,1,4.55,7.4c.44,8.18-3.28,14.58-9.35,19.61-2.39,2-5.84,1.38-8.83,1.83-20.6,3.14-40.62,7.8-57,21.92a22.32,22.32,0,0,0-5.62,6.47c-.42.82-1.29,1.89-.52,2.74s1.89,0,2.67-.48c4.37-2.57,8.81-5.05,13-7.9,14.47-9.83,31.07-13.23,47.83-16.23,1.89-.33,2.81,0,2,2.16a10,10,0,0,0,.14,6.52c.15-.28.45-.57.45-.85-.14-7.54,2-8,8.82-8.29,4-.19,8.18-.9,12,1.24,4.47,2.51,4.83,5.13.53,7.75-5.9,3.58-12.33,5.26-19.25,3,2,3.44,5.29,4.48,8.83,4.46a20.81,20.81,0,0,0,17.25-8.8,10.83,10.83,0,0,1-1.92,12.64c-5.72,6.13-13.12,8.45-21.13,9-9.25.62-18.49,1.07-27.63,2.86-4.52.88-9.28.7-13.8,1.39-5.08.77-9.92,3.11-14.87,4.76a10.69,10.69,0,0,0-5.26,3.43c-1,1.27-1.52,2.58-.74,3.78s2.05,0,3-.31a83.78,83.78,0,0,1,25.56-5.21A24.61,24.61,0,0,1,390,413.17,68.15,68.15,0,0,1,408.61,429c5.44,6.81,7.12,14.83,7.25,23.28a6,6,0,0,1-6.07,5.81c-1.37,0-1.62-.8-1.94-1.79-7.14-22.16-28-29.9-47.28-25.56a27.35,27.35,0,0,0-6.15,2.43c-1.59.8-2.38,2-1.76,3.77.68,1.92,2.21,1,3.38.77,7.79-1.44,15.57-2,23.42-.34,12.45,2.57,20.89,12.25,21.64,25,0,.66,0,1.33.07,2,.23,3.66.11,7.2-3.7,9.21a12.3,12.3,0,0,1-12.65-.26,15,15,0,0,1-5.71-5.92c-4.81-9.08-19.41-9.06-24.93,1.73-1.1,2.15-2,4.44-2.85,6.7C346.17,489,336.46,497.12,322.59,498.26ZM425.74,411c-.42,6.72-3.51,12-8.57,16.37-1.48,1.27-2,.23-2.76-.84A75.56,75.56,0,0,0,399.86,411c-1-.82-2.15-1.54-3.23-2.3-.6-.43-1.67-.66-1.36-1.61s1.32-.56,2.06-.61c7.84-.53,15.72-.59,23.39-2.6a2.64,2.64,0,0,1,2.92,1.05A8.22,8.22,0,0,1,425.74,411Zm-79.39,84a10.37,10.37,0,0,0,3.64-4.21c.95-1.7,2.07-1.64,3-.15,5.15,8.24,11.91,15.31,17.15,23.49a7.78,7.78,0,0,1,1.11,5c-1.9,1.62-3.37,1.24-5.06-.64-6.5-7.23-13.16-14.33-19.76-21.47C345.81,496.39,345,495.8,346.35,495Zm21.18,33.49c1.17-3.16,3.51-5.86,3.77-9.39,4.22-3.3,7.07-7.71,9.63-12.28,3.78-6.76,7.41-13.6,11-20.46,1.14-2.19,2.52-3.75,5.05-4.3,7.5-1.64,10.8-8,14.56-13.62,1.56-2.31,3.24-3.3,6.37-4.11-16.77,24.93-32.53,49.76-52,73C365.3,533.51,366.59,531.06,367.53,528.53Zm14.2,121c-4.52,0-8.59-5-8.49-10.54a8.33,8.33,0,0,1,8.18-8.36c4.7,0,8.64,4.44,8.58,9.6C390,644.72,385.72,649.47,381.73,649.5ZM381.45,605c-4.56-.05-8.13-4.06-8.11-9.1,0-5.4,4-9.84,8.77-9.72,4.2.11,8.22,4.63,8.23,9.27C390.36,600.75,386.39,605,381.45,605Zm.11-43c-4.88-.13-8.49-4.24-8.42-9.58s3.95-9.74,8.76-9.79c4,0,8.5,5.27,8.45,10C390.29,557.76,386.21,562.12,381.56,562ZM437,592.08c-.25.83-1.29.68-2,.72a3,3,0,0,1-3.16-.44l-.8-.28a40.54,40.54,0,0,1-11.84-3.16l-.09,0c-5.95-1.63-10.68-4.74-13.17-10.65-1.56-3.3-1-6.73-.46-10.11,1.76-10.71,5.21-21,7.79-31.51,5.68-23.08,11.55-46.1,17-69.24,1.79-7.67,4.22-15.14,6.32-22.71,6.37-22.92,12.26-46,18.31-69,3.74-14.25,7.88-28.39,11.6-42.65,2.65-10.13,6.28-20,7.92-30.41a5.74,5.74,0,0,1,.7-1.46c-.12-.7-.21-1.39.53-1.85l.06-.16A129.25,129.25,0,0,1,483,271.27c1-4.72,1.5-9.64,6.2-13,.65,2.33-.09,4-.49,5.65-.4,5.86-2.3,11.37-3.8,17-1.64,6.15-3.08,12.36-4.64,18.54-.32,1.23-.24,2.65-1.4,3.56-.05.28-.11.56-.16.85.24.33.18.57-.19.74l-.25.7a1.38,1.38,0,0,1-.54,1.84c-.1.47-.21.95-.31,1.42.21.31.16.54-.19.69-.18.65-.36,1.3-.53,2,.26.51.25.95-.35,1.21-.07.28-.13.55-.19.82l.11.28-.23.21-.76,2.8a7.89,7.89,0,0,1-1,5c-.09.37-.17.74-.26,1.11.2.62.31,1.21-.43,1.56l-.21,1a3.17,3.17,0,0,1,.12.44s-.14.1-.21.14c-.16.47-.33.93-.49,1.39a.83.83,0,0,1-.42,1.24c-4,15.85-8.06,31.7-12.42,47.47s-7.68,31.66-11.84,47.4c-1.82,6.89-3.37,13.83-5.25,20.7a1.34,1.34,0,0,1-.42,1.52c-.24.84-.47,1.69-.71,2.53a2.7,2.7,0,0,1-.71,2.66h0a3.59,3.59,0,0,1-.91,2.8l-.34,1.3a13.81,13.81,0,0,1-1.12,4.73c-1.88,1.61-.79,3.93-1.34,5.89-4.87,17.27-9.89,34.52-14.09,52-2,8.34-4.09,16.7-5.82,25.13-1.53,7.44-5.15,14.33-6,22-.39,3.5-1.42,6.94-.75,10.51,1.06,3.18,4,4.52,6.29,6.56,6.57,2,12.37,5.66,18.46,8.71C436.18,590.72,437.37,591,437,592.08Zm8.38-7.3c0,2.89-1.6,3.72-3.79,2.06-6.41-4.86-13.62-8.18-20.92-11.36-4.51-2-4.64-2.45-2.89-7.26l.12-1.77a1.43,1.43,0,0,1,.35-1.65c.07-1,.1-1.95.23-2.92.34-2.62,1.3-4.44,4.49-4.23,2.6.18,5.22,0,7.83-.09,6.14-.86,12.32-.7,18.49-.69,1.93,0,2.12.89,1.69,2.56-1,3.91-2.66,7.6-3.28,11.65C447,575.65,445.42,580.05,445.41,584.78Zm10.15,37.84c4.75,6.55,10.2,11.75,16.23,17C461.88,638,452.75,631.38,455.56,622.62Zm93.25-8.26c-8,11.53-18.74,19.22-31.89,23.75a52.6,52.6,0,0,1-16.53,3c-14.92-.11-27.06-4.95-35.49-16.7a46.56,46.56,0,0,1-9.12-28.59c0-1.08.11-2,1.4-2.24,11.61-2.18,21.78-8.63,33.2-11.35,5.12-1.22,9.89-3.33,14.7-5.32,2.12-.88,2.68-.5,3.28,1.73,4.51,16.8,15,27.67,32.12,31.83a27.13,27.13,0,0,0,6.9.74C550.67,611.19,550.23,612.29,548.81,614.36ZM624,557.61c-5.72,4.13-11.85,7.63-16.75,12.87s-11.39,7.47-18,9.36c-9.95,2.83-19.6,6.83-30.19,7.23-7.35.28-14.15-1.55-20.88-4.09-.65.27-1.21.29-1.49-.52h0c-.37-.14-.87-.19-1.12-.44a7,7,0,0,1,.06.93c3.26,6.2,9,8.53,15.39,9.71a50.2,50.2,0,0,0,29.59-2.95c.55-.23,1.09-.83,2.19-.21a20.86,20.86,0,0,1-7.24,7.8c-10.9,7.18-22.87,8.45-35.41,5.47s-23.1-14.46-25.08-27.2c-.19-1.25.06-1.86,1.29-2.14,4.13-.92,7.85-2.93,11.78-4.38.6-.69,1.66-.92,1.88-.14,1,3.48,3.88,6.3,3.57,10.21v.22a3.3,3.3,0,0,1,.89.51c-1.23-4.41.85-11.68,4.2-13.7s6.22-4.55,9.78-6.12a10.25,10.25,0,0,1,4.1-1.36c.51,2.86-.33,5.54-.58,8.26-.08.82-.68,1.79.75,2,4.23-1.28,6.2-4.13,6.83-8.52,1-7-1.52-12.69-5.63-18a46.7,46.7,0,0,1-7.31-13.24c-2.18-6.25,1.12-14.64,6.76-17.28a10.44,10.44,0,0,1,11.2,1.91c2.29,1.45,4.27,3.27,4.74,6a4,4,0,0,1-2.11,4.18c-1.9.71-4-.35-5.22-2-1.81-2.38-4.37-3.1-7-3.86l-.07,1.47a1.36,1.36,0,0,1,.37,1.56,17.42,17.42,0,0,0,4.44,6.48c4.24,4.33,9.33,3.53,12.35-1.89.87-1.57,1.6-1,2.44,0,5.87,6.89,10,14.57,10.76,23.77A52.38,52.38,0,0,1,582.78,570c3.77.42,5.12-2.13,6.38-4.44,3.87-7.12,3.93-14.67,2.24-22.39-1.86-8.48-6.49-15.45-11.76-22.12-2.39-3-4.65-6.18-6.86-9.36-4.91-7.07-.69-17.14,7.8-19.15,3.18-.76,6-.91,8.53,1.41.58-.06.82.23.84.78a.41.41,0,0,1,.28.34c1.86,1.14,2.68,3.12,3.9,4.78,1.44,1.95.64,3.39-.71,4.95-1.49,1.72-3.6,2.76-5.2,1.41-2.62-2.22-6-2.17-8.73-3.69a24.08,24.08,0,0,0,4.27,6.27c4.21,4.23,9.06,4,12.82-.7,2.3-2.87,2.39-2.94,4.64,0,6,7.7,11,15.93,12.68,25.73a38.85,38.85,0,0,1-.42,16.79,50.44,50.44,0,0,0-.8,5.81c-.23,1.63.73,1.27,1.6,1a8.47,8.47,0,0,0,5.46-5.83,41.32,41.32,0,0,0,.44-24.49c-2-6.69-5.59-12.48-9.68-18q-3.74-5.07-7.42-10.18c-3.37-4.7-3.29-7.27.27-12,2.72-3.58,8.64-5.67,12.44-4.28,1.49.55,2.91,1.32,4.36,2,2.08,1,3.32,2.79,4.65,4.54,1.11,1.46,1.49,3,.37,4.56a4.45,4.45,0,0,1-4.76,2.09c-3.51-.57-6.6-2.29-10-3.18,1,3.51,6.37,7.66,10.37,8s6.72-1.73,9-6.83c6.66,7.77,11.33,16.23,12.58,26.32C644.45,536.6,636.62,548.46,624,557.61Zm-57.34-63.67-.42.87c-.73,2.41-1.53,4.79-2.18,7.22-.38,1.44-1.19,1.66-2.44,1.32a22.5,22.5,0,0,1-3.41-1.07c4.57-.76,5-5.31,7.73-7.78C566,494.12,566.13,493.8,566.61,493.94Zm.66-1.31c0,.54,0,1-.62,1.26A.89.89,0,0,1,567.27,492.63Zm.07-.07.2-.41C567.87,492.54,567.57,492.53,567.34,492.56Zm81.87,22.91c-1.71-5.4-2.85-10.34-5.78-14.54-.55-.78-.25-1.46.55-1.92,1.91-1.08,2.71-3.13,4.3-5C651.71,501,652.4,507.75,649.21,515.47Zm-11.7-23.19-9.74-11.64c-4.71-4.37-9.95-7.3-16.7-6.21a11.93,11.93,0,0,0-5,1.72c-4.11,2.84-8.8,5-11.87,9.16-.06.39-.13.77-.19,1.15.25.46.11.69-.4.72-.26.17-.69.53-.76.47-5.67-4.8-11.88-3.27-18.11-1.57a5.34,5.34,0,0,1-3.51,2c.81-1.47,1.45-2.49,2.67-3,3.1-4.88,4.79-10.51,8.36-15.14-5.28-2.36-6.47-2-9.24,2.67-5.36,9-10.93,17.79-16.08,26.86-1.21,2.14-2.21,3.64-4.61,4.65-12.66,5.34-16.1,19.21-11.67,30.86,2,5.36,5.91,9.49,9,14.12,1.53,2.27.86,2.9-1.16,3.68-10.8,4.17-21.57,8.4-32.54,12.17-11.56,4-23.09,8-34.8,11.48-.91.28-1.77,1-3,.26,3-5.61,6.08-11.2,9-16.84,6-11.32,11.75-22.72,17.81-34C516,505.66,527,485.57,537.93,465.43c9-16.54,17.69-33.25,27.35-49.42a15.55,15.55,0,0,1,8.74-7c16.37-5.79,33.22-9.87,49.86-14.72,18.57-5.42,37.25-10.45,55.81-15.91,8-2.37,15.89-5.43,23.85-8.1,1.85-.62,3.73-1.38,6.08-1C685,409.91,662.17,451.38,637.51,492.28ZM716.43,361c-6.94.41-13.37,2.85-19.88,4.91-8,2.52-15.88,5.22-23.81,7.84a1.14,1.14,0,0,1-1.48.42l-1.15.33-4.51,1.41-3.31,1.26a.79.79,0,0,1-1.12.4c-9.45,2.73-19.08,4.74-28.45,7.77-16.69,5.39-33.81,9.36-50.35,15.26-4,1.41-8.09,2.29-12.11,3.49a18.57,18.57,0,0,0-11.07,8.81c-7.2,12.19-13.81,24.71-20.52,37.18q-25.14,46.74-50.26,93.49c-6.42,12-12.65,24.09-18.9,36.17-1.47,2.85-3.53,4.77-6.77,5.26l-.12.23-.2-.15-3.59,1a8,8,0,0,1-6.19,1.11c-.9-.15-1.72-.5-1.71-1.61s.81-1.36,1.79-1.34c1.4,0,2.81,0,4.22,0a1,1,0,0,1,.57-.13,5.58,5.58,0,0,1,2.79-1,22.76,22.76,0,0,0,5.43-6.6c5.93-11.23,11.79-22.51,17.81-33.69,10.4-19.33,20.95-38.58,31.37-57.9,10-18.48,19.72-37.08,29.82-55.49C548.91,421.85,552.68,414,558,407c2.2-2.92,4.91-5.2,8.44-6,11.79-2.6,23.15-6.66,34.74-9.94,11.38-3.22,22.66-6.8,34-10.21.73-.22,1.5-.36,2.25-.54l.08-.21.14.17,5.12-1.38a1.91,1.91,0,0,1,2-.57l1.58-.45c.11-.29.28-.36.52-.13l1-.23a3.62,3.62,0,0,1,3-.75l1.76-.48a2,2,0,0,1,2.14-.59l3.65-1c5.09-2,10.12-4.21,15.6-5a.7.7,0,0,1,.42-.16l.14-.25.23.15,3.81-1.14a1.89,1.89,0,0,1,1.94-.65l2-.67.07-.21.15.16c10.68-3.14,21.25-6.69,32.07-9.37a5,5,0,0,1,1.27-.31c1.33.06,3.53-.92,3.78.56C720.22,359.59,718.34,360.91,716.43,361Z"/><path class="cls-3" d="M446.56,221.92c-.63-2.11,2.68-3.45,4.66-4.5,10.62-5.66,17-14.86,21.8-25.47a29,29,0,0,0,2.64-11.19,104.31,104.31,0,0,1-23.25,5.59c-5.65,1.7-11.83,1.7-16.92,5.24a.81.81,0,0,1-1.18-.05c-.44-.53,0-1,.12-1.48a76.93,76.93,0,0,0,3.48-23,103.08,103.08,0,0,0-1.57-16.12,54.06,54.06,0,0,0-2.38-9.2c-3-8.4-9-16.92-17.3-20.78a19.44,19.44,0,0,0-15.11-.67c-2.54,1-4,3.1-5.66,5.16-1.76,2.23-3.45,4.51-5,6.9a55.09,55.09,0,0,0-8.35,22.86c-.65,4.93-1.07,9.9-1.3,14.86-.22,4.74-.67,9.59.69,14.2,1,3.24,1.32,7.09,5.29,8.56,2.11,1.07,3.2.86,2.78-1.92-.37-2.51-.42-5.06-.61-7.58-.82-10.68,1.25-20.54,9.73-28,4.41-3.86,9.54-4.87,15.11-2.51a19.78,19.78,0,0,1,11.61,13.32c4.06,14.89,2.73,28.9-8.83,40.48,13.37,6.66,24.06,15.81,27.41,31.39,1.21,2,3.08,1.87,5,1.53a28.4,28.4,0,0,0,13.13-5.82,5.24,5.24,0,0,1,3.89-1.4l.09-.09.43-.8c3.11-3.15,5.11-6.94,7-11.37-7.42,1-14.29,2-21.19,2.72C450.61,223,447.21,224.08,446.56,221.92Zm-21.87-80.58c-1.7,1.54-3.12.37-4.45-.52-6.52-4.37-13.31-3.73-20.31-1.38-1.9.64-4,2.65-6,.24s-1.4-5.06-.51-7.7l0,0,0,0s5.71-5.54,7.74-6.76h.14c6.23-2.28,12.08-1.43,17.72,1.93a16.2,16.2,0,0,1,7,8.87A4.63,4.63,0,0,1,424.69,141.34Z"/></svg>